<?xml version="1.0" encoding="UTF-8" standalone="yes"?>
<!-- Created with qrencode 3.4.2 (http://fukuchi.org/works/qrencode/index.html.en) -->
<svg width="4.34cm" height="4.34cm" viewBox="0 0 41 41" preserveAspectRatio="none" version="1.1" xmlns="http://www.w3.org/2000/svg">
	<g id="QRcode">
		<rect x="0" y="0" width="41" height="41" fill="#ffffff" />
		<g id="Pattern">
			<rect x="4" y="4" width="7" height="1" fill="#000000" />
			<rect x="12" y="4" width="1" height="1" fill="#000000" />
			<rect x="17" y="4" width="2" height="1" fill="#000000" />
			<rect x="20" y="4" width="3" height="1" fill="#000000" />
			<rect x="27" y="4" width="1" height="1" fill="#000000" />
			<rect x="30" y="4" width="7" height="1" fill="#000000" />
			<rect x="4" y="5" width="1" height="1" fill="#000000" />
			<rect x="10" y="5" width="1" height="1" fill="#000000" />
			<rect x="12" y="5" width="1" height="1" fill="#000000" />
			<rect x="15" y="5" width="5" height="1" fill="#000000" />
			<rect x="23" y="5" width="1" height="1" fill="#000000" />
			<rect x="26" y="5" width="1" height="1" fill="#000000" />
			<rect x="28" y="5" width="1" height="1" fill="#000000" />
			<rect x="30" y="5" width="1" height="1" fill="#000000" />
			<rect x="36" y="5" width="1" height="1" fill="#000000" />
			<rect x="4" y="6" width="1" height="1" fill="#000000" />
			<rect x="6" y="6" width="3" height="1" fill="#000000" />
			<rect x="10" y="6" width="1" height="1" fill="#000000" />
			<rect x="12" y="6" width="2" height="1" fill="#000000" />
			<rect x="16" y="6" width="1" height="1" fill="#000000" />
			<rect x="18" y="6" width="1" height="1" fill="#000000" />
			<rect x="21" y="6" width="1" height="1" fill="#000000" />
			<rect x="25" y="6" width="1" height="1" fill="#000000" />
			<rect x="27" y="6" width="1" height="1" fill="#000000" />
			<rect x="30" y="6" width="1" height="1" fill="#000000" />
			<rect x="32" y="6" width="3" height="1" fill="#000000" />
			<rect x="36" y="6" width="1" height="1" fill="#000000" />
			<rect x="4" y="7" width="1" height="1" fill="#000000" />
			<rect x="6" y="7" width="3" height="1" fill="#000000" />
			<rect x="10" y="7" width="1" height="1" fill="#000000" />
			<rect x="12" y="7" width="3" height="1" fill="#000000" />
			<rect x="16" y="7" width="1" height="1" fill="#000000" />
			<rect x="20" y="7" width="1" height="1" fill="#000000" />
			<rect x="22" y="7" width="1" height="1" fill="#000000" />
			<rect x="30" y="7" width="1" height="1" fill="#000000" />
			<rect x="32" y="7" width="3" height="1" fill="#000000" />
			<rect x="36" y="7" width="1" height="1" fill="#000000" />
			<rect x="4" y="8" width="1" height="1" fill="#000000" />
			<rect x="6" y="8" width="3" height="1" fill="#000000" />
			<rect x="10" y="8" width="1" height="1" fill="#000000" />
			<rect x="13" y="8" width="2" height="1" fill="#000000" />
			<rect x="16" y="8" width="1" height="1" fill="#000000" />
			<rect x="21" y="8" width="2" height="1" fill="#000000" />
			<rect x="27" y="8" width="1" height="1" fill="#000000" />
			<rect x="30" y="8" width="1" height="1" fill="#000000" />
			<rect x="32" y="8" width="3" height="1" fill="#000000" />
			<rect x="36" y="8" width="1" height="1" fill="#000000" />
			<rect x="4" y="9" width="1" height="1" fill="#000000" />
			<rect x="10" y="9" width="1" height="1" fill="#000000" />
			<rect x="12" y="9" width="3" height="1" fill="#000000" />
			<rect x="20" y="9" width="2" height="1" fill="#000000" />
			<rect x="23" y="9" width="2" height="1" fill="#000000" />
			<rect x="28" y="9" width="1" height="1" fill="#000000" />
			<rect x="30" y="9" width="1" height="1" fill="#000000" />
			<rect x="36" y="9" width="1" height="1" fill="#000000" />
			<rect x="4" y="10" width="7" height="1" fill="#000000" />
			<rect x="12" y="10" width="1" height="1" fill="#000000" />
			<rect x="14" y="10" width="1" height="1" fill="#000000" />
			<rect x="16" y="10" width="1" height="1" fill="#000000" />
			<rect x="18" y="10" width="1" height="1" fill="#000000" />
			<rect x="20" y="10" width="1" height="1" fill="#000000" />
			<rect x="22" y="10" width="1" height="1" fill="#000000" />
			<rect x="24" y="10" width="1" height="1" fill="#000000" />
			<rect x="26" y="10" width="1" height="1" fill="#000000" />
			<rect x="28" y="10" width="1" height="1" fill="#000000" />
			<rect x="30" y="10" width="7" height="1" fill="#000000" />
			<rect x="14" y="11" width="2" height="1" fill="#000000" />
			<rect x="17" y="11" width="1" height="1" fill="#000000" />
			<rect x="20" y="11" width="6" height="1" fill="#000000" />
			<rect x="4" y="12" width="2" height="1" fill="#000000" />
			<rect x="8" y="12" width="3" height="1" fill="#000000" />
			<rect x="14" y="12" width="1" height="1" fill="#000000" />
			<rect x="16" y="12" width="2" height="1" fill="#000000" />
			<rect x="20" y="12" width="2" height="1" fill="#000000" />
			<rect x="24" y="12" width="3" height="1" fill="#000000" />
			<rect x="31" y="12" width="1" height="1" fill="#000000" />
			<rect x="33" y="12" width="4" height="1" fill="#000000" />
			<rect x="8" y="13" width="2" height="1" fill="#000000" />
			<rect x="12" y="13" width="1" height="1" fill="#000000" />
			<rect x="17" y="13" width="4" height="1" fill="#000000" />
			<rect x="22" y="13" width="1" height="1" fill="#000000" />
			<rect x="27" y="13" width="1" height="1" fill="#000000" />
			<rect x="29" y="13" width="1" height="1" fill="#000000" />
			<rect x="31" y="13" width="1" height="1" fill="#000000" />
			<rect x="34" y="13" width="1" height="1" fill="#000000" />
			<rect x="4" y="14" width="1" height="1" fill="#000000" />
			<rect x="8" y="14" width="4" height="1" fill="#000000" />
			<rect x="13" y="14" width="2" height="1" fill="#000000" />
			<rect x="19" y="14" width="1" height="1" fill="#000000" />
			<rect x="22" y="14" width="1" height="1" fill="#000000" />
			<rect x="24" y="14" width="2" height="1" fill="#000000" />
			<rect x="27" y="14" width="2" height="1" fill="#000000" />
			<rect x="31" y="14" width="1" height="1" fill="#000000" />
			<rect x="34" y="14" width="2" height="1" fill="#000000" />
			<rect x="4" y="15" width="2" height="1" fill="#000000" />
			<rect x="7" y="15" width="1" height="1" fill="#000000" />
			<rect x="9" y="15" width="1" height="1" fill="#000000" />
			<rect x="13" y="15" width="1" height="1" fill="#000000" />
			<rect x="16" y="15" width="1" height="1" fill="#000000" />
			<rect x="18" y="15" width="1" height="1" fill="#000000" />
			<rect x="20" y="15" width="3" height="1" fill="#000000" />
			<rect x="25" y="15" width="6" height="1" fill="#000000" />
			<rect x="33" y="15" width="1" height="1" fill="#000000" />
			<rect x="4" y="16" width="4" height="1" fill="#000000" />
			<rect x="9" y="16" width="3" height="1" fill="#000000" />
			<rect x="15" y="16" width="1" height="1" fill="#000000" />
			<rect x="17" y="16" width="2" height="1" fill="#000000" />
			<rect x="23" y="16" width="3" height="1" fill="#000000" />
			<rect x="28" y="16" width="1" height="1" fill="#000000" />
			<rect x="30" y="16" width="1" height="1" fill="#000000" />
			<rect x="32" y="16" width="2" height="1" fill="#000000" />
			<rect x="35" y="16" width="2" height="1" fill="#000000" />
			<rect x="6" y="17" width="1" height="1" fill="#000000" />
			<rect x="11" y="17" width="4" height="1" fill="#000000" />
			<rect x="16" y="17" width="1" height="1" fill="#000000" />
			<rect x="19" y="17" width="3" height="1" fill="#000000" />
			<rect x="25" y="17" width="3" height="1" fill="#000000" />
			<rect x="29" y="17" width="1" height="1" fill="#000000" />
			<rect x="4" y="18" width="2" height="1" fill="#000000" />
			<rect x="7" y="18" width="2" height="1" fill="#000000" />
			<rect x="10" y="18" width="2" height="1" fill="#000000" />
			<rect x="14" y="18" width="6" height="1" fill="#000000" />
			<rect x="22" y="18" width="1" height="1" fill="#000000" />
			<rect x="24" y="18" width="4" height="1" fill="#000000" />
			<rect x="29" y="18" width="3" height="1" fill="#000000" />
			<rect x="33" y="18" width="3" height="1" fill="#000000" />
			<rect x="4" y="19" width="1" height="1" fill="#000000" />
			<rect x="6" y="19" width="2" height="1" fill="#000000" />
			<rect x="9" y="19" width="1" height="1" fill="#000000" />
			<rect x="13" y="19" width="3" height="1" fill="#000000" />
			<rect x="17" y="19" width="1" height="1" fill="#000000" />
			<rect x="19" y="19" width="7" height="1" fill="#000000" />
			<rect x="27" y="19" width="1" height="1" fill="#000000" />
			<rect x="29" y="19" width="5" height="1" fill="#000000" />
			<rect x="4" y="20" width="1" height="1" fill="#000000" />
			<rect x="7" y="20" width="2" height="1" fill="#000000" />
			<rect x="10" y="20" width="3" height="1" fill="#000000" />
			<rect x="16" y="20" width="2" height="1" fill="#000000" />
			<rect x="19" y="20" width="1" height="1" fill="#000000" />
			<rect x="21" y="20" width="1" height="1" fill="#000000" />
			<rect x="25" y="20" width="1" height="1" fill="#000000" />
			<rect x="27" y="20" width="2" height="1" fill="#000000" />
			<rect x="30" y="20" width="1" height="1" fill="#000000" />
			<rect x="32" y="20" width="1" height="1" fill="#000000" />
			<rect x="36" y="20" width="1" height="1" fill="#000000" />
			<rect x="6" y="21" width="2" height="1" fill="#000000" />
			<rect x="11" y="21" width="2" height="1" fill="#000000" />
			<rect x="14" y="21" width="1" height="1" fill="#000000" />
			<rect x="17" y="21" width="4" height="1" fill="#000000" />
			<rect x="22" y="21" width="2" height="1" fill="#000000" />
			<rect x="25" y="21" width="3" height="1" fill="#000000" />
			<rect x="29" y="21" width="1" height="1" fill="#000000" />
			<rect x="31" y="21" width="1" height="1" fill="#000000" />
			<rect x="33" y="21" width="1" height="1" fill="#000000" />
			<rect x="4" y="22" width="1" height="1" fill="#000000" />
			<rect x="6" y="22" width="1" height="1" fill="#000000" />
			<rect x="9" y="22" width="2" height="1" fill="#000000" />
			<rect x="14" y="22" width="1" height="1" fill="#000000" />
			<rect x="19" y="22" width="4" height="1" fill="#000000" />
			<rect x="24" y="22" width="4" height="1" fill="#000000" />
			<rect x="29" y="22" width="2" height="1" fill="#000000" />
			<rect x="32" y="22" width="1" height="1" fill="#000000" />
			<rect x="34" y="22" width="2" height="1" fill="#000000" />
			<rect x="4" y="23" width="1" height="1" fill="#000000" />
			<rect x="7" y="23" width="2" height="1" fill="#000000" />
			<rect x="11" y="23" width="1" height="1" fill="#000000" />
			<rect x="13" y="23" width="1" height="1" fill="#000000" />
			<rect x="16" y="23" width="1" height="1" fill="#000000" />
			<rect x="18" y="23" width="1" height="1" fill="#000000" />
			<rect x="21" y="23" width="3" height="1" fill="#000000" />
			<rect x="25" y="23" width="1" height="1" fill="#000000" />
			<rect x="27" y="23" width="3" height="1" fill="#000000" />
			<rect x="32" y="23" width="2" height="1" fill="#000000" />
			<rect x="4" y="24" width="1" height="1" fill="#000000" />
			<rect x="6" y="24" width="2" height="1" fill="#000000" />
			<rect x="9" y="24" width="7" height="1" fill="#000000" />
			<rect x="17" y="24" width="3" height="1" fill="#000000" />
			<rect x="21" y="24" width="1" height="1" fill="#000000" />
			<rect x="24" y="24" width="2" height="1" fill="#000000" />
			<rect x="29" y="24" width="4" height="1" fill="#000000" />
			<rect x="36" y="24" width="1" height="1" fill="#000000" />
			<rect x="4" y="25" width="2" height="1" fill="#000000" />
			<rect x="11" y="25" width="2" height="1" fill="#000000" />
			<rect x="14" y="25" width="1" height="1" fill="#000000" />
			<rect x="16" y="25" width="1" height="1" fill="#000000" />
			<rect x="19" y="25" width="4" height="1" fill="#000000" />
			<rect x="25" y="25" width="1" height="1" fill="#000000" />
			<rect x="27" y="25" width="1" height="1" fill="#000000" />
			<rect x="29" y="25" width="1" height="1" fill="#000000" />
			<rect x="31" y="25" width="1" height="1" fill="#000000" />
			<rect x="33" y="25" width="1" height="1" fill="#000000" />
			<rect x="7" y="26" width="2" height="1" fill="#000000" />
			<rect x="10" y="26" width="2" height="1" fill="#000000" />
			<rect x="13" y="26" width="1" height="1" fill="#000000" />
			<rect x="15" y="26" width="5" height="1" fill="#000000" />
			<rect x="21" y="26" width="2" height="1" fill="#000000" />
			<rect x="24" y="26" width="1" height="1" fill="#000000" />
			<rect x="27" y="26" width="6" height="1" fill="#000000" />
			<rect x="34" y="26" width="2" height="1" fill="#000000" />
			<rect x="6" y="27" width="2" height="1" fill="#000000" />
			<rect x="9" y="27" width="1" height="1" fill="#000000" />
			<rect x="12" y="27" width="1" height="1" fill="#000000" />
			<rect x="15" y="27" width="1" height="1" fill="#000000" />
			<rect x="17" y="27" width="1" height="1" fill="#000000" />
			<rect x="21" y="27" width="1" height="1" fill="#000000" />
			<rect x="23" y="27" width="1" height="1" fill="#000000" />
			<rect x="25" y="27" width="1" height="1" fill="#000000" />
			<rect x="27" y="27" width="1" height="1" fill="#000000" />
			<rect x="29" y="27" width="3" height="1" fill="#000000" />
			<rect x="4" y="28" width="4" height="1" fill="#000000" />
			<rect x="9" y="28" width="2" height="1" fill="#000000" />
			<rect x="14" y="28" width="1" height="1" fill="#000000" />
			<rect x="16" y="28" width="2" height="1" fill="#000000" />
			<rect x="19" y="28" width="1" height="1" fill="#000000" />
			<rect x="21" y="28" width="1" height="1" fill="#000000" />
			<rect x="23" y="28" width="4" height="1" fill="#000000" />
			<rect x="28" y="28" width="5" height="1" fill="#000000" />
			<rect x="35" y="28" width="1" height="1" fill="#000000" />
			<rect x="12" y="29" width="3" height="1" fill="#000000" />
			<rect x="17" y="29" width="4" height="1" fill="#000000" />
			<rect x="22" y="29" width="1" height="1" fill="#000000" />
			<rect x="25" y="29" width="1" height="1" fill="#000000" />
			<rect x="28" y="29" width="1" height="1" fill="#000000" />
			<rect x="32" y="29" width="4" height="1" fill="#000000" />
			<rect x="4" y="30" width="7" height="1" fill="#000000" />
			<rect x="13" y="30" width="2" height="1" fill="#000000" />
			<rect x="19" y="30" width="4" height="1" fill="#000000" />
			<rect x="24" y="30" width="1" height="1" fill="#000000" />
			<rect x="28" y="30" width="1" height="1" fill="#000000" />
			<rect x="30" y="30" width="1" height="1" fill="#000000" />
			<rect x="32" y="30" width="1" height="1" fill="#000000" />
			<rect x="34" y="30" width="2" height="1" fill="#000000" />
			<rect x="4" y="31" width="1" height="1" fill="#000000" />
			<rect x="10" y="31" width="1" height="1" fill="#000000" />
			<rect x="12" y="31" width="1" height="1" fill="#000000" />
			<rect x="16" y="31" width="1" height="1" fill="#000000" />
			<rect x="18" y="31" width="1" height="1" fill="#000000" />
			<rect x="20" y="31" width="3" height="1" fill="#000000" />
			<rect x="25" y="31" width="1" height="1" fill="#000000" />
			<rect x="28" y="31" width="1" height="1" fill="#000000" />
			<rect x="32" y="31" width="1" height="1" fill="#000000" />
			<rect x="36" y="31" width="1" height="1" fill="#000000" />
			<rect x="4" y="32" width="1" height="1" fill="#000000" />
			<rect x="6" y="32" width="3" height="1" fill="#000000" />
			<rect x="10" y="32" width="1" height="1" fill="#000000" />
			<rect x="12" y="32" width="1" height="1" fill="#000000" />
			<rect x="15" y="32" width="1" height="1" fill="#000000" />
			<rect x="17" y="32" width="2" height="1" fill="#000000" />
			<rect x="20" y="32" width="2" height="1" fill="#000000" />
			<rect x="23" y="32" width="4" height="1" fill="#000000" />
			<rect x="28" y="32" width="5" height="1" fill="#000000" />
			<rect x="35" y="32" width="1" height="1" fill="#000000" />
			<rect x="4" y="33" width="1" height="1" fill="#000000" />
			<rect x="6" y="33" width="3" height="1" fill="#000000" />
			<rect x="10" y="33" width="1" height="1" fill="#000000" />
			<rect x="13" y="33" width="1" height="1" fill="#000000" />
			<rect x="16" y="33" width="1" height="1" fill="#000000" />
			<rect x="19" y="33" width="2" height="1" fill="#000000" />
			<rect x="22" y="33" width="1" height="1" fill="#000000" />
			<rect x="25" y="33" width="4" height="1" fill="#000000" />
			<rect x="30" y="33" width="1" height="1" fill="#000000" />
			<rect x="32" y="33" width="1" height="1" fill="#000000" />
			<rect x="4" y="34" width="1" height="1" fill="#000000" />
			<rect x="6" y="34" width="3" height="1" fill="#000000" />
			<rect x="10" y="34" width="1" height="1" fill="#000000" />
			<rect x="15" y="34" width="6" height="1" fill="#000000" />
			<rect x="25" y="34" width="2" height="1" fill="#000000" />
			<rect x="29" y="34" width="2" height="1" fill="#000000" />
			<rect x="32" y="34" width="1" height="1" fill="#000000" />
			<rect x="4" y="35" width="1" height="1" fill="#000000" />
			<rect x="10" y="35" width="1" height="1" fill="#000000" />
			<rect x="12" y="35" width="2" height="1" fill="#000000" />
			<rect x="15" y="35" width="1" height="1" fill="#000000" />
			<rect x="17" y="35" width="1" height="1" fill="#000000" />
			<rect x="19" y="35" width="1" height="1" fill="#000000" />
			<rect x="21" y="35" width="2" height="1" fill="#000000" />
			<rect x="25" y="35" width="5" height="1" fill="#000000" />
			<rect x="31" y="35" width="2" height="1" fill="#000000" />
			<rect x="4" y="36" width="7" height="1" fill="#000000" />
			<rect x="12" y="36" width="1" height="1" fill="#000000" />
			<rect x="16" y="36" width="2" height="1" fill="#000000" />
			<rect x="20" y="36" width="2" height="1" fill="#000000" />
			<rect x="24" y="36" width="5" height="1" fill="#000000" />
			<rect x="31" y="36" width="1" height="1" fill="#000000" />
			<rect x="33" y="36" width="1" height="1" fill="#000000" />
			<rect x="36" y="36" width="1" height="1" fill="#000000" />
		</g>
	</g>
</svg>
