<?xml version="1.0" encoding="utf-8" standalone="no"?>
<!DOCTYPE svg PUBLIC "-//W3C//DTD SVG 1.1//EN"
  "http://www.w3.org/Graphics/SVG/1.1/DTD/svg11.dtd">
<!-- Created with matplotlib (http://matplotlib.org/) -->
<svg height="345pt" version="1.1" viewBox="0 0 460 345" width="460pt" xmlns="http://www.w3.org/2000/svg" xmlns:xlink="http://www.w3.org/1999/xlink">
 <defs>
  <style type="text/css">
*{stroke-linecap:butt;stroke-linejoin:round;}
  </style>
 </defs>
 <g id="figure_1">
  <g id="patch_1">
   <path d="M 0 345.6 
L 460.8 345.6 
L 460.8 0 
L 0 0 
z
" style="fill:#ffffff;"/>
  </g>
  <g id="axes_1">
   <g id="patch_2">
    <path d="M 42.1 143.52375 
L 447.48 143.52375 
L 447.48 28.32 
L 42.1 28.32 
z
" style="fill:#ffffff;"/>
   </g>
   <g id="matplotlib.axis_1">
    <g id="xtick_1">
     <g id="line2d_1">
      <defs>
       <path d="M 0 0 
L 0 3.5 
" id="ma0d1af27be" style="stroke:#000000;stroke-width:0.8;"/>
      </defs>
      <g>
       <use style="stroke:#000000;stroke-width:0.8;" x="60.526364" xlink:href="#ma0d1af27be" y="143.52375"/>
      </g>
     </g>
    </g>
    <g id="xtick_2">
     <g id="line2d_2">
      <g>
       <use style="stroke:#000000;stroke-width:0.8;" x="119.179301" xlink:href="#ma0d1af27be" y="143.52375"/>
      </g>
     </g>
    </g>
    <g id="xtick_3">
     <g id="line2d_3">
      <g>
       <use style="stroke:#000000;stroke-width:0.8;" x="177.832238" xlink:href="#ma0d1af27be" y="143.52375"/>
      </g>
     </g>
    </g>
    <g id="xtick_4">
     <g id="line2d_4">
      <g>
       <use style="stroke:#000000;stroke-width:0.8;" x="236.485175" xlink:href="#ma0d1af27be" y="143.52375"/>
      </g>
     </g>
    </g>
    <g id="xtick_5">
     <g id="line2d_5">
      <g>
       <use style="stroke:#000000;stroke-width:0.8;" x="295.138112" xlink:href="#ma0d1af27be" y="143.52375"/>
      </g>
     </g>
    </g>
    <g id="xtick_6">
     <g id="line2d_6">
      <g>
       <use style="stroke:#000000;stroke-width:0.8;" x="353.791049" xlink:href="#ma0d1af27be" y="143.52375"/>
      </g>
     </g>
    </g>
    <g id="xtick_7">
     <g id="line2d_7">
      <g>
       <use style="stroke:#000000;stroke-width:0.8;" x="412.443986" xlink:href="#ma0d1af27be" y="143.52375"/>
      </g>
     </g>
    </g>
    <g id="text_1">
     <!-- time (ms) -->
     <defs>
      <path d="M 18.3125 70.21875 
L 18.3125 54.6875 
L 36.8125 54.6875 
L 36.8125 47.703125 
L 18.3125 47.703125 
L 18.3125 18.015625 
Q 18.3125 11.328125 20.140625 9.421875 
Q 21.96875 7.515625 27.59375 7.515625 
L 36.8125 7.515625 
L 36.8125 0 
L 27.59375 0 
Q 17.1875 0 13.234375 3.875 
Q 9.28125 7.765625 9.28125 18.015625 
L 9.28125 47.703125 
L 2.6875 47.703125 
L 2.6875 54.6875 
L 9.28125 54.6875 
L 9.28125 70.21875 
z
" id="DejaVuSans-74"/>
      <path d="M 9.421875 54.6875 
L 18.40625 54.6875 
L 18.40625 0 
L 9.421875 0 
z
M 9.421875 75.984375 
L 18.40625 75.984375 
L 18.40625 64.59375 
L 9.421875 64.59375 
z
" id="DejaVuSans-69"/>
      <path d="M 52 44.1875 
Q 55.375 50.25 60.0625 53.125 
Q 64.75 56 71.09375 56 
Q 79.640625 56 84.28125 50.015625 
Q 88.921875 44.046875 88.921875 33.015625 
L 88.921875 0 
L 79.890625 0 
L 79.890625 32.71875 
Q 79.890625 40.578125 77.09375 44.375 
Q 74.3125 48.1875 68.609375 48.1875 
Q 61.625 48.1875 57.5625 43.546875 
Q 53.515625 38.921875 53.515625 30.90625 
L 53.515625 0 
L 44.484375 0 
L 44.484375 32.71875 
Q 44.484375 40.625 41.703125 44.40625 
Q 38.921875 48.1875 33.109375 48.1875 
Q 26.21875 48.1875 22.15625 43.53125 
Q 18.109375 38.875 18.109375 30.90625 
L 18.109375 0 
L 9.078125 0 
L 9.078125 54.6875 
L 18.109375 54.6875 
L 18.109375 46.1875 
Q 21.1875 51.21875 25.484375 53.609375 
Q 29.78125 56 35.6875 56 
Q 41.65625 56 45.828125 52.96875 
Q 50 49.953125 52 44.1875 
" id="DejaVuSans-6d"/>
      <path d="M 56.203125 29.59375 
L 56.203125 25.203125 
L 14.890625 25.203125 
Q 15.484375 15.921875 20.484375 11.0625 
Q 25.484375 6.203125 34.421875 6.203125 
Q 39.59375 6.203125 44.453125 7.46875 
Q 49.3125 8.734375 54.109375 11.28125 
L 54.109375 2.78125 
Q 49.265625 0.734375 44.1875 -0.34375 
Q 39.109375 -1.421875 33.890625 -1.421875 
Q 20.796875 -1.421875 13.15625 6.1875 
Q 5.515625 13.8125 5.515625 26.8125 
Q 5.515625 40.234375 12.765625 48.109375 
Q 20.015625 56 32.328125 56 
Q 43.359375 56 49.78125 48.890625 
Q 56.203125 41.796875 56.203125 29.59375 
M 47.21875 32.234375 
Q 47.125 39.59375 43.09375 43.984375 
Q 39.0625 48.390625 32.421875 48.390625 
Q 24.90625 48.390625 20.390625 44.140625 
Q 15.875 39.890625 15.1875 32.171875 
z
" id="DejaVuSans-65"/>
      <path id="DejaVuSans-20"/>
      <path d="M 31 75.875 
Q 24.46875 64.65625 21.28125 53.65625 
Q 18.109375 42.671875 18.109375 31.390625 
Q 18.109375 20.125 21.3125 9.0625 
Q 24.515625 -2 31 -13.1875 
L 23.1875 -13.1875 
Q 15.875 -1.703125 12.234375 9.375 
Q 8.59375 20.453125 8.59375 31.390625 
Q 8.59375 42.28125 12.203125 53.3125 
Q 15.828125 64.359375 23.1875 75.875 
z
" id="DejaVuSans-28"/>
      <path d="M 44.28125 53.078125 
L 44.28125 44.578125 
Q 40.484375 46.53125 36.375 47.5 
Q 32.28125 48.484375 27.875 48.484375 
Q 21.1875 48.484375 17.84375 46.4375 
Q 14.5 44.390625 14.5 40.28125 
Q 14.5 37.15625 16.890625 35.375 
Q 19.28125 33.59375 26.515625 31.984375 
L 29.59375 31.296875 
Q 39.15625 29.25 43.1875 25.515625 
Q 47.21875 21.78125 47.21875 15.09375 
Q 47.21875 7.46875 41.1875 3.015625 
Q 35.15625 -1.421875 24.609375 -1.421875 
Q 20.21875 -1.421875 15.453125 -0.5625 
Q 10.6875 0.296875 5.421875 2 
L 5.421875 11.28125 
Q 10.40625 8.6875 15.234375 7.390625 
Q 20.0625 6.109375 24.8125 6.109375 
Q 31.15625 6.109375 34.5625 8.28125 
Q 37.984375 10.453125 37.984375 14.40625 
Q 37.984375 18.0625 35.515625 20.015625 
Q 33.0625 21.96875 24.703125 23.78125 
L 21.578125 24.515625 
Q 13.234375 26.265625 9.515625 29.90625 
Q 5.8125 33.546875 5.8125 39.890625 
Q 5.8125 47.609375 11.28125 51.796875 
Q 16.75 56 26.8125 56 
Q 31.78125 56 36.171875 55.265625 
Q 40.578125 54.546875 44.28125 53.078125 
" id="DejaVuSans-73"/>
      <path d="M 8.015625 75.875 
L 15.828125 75.875 
Q 23.140625 64.359375 26.78125 53.3125 
Q 30.421875 42.28125 30.421875 31.390625 
Q 30.421875 20.453125 26.78125 9.375 
Q 23.140625 -1.703125 15.828125 -13.1875 
L 8.015625 -13.1875 
Q 14.5 -2 17.703125 9.0625 
Q 20.90625 20.125 20.90625 31.390625 
Q 20.90625 42.671875 17.703125 53.65625 
Q 14.5 64.65625 8.015625 75.875 
" id="DejaVuSans-29"/>
     </defs>
     <g transform="translate(220.528281 155.122187)scale(0.1 -0.1)">
      <use xlink:href="#DejaVuSans-74"/>
      <use x="39.208984" xlink:href="#DejaVuSans-69"/>
      <use x="66.992188" xlink:href="#DejaVuSans-6d"/>
      <use x="164.404297" xlink:href="#DejaVuSans-65"/>
      <use x="225.927734" xlink:href="#DejaVuSans-20"/>
      <use x="257.714844" xlink:href="#DejaVuSans-28"/>
      <use x="296.728516" xlink:href="#DejaVuSans-6d"/>
      <use x="394.140625" xlink:href="#DejaVuSans-73"/>
      <use x="446.240234" xlink:href="#DejaVuSans-29"/>
     </g>
    </g>
   </g>
   <g id="matplotlib.axis_2">
    <g id="ytick_1">
     <g id="line2d_8">
      <defs>
       <path d="M 0 0 
L -3.5 0 
" id="m51883a1827" style="stroke:#000000;stroke-width:0.8;"/>
      </defs>
      <g>
       <use style="stroke:#000000;stroke-width:0.8;" x="42.1" xlink:href="#m51883a1827" y="124.323125"/>
      </g>
     </g>
     <g id="text_2">
      <!-- −1 -->
      <defs>
       <path d="M 10.59375 35.5 
L 73.1875 35.5 
L 73.1875 27.203125 
L 10.59375 27.203125 
z
" id="DejaVuSans-2212"/>
       <path d="M 12.40625 8.296875 
L 28.515625 8.296875 
L 28.515625 63.921875 
L 10.984375 60.40625 
L 10.984375 69.390625 
L 28.421875 72.90625 
L 38.28125 72.90625 
L 38.28125 8.296875 
L 54.390625 8.296875 
L 54.390625 0 
L 12.40625 0 
z
" id="DejaVuSans-31"/>
      </defs>
      <g transform="translate(20.357813 128.122344)scale(0.1 -0.1)">
       <use xlink:href="#DejaVuSans-2212"/>
       <use x="83.789062" xlink:href="#DejaVuSans-31"/>
      </g>
     </g>
    </g>
    <g id="ytick_2">
     <g id="line2d_9">
      <g>
       <use style="stroke:#000000;stroke-width:0.8;" x="42.1" xlink:href="#m51883a1827" y="85.921875"/>
      </g>
     </g>
     <g id="text_3">
      <!-- 0 -->
      <defs>
       <path d="M 31.78125 66.40625 
Q 24.171875 66.40625 20.328125 58.90625 
Q 16.5 51.421875 16.5 36.375 
Q 16.5 21.390625 20.328125 13.890625 
Q 24.171875 6.390625 31.78125 6.390625 
Q 39.453125 6.390625 43.28125 13.890625 
Q 47.125 21.390625 47.125 36.375 
Q 47.125 51.421875 43.28125 58.90625 
Q 39.453125 66.40625 31.78125 66.40625 
M 31.78125 74.21875 
Q 44.046875 74.21875 50.515625 64.515625 
Q 56.984375 54.828125 56.984375 36.375 
Q 56.984375 17.96875 50.515625 8.265625 
Q 44.046875 -1.421875 31.78125 -1.421875 
Q 19.53125 -1.421875 13.0625 8.265625 
Q 6.59375 17.96875 6.59375 36.375 
Q 6.59375 54.828125 13.0625 64.515625 
Q 19.53125 74.21875 31.78125 74.21875 
" id="DejaVuSans-30"/>
      </defs>
      <g transform="translate(28.7375 89.721094)scale(0.1 -0.1)">
       <use xlink:href="#DejaVuSans-30"/>
      </g>
     </g>
    </g>
    <g id="ytick_3">
     <g id="line2d_10">
      <g>
       <use style="stroke:#000000;stroke-width:0.8;" x="42.1" xlink:href="#m51883a1827" y="47.520625"/>
      </g>
     </g>
     <g id="text_4">
      <!-- 1 -->
      <g transform="translate(28.7375 51.319844)scale(0.1 -0.1)">
       <use xlink:href="#DejaVuSans-31"/>
      </g>
     </g>
    </g>
   </g>
   <g id="line2d_11">
    <path clip-path="url(#pcbd3b16a54)" d="M 60.526364 55.363131 
L 62.554278 55.478432 
L 64.582192 55.823463 
L 66.610106 56.395622 
L 68.638019 57.190591 
L 70.850289 58.304851 
L 73.062559 59.667096 
L 75.459185 61.408469 
L 78.040166 63.572074 
L 80.805503 66.192497 
L 83.755196 69.29162 
L 87.257957 73.312141 
L 91.49814 78.549452 
L 98.13495 87.166154 
L 104.956115 95.91135 
L 109.011943 100.754732 
L 112.330347 104.39129 
L 115.28004 107.312936 
L 118.045378 109.742838 
L 120.626359 111.70995 
L 123.022985 113.254865 
L 125.235254 114.425632 
L 127.447524 115.340451 
L 129.475438 115.947132 
L 131.503352 116.327238 
L 133.531266 116.477901 
L 135.55918 116.397982 
L 137.587094 116.088087 
L 139.615008 115.550552 
L 141.642922 114.789435 
L 143.855192 113.710923 
L 146.067461 112.382879 
L 148.464087 110.67646 
L 151.045068 108.547646 
L 153.810406 105.960746 
L 156.760099 102.892587 
L 160.078503 99.119884 
L 164.134331 94.155139 
L 170.033717 86.533216 
L 178.145373 76.089602 
L 182.201201 71.234532 
L 185.519606 67.58513 
L 188.469299 64.64981 
L 191.234636 62.205359 
L 193.815617 60.223343 
L 196.212243 58.663604 
L 198.424513 57.478451 
L 200.636782 56.548705 
L 202.664696 55.927979 
L 204.69261 55.533591 
L 206.720524 55.368518 
L 208.748438 55.434005 
L 210.776352 55.729559 
L 212.804266 56.252948 
L 214.83218 57.000224 
L 217.04445 58.064106 
L 219.25672 59.378135 
L 221.653345 61.070215 
L 224.234327 63.184735 
L 226.999664 65.757835 
L 229.949357 68.813212 
L 233.267762 72.574176 
L 237.32359 77.528693 
L 243.03862 84.903094 
L 251.518987 95.825336 
L 255.574815 100.675133 
L 258.89322 104.318736 
L 261.842913 107.247878 
L 264.60825 109.685752 
L 267.189231 111.66103 
L 269.585857 113.214065 
L 271.798127 114.392711 
L 274.010397 115.315704 
L 276.038311 115.930075 
L 278.066224 116.318001 
L 280.094138 116.476552 
L 282.122052 116.404533 
L 284.149966 116.102487 
L 286.17788 115.572693 
L 288.205794 114.819149 
L 290.418064 113.748642 
L 292.630334 112.428265 
L 295.026959 110.729688 
L 297.607941 108.608691 
L 300.373278 106.029336 
L 303.322971 102.968162 
L 306.641376 99.201871 
L 310.697204 94.242706 
L 316.59659 86.624163 
L 324.708245 76.175776 
L 328.764073 71.314369 
L 332.082478 67.657982 
L 335.032171 64.715213 
L 337.797508 62.26283 
L 340.37849 60.27268 
L 342.775115 58.704846 
L 344.987385 57.511833 
L 347.199655 56.573928 
L 349.227569 55.945521 
L 351.255483 55.54332 
L 353.283397 55.370361 
L 355.311311 55.427948 
L 357.339225 55.715647 
L 359.367139 56.231288 
L 361.395053 56.970978 
L 363.607322 58.026837 
L 365.819592 59.33318 
L 368.216218 61.017389 
L 370.797199 63.124058 
L 373.562536 65.689571 
L 376.512229 68.737914 
L 379.830634 72.492404 
L 383.886462 77.441262 
L 389.601492 84.812182 
L 398.08186 95.739234 
L 402.137687 100.595404 
L 405.456092 104.246019 
L 408.405785 107.18263 
L 411.171122 109.628455 
L 413.752104 111.611881 
L 416.148729 113.173023 
L 418.360999 114.359537 
L 420.573269 115.290696 
L 422.601183 115.912753 
L 424.629097 116.308494 
L 426.657011 116.474933 
L 428.684925 116.410813 
L 429.053636 116.374394 
L 429.053636 116.374394 
" style="fill:none;stroke:#1f77b4;stroke-linecap:square;stroke-width:1.5;"/>
   </g>
   <g id="line2d_12">
    <path clip-path="url(#pcbd3b16a54)" d="M 60.526364 27.032029 
L 429.053636 214.422478 
L 429.053636 214.422478 
" style="fill:none;stroke:#ff7f0e;stroke-linecap:square;stroke-width:1.5;"/>
   </g>
   <g id="line2d_13">
    <defs>
     <path d="M 0 3 
C 0.795609 3 1.55874 2.683901 2.12132 2.12132 
C 2.683901 1.55874 3 0.795609 3 0 
C 3 -0.795609 2.683901 -1.55874 2.12132 -2.12132 
C 1.55874 -2.683901 0.795609 -3 0 -3 
C -0.795609 -3 -1.55874 -2.683901 -2.12132 -2.12132 
C -2.683901 -1.55874 -3 -0.795609 -3 0 
C -3 0.795609 -2.683901 1.55874 -2.12132 2.12132 
C -1.55874 2.683901 -0.795609 3 0 3 
z
" id="m0f2c27f939" style="stroke:#ff7f0e;"/>
    </defs>
    <g clip-path="url(#pcbd3b16a54)">
     <use style="fill:#ff7f0e;stroke:#ff7f0e;" x="104.516066" xlink:href="#m0f2c27f939" y="49.400116"/>
    </g>
   </g>
   <g id="line2d_14">
    <path clip-path="url(#pcbd3b16a54)" d="M 104.516066 143.52375 
L 104.516066 28.32 
" style="fill:none;stroke:#ff7f0e;stroke-linecap:square;stroke-width:1.5;"/>
   </g>
   <g id="line2d_15">
    <path clip-path="url(#pcbd3b16a54)" d="M 60.526364 124.323125 
L 429.053636 124.323125 
L 429.053636 124.323125 
" style="fill:none;stroke:#2ca02c;stroke-linecap:square;stroke-width:1.5;"/>
   </g>
   <g id="line2d_16">
    <defs>
     <path d="M 0 3 
C 0.795609 3 1.55874 2.683901 2.12132 2.12132 
C 2.683901 1.55874 3 0.795609 3 0 
C 3 -0.795609 2.683901 -1.55874 2.12132 -2.12132 
C 1.55874 -2.683901 0.795609 -3 0 -3 
C -0.795609 -3 -1.55874 -2.683901 -2.12132 -2.12132 
C -2.683901 -1.55874 -3 -0.795609 -3 0 
C -3 0.795609 -2.683901 1.55874 -2.12132 2.12132 
C -1.55874 2.683901 -0.795609 3 0 3 
z
" id="m6cc2325b42" style="stroke:#2ca02c;"/>
    </defs>
    <g clip-path="url(#pcbd3b16a54)">
     <use style="fill:#2ca02c;stroke:#2ca02c;" x="170.500621" xlink:href="#m6cc2325b42" y="124.323125"/>
    </g>
   </g>
   <g id="line2d_17">
    <path clip-path="url(#pcbd3b16a54)" d="M 170.500621 143.52375 
L 170.500621 28.32 
" style="fill:none;stroke:#2ca02c;stroke-linecap:square;stroke-width:1.5;"/>
   </g>
   <g id="line2d_18">
    <path clip-path="url(#pcbd3b16a54)" d="M 227.650593 -1 
L 429.053636 330.406854 
L 429.053636 330.406854 
" style="fill:none;stroke:#d62728;stroke-linecap:square;stroke-width:1.5;"/>
   </g>
   <g id="line2d_19">
    <defs>
     <path d="M 0 3 
C 0.795609 3 1.55874 2.683901 2.12132 2.12132 
C 2.683901 1.55874 3 0.795609 3 0 
C 3 -0.795609 2.683901 -1.55874 2.12132 -2.12132 
C 1.55874 -2.683901 0.795609 -3 0 -3 
C -0.795609 -3 -1.55874 -2.683901 -2.12132 -2.12132 
C -2.683901 -1.55874 -3 -0.795609 -3 0 
C -3 0.795609 -2.683901 1.55874 -2.12132 2.12132 
C -1.55874 2.683901 -0.795609 3 0 3 
z
" id="m69bc44fe8f" style="stroke:#d62728;"/>
    </defs>
    <g clip-path="url(#pcbd3b16a54)">
     <use style="fill:#d62728;stroke:#d62728;" x="280.474878" xlink:href="#m69bc44fe8f" y="85.921875"/>
    </g>
   </g>
   <g id="line2d_20">
    <path clip-path="url(#pcbd3b16a54)" d="M 280.474878 143.52375 
L 280.474878 28.32 
" style="fill:none;stroke:#d62728;stroke-linecap:square;stroke-width:1.5;"/>
   </g>
   <g id="line2d_21">
    <path clip-path="url(#pcbd3b16a54)" d="M 60.526364 230.524619 
L 429.053636 79.717024 
L 429.053636 79.717024 
" style="fill:none;stroke:#9467bd;stroke-linecap:square;stroke-width:1.5;"/>
   </g>
   <g id="line2d_22">
    <defs>
     <path d="M 0 3 
C 0.795609 3 1.55874 2.683901 2.12132 2.12132 
C 2.683901 1.55874 3 0.795609 3 0 
C 3 -0.795609 2.683901 -1.55874 2.12132 -2.12132 
C 1.55874 -2.683901 0.795609 -3 0 -3 
C -0.795609 -3 -1.55874 -2.683901 -2.12132 -2.12132 
C -2.683901 -1.55874 -3 -0.795609 -3 0 
C -3 0.795609 -2.683901 1.55874 -2.12132 2.12132 
C -1.55874 2.683901 -0.795609 3 0 3 
z
" id="md5c3fdcee0" style="stroke:#9467bd;"/>
    </defs>
    <g clip-path="url(#pcbd3b16a54)">
     <use style="fill:#9467bd;stroke:#9467bd;" x="322.998257" xlink:href="#md5c3fdcee0" y="123.116679"/>
    </g>
   </g>
   <g id="line2d_23">
    <path clip-path="url(#pcbd3b16a54)" d="M 322.998257 143.52375 
L 322.998257 28.32 
" style="fill:none;stroke:#9467bd;stroke-linecap:square;stroke-width:1.5;"/>
   </g>
   <g id="patch_3">
    <path d="M 42.1 143.52375 
L 42.1 28.32 
" style="fill:none;stroke:#000000;stroke-linecap:square;stroke-linejoin:miter;stroke-width:0.8;"/>
   </g>
   <g id="patch_4">
    <path d="M 447.48 143.52375 
L 447.48 28.32 
" style="fill:none;stroke:#000000;stroke-linecap:square;stroke-linejoin:miter;stroke-width:0.8;"/>
   </g>
   <g id="patch_5">
    <path d="M 42.1 143.52375 
L 447.48 143.52375 
" style="fill:none;stroke:#000000;stroke-linecap:square;stroke-linejoin:miter;stroke-width:0.8;"/>
   </g>
   <g id="patch_6">
    <path d="M 42.1 28.32 
L 447.48 28.32 
" style="fill:none;stroke:#000000;stroke-linecap:square;stroke-linejoin:miter;stroke-width:0.8;"/>
   </g>
   <g id="text_5">
    <!-- $ V \left( t \right)$ -->
    <defs>
     <path d="M 20.609375 0 
L 7.8125 72.90625 
L 17.484375 72.90625 
L 28.078125 10.203125 
L 63.484375 72.90625 
L 74.21875 72.90625 
L 32.078125 0 
z
" id="DejaVuSans-Oblique-56"/>
     <path d="M 42.28125 54.6875 
L 40.921875 47.703125 
L 23 47.703125 
L 17.1875 18.015625 
Q 16.890625 16.359375 16.75 15.234375 
Q 16.609375 14.109375 16.609375 13.484375 
Q 16.609375 10.359375 18.484375 8.9375 
Q 20.359375 7.515625 24.515625 7.515625 
L 33.59375 7.515625 
L 32.078125 0 
L 23.484375 0 
Q 15.484375 0 11.546875 3.125 
Q 7.625 6.25 7.625 12.59375 
Q 7.625 13.71875 7.765625 15.0625 
Q 7.90625 16.40625 8.203125 18.015625 
L 14.015625 47.703125 
L 6.390625 47.703125 
L 7.8125 54.6875 
L 15.28125 54.6875 
L 18.3125 70.21875 
L 27.296875 70.21875 
L 24.3125 54.6875 
z
" id="DejaVuSans-Oblique-74"/>
    </defs>
    <g transform="translate(233.63 22.32)scale(0.12 -0.12)">
     <use transform="translate(0 0.125)" xlink:href="#DejaVuSans-Oblique-56"/>
     <use transform="translate(68.408203 0.125)" xlink:href="#DejaVuSans-28"/>
     <use transform="translate(107.421875 0.125)" xlink:href="#DejaVuSans-Oblique-74"/>
     <use transform="translate(146.630859 0.125)" xlink:href="#DejaVuSans-29"/>
    </g>
   </g>
  </g>
  <g id="axes_2">
   <g id="patch_7">
    <path d="M 42.1 303.64 
L 447.48 303.64 
L 447.48 188.43625 
L 42.1 188.43625 
z
" style="fill:#ffffff;"/>
   </g>
   <g id="matplotlib.axis_3">
    <g id="xtick_8">
     <g id="line2d_24">
      <g>
       <use style="stroke:#000000;stroke-width:0.8;" x="60.526364" xlink:href="#ma0d1af27be" y="303.64"/>
      </g>
     </g>
     <g id="text_6">
      <!-- 0 -->
      <g transform="translate(57.345114 318.238438)scale(0.1 -0.1)">
       <use xlink:href="#DejaVuSans-30"/>
      </g>
     </g>
    </g>
    <g id="xtick_9">
     <g id="line2d_25">
      <g>
       <use style="stroke:#000000;stroke-width:0.8;" x="119.179301" xlink:href="#ma0d1af27be" y="303.64"/>
      </g>
     </g>
     <g id="text_7">
      <!-- 2 -->
      <defs>
       <path d="M 19.1875 8.296875 
L 53.609375 8.296875 
L 53.609375 0 
L 7.328125 0 
L 7.328125 8.296875 
Q 12.9375 14.109375 22.625 23.890625 
Q 32.328125 33.6875 34.8125 36.53125 
Q 39.546875 41.84375 41.421875 45.53125 
Q 43.3125 49.21875 43.3125 52.78125 
Q 43.3125 58.59375 39.234375 62.25 
Q 35.15625 65.921875 28.609375 65.921875 
Q 23.96875 65.921875 18.8125 64.3125 
Q 13.671875 62.703125 7.8125 59.421875 
L 7.8125 69.390625 
Q 13.765625 71.78125 18.9375 73 
Q 24.125 74.21875 28.421875 74.21875 
Q 39.75 74.21875 46.484375 68.546875 
Q 53.21875 62.890625 53.21875 53.421875 
Q 53.21875 48.921875 51.53125 44.890625 
Q 49.859375 40.875 45.40625 35.40625 
Q 44.1875 33.984375 37.640625 27.21875 
Q 31.109375 20.453125 19.1875 8.296875 
" id="DejaVuSans-32"/>
      </defs>
      <g transform="translate(115.998051 318.238438)scale(0.1 -0.1)">
       <use xlink:href="#DejaVuSans-32"/>
      </g>
     </g>
    </g>
    <g id="xtick_10">
     <g id="line2d_26">
      <g>
       <use style="stroke:#000000;stroke-width:0.8;" x="177.832238" xlink:href="#ma0d1af27be" y="303.64"/>
      </g>
     </g>
     <g id="text_8">
      <!-- 4 -->
      <defs>
       <path d="M 37.796875 64.3125 
L 12.890625 25.390625 
L 37.796875 25.390625 
z
M 35.203125 72.90625 
L 47.609375 72.90625 
L 47.609375 25.390625 
L 58.015625 25.390625 
L 58.015625 17.1875 
L 47.609375 17.1875 
L 47.609375 0 
L 37.796875 0 
L 37.796875 17.1875 
L 4.890625 17.1875 
L 4.890625 26.703125 
z
" id="DejaVuSans-34"/>
      </defs>
      <g transform="translate(174.650988 318.238438)scale(0.1 -0.1)">
       <use xlink:href="#DejaVuSans-34"/>
      </g>
     </g>
    </g>
    <g id="xtick_11">
     <g id="line2d_27">
      <g>
       <use style="stroke:#000000;stroke-width:0.8;" x="236.485175" xlink:href="#ma0d1af27be" y="303.64"/>
      </g>
     </g>
     <g id="text_9">
      <!-- 6 -->
      <defs>
       <path d="M 33.015625 40.375 
Q 26.375 40.375 22.484375 35.828125 
Q 18.609375 31.296875 18.609375 23.390625 
Q 18.609375 15.53125 22.484375 10.953125 
Q 26.375 6.390625 33.015625 6.390625 
Q 39.65625 6.390625 43.53125 10.953125 
Q 47.40625 15.53125 47.40625 23.390625 
Q 47.40625 31.296875 43.53125 35.828125 
Q 39.65625 40.375 33.015625 40.375 
M 52.59375 71.296875 
L 52.59375 62.3125 
Q 48.875 64.0625 45.09375 64.984375 
Q 41.3125 65.921875 37.59375 65.921875 
Q 27.828125 65.921875 22.671875 59.328125 
Q 17.53125 52.734375 16.796875 39.40625 
Q 19.671875 43.65625 24.015625 45.921875 
Q 28.375 48.1875 33.59375 48.1875 
Q 44.578125 48.1875 50.953125 41.515625 
Q 57.328125 34.859375 57.328125 23.390625 
Q 57.328125 12.15625 50.6875 5.359375 
Q 44.046875 -1.421875 33.015625 -1.421875 
Q 20.359375 -1.421875 13.671875 8.265625 
Q 6.984375 17.96875 6.984375 36.375 
Q 6.984375 53.65625 15.1875 63.9375 
Q 23.390625 74.21875 37.203125 74.21875 
Q 40.921875 74.21875 44.703125 73.484375 
Q 48.484375 72.75 52.59375 71.296875 
" id="DejaVuSans-36"/>
      </defs>
      <g transform="translate(233.303925 318.238438)scale(0.1 -0.1)">
       <use xlink:href="#DejaVuSans-36"/>
      </g>
     </g>
    </g>
    <g id="xtick_12">
     <g id="line2d_28">
      <g>
       <use style="stroke:#000000;stroke-width:0.8;" x="295.138112" xlink:href="#ma0d1af27be" y="303.64"/>
      </g>
     </g>
     <g id="text_10">
      <!-- 8 -->
      <defs>
       <path d="M 31.78125 34.625 
Q 24.75 34.625 20.71875 30.859375 
Q 16.703125 27.09375 16.703125 20.515625 
Q 16.703125 13.921875 20.71875 10.15625 
Q 24.75 6.390625 31.78125 6.390625 
Q 38.8125 6.390625 42.859375 10.171875 
Q 46.921875 13.96875 46.921875 20.515625 
Q 46.921875 27.09375 42.890625 30.859375 
Q 38.875 34.625 31.78125 34.625 
M 21.921875 38.8125 
Q 15.578125 40.375 12.03125 44.71875 
Q 8.5 49.078125 8.5 55.328125 
Q 8.5 64.0625 14.71875 69.140625 
Q 20.953125 74.21875 31.78125 74.21875 
Q 42.671875 74.21875 48.875 69.140625 
Q 55.078125 64.0625 55.078125 55.328125 
Q 55.078125 49.078125 51.53125 44.71875 
Q 48 40.375 41.703125 38.8125 
Q 48.828125 37.15625 52.796875 32.3125 
Q 56.78125 27.484375 56.78125 20.515625 
Q 56.78125 9.90625 50.3125 4.234375 
Q 43.84375 -1.421875 31.78125 -1.421875 
Q 19.734375 -1.421875 13.25 4.234375 
Q 6.78125 9.90625 6.78125 20.515625 
Q 6.78125 27.484375 10.78125 32.3125 
Q 14.796875 37.15625 21.921875 38.8125 
M 18.3125 54.390625 
Q 18.3125 48.734375 21.84375 45.5625 
Q 25.390625 42.390625 31.78125 42.390625 
Q 38.140625 42.390625 41.71875 45.5625 
Q 45.3125 48.734375 45.3125 54.390625 
Q 45.3125 60.0625 41.71875 63.234375 
Q 38.140625 66.40625 31.78125 66.40625 
Q 25.390625 66.40625 21.84375 63.234375 
Q 18.3125 60.0625 18.3125 54.390625 
" id="DejaVuSans-38"/>
      </defs>
      <g transform="translate(291.956862 318.238438)scale(0.1 -0.1)">
       <use xlink:href="#DejaVuSans-38"/>
      </g>
     </g>
    </g>
    <g id="xtick_13">
     <g id="line2d_29">
      <g>
       <use style="stroke:#000000;stroke-width:0.8;" x="353.791049" xlink:href="#ma0d1af27be" y="303.64"/>
      </g>
     </g>
     <g id="text_11">
      <!-- 10 -->
      <g transform="translate(347.428549 318.238438)scale(0.1 -0.1)">
       <use xlink:href="#DejaVuSans-31"/>
       <use x="63.623047" xlink:href="#DejaVuSans-30"/>
      </g>
     </g>
    </g>
    <g id="xtick_14">
     <g id="line2d_30">
      <g>
       <use style="stroke:#000000;stroke-width:0.8;" x="412.443986" xlink:href="#ma0d1af27be" y="303.64"/>
      </g>
     </g>
     <g id="text_12">
      <!-- 12 -->
      <g transform="translate(406.081486 318.238438)scale(0.1 -0.1)">
       <use xlink:href="#DejaVuSans-31"/>
       <use x="63.623047" xlink:href="#DejaVuSans-32"/>
      </g>
     </g>
    </g>
    <g id="text_13">
     <!-- time (ms) -->
     <g transform="translate(220.528281 331.916562)scale(0.1 -0.1)">
      <use xlink:href="#DejaVuSans-74"/>
      <use x="39.208984" xlink:href="#DejaVuSans-69"/>
      <use x="66.992188" xlink:href="#DejaVuSans-6d"/>
      <use x="164.404297" xlink:href="#DejaVuSans-65"/>
      <use x="225.927734" xlink:href="#DejaVuSans-20"/>
      <use x="257.714844" xlink:href="#DejaVuSans-28"/>
      <use x="296.728516" xlink:href="#DejaVuSans-6d"/>
      <use x="394.140625" xlink:href="#DejaVuSans-73"/>
      <use x="446.240234" xlink:href="#DejaVuSans-29"/>
     </g>
    </g>
   </g>
   <g id="matplotlib.axis_4">
    <g id="ytick_4">
     <g id="line2d_31">
      <g>
       <use style="stroke:#000000;stroke-width:0.8;" x="42.1" xlink:href="#m51883a1827" y="284.439375"/>
      </g>
     </g>
     <g id="text_14">
      <!-- −1 -->
      <g transform="translate(20.357813 288.238594)scale(0.1 -0.1)">
       <use xlink:href="#DejaVuSans-2212"/>
       <use x="83.789062" xlink:href="#DejaVuSans-31"/>
      </g>
     </g>
    </g>
    <g id="ytick_5">
     <g id="line2d_32">
      <g>
       <use style="stroke:#000000;stroke-width:0.8;" x="42.1" xlink:href="#m51883a1827" y="246.038125"/>
      </g>
     </g>
     <g id="text_15">
      <!-- 0 -->
      <g transform="translate(28.7375 249.837344)scale(0.1 -0.1)">
       <use xlink:href="#DejaVuSans-30"/>
      </g>
     </g>
    </g>
    <g id="ytick_6">
     <g id="line2d_33">
      <g>
       <use style="stroke:#000000;stroke-width:0.8;" x="42.1" xlink:href="#m51883a1827" y="207.636875"/>
      </g>
     </g>
     <g id="text_16">
      <!-- 1 -->
      <g transform="translate(28.7375 211.436094)scale(0.1 -0.1)">
       <use xlink:href="#DejaVuSans-31"/>
      </g>
     </g>
    </g>
   </g>
   <g id="line2d_34">
    <g clip-path="url(#pf3650cb6fe)">
     <use style="fill:#ff7f0e;stroke:#ff7f0e;" x="104.516066" xlink:href="#m0f2c27f939" y="260.950183"/>
    </g>
   </g>
   <g id="line2d_35">
    <path clip-path="url(#pf3650cb6fe)" d="M 104.516066 303.64 
L 104.516066 188.43625 
" style="fill:none;stroke:#ff7f0e;stroke-dasharray:5.6,2.4;stroke-dashoffset:0;stroke-width:1.5;"/>
   </g>
   <g id="line2d_36">
    <g clip-path="url(#pf3650cb6fe)">
     <use style="fill:#2ca02c;stroke:#2ca02c;" x="170.500621" xlink:href="#m6cc2325b42" y="246.038125"/>
    </g>
   </g>
   <g id="line2d_37">
    <path clip-path="url(#pf3650cb6fe)" d="M 170.500621 303.64 
L 170.500621 188.43625 
" style="fill:none;stroke:#2ca02c;stroke-dasharray:5.6,2.4;stroke-dashoffset:0;stroke-width:1.5;"/>
   </g>
   <g id="line2d_38">
    <g clip-path="url(#pf3650cb6fe)">
     <use style="fill:#d62728;stroke:#d62728;" x="280.474878" xlink:href="#m69bc44fe8f" y="294.294559"/>
    </g>
   </g>
   <g id="line2d_39">
    <path clip-path="url(#pf3650cb6fe)" d="M 280.474878 303.64 
L 280.474878 188.43625 
" style="fill:none;stroke:#d62728;stroke-dasharray:5.6,2.4;stroke-dashoffset:0;stroke-width:1.5;"/>
   </g>
   <g id="line2d_40">
    <g clip-path="url(#pf3650cb6fe)">
     <use style="fill:#9467bd;stroke:#9467bd;" x="322.998257" xlink:href="#md5c3fdcee0" y="234.037238"/>
    </g>
   </g>
   <g id="line2d_41">
    <path clip-path="url(#pf3650cb6fe)" d="M 322.998257 303.64 
L 322.998257 188.43625 
" style="fill:none;stroke:#9467bd;stroke-dasharray:5.6,2.4;stroke-dashoffset:0;stroke-width:1.5;"/>
   </g>
   <g id="line2d_42">
    <path clip-path="url(#pf3650cb6fe)" d="M 60.526364 197.781691 
L 62.185566 197.903602 
L 63.844768 198.268717 
L 65.503971 198.875193 
L 67.163173 199.719965 
L 69.006731 200.932852 
L 70.850289 202.427068 
L 72.878203 204.384468 
L 74.906117 206.656192 
L 77.118387 209.472719 
L 79.515013 212.893613 
L 82.095994 216.967111 
L 85.045687 222.054386 
L 88.364092 228.230656 
L 92.604275 236.627994 
L 107.905808 267.435938 
L 111.224213 273.34956 
L 114.173906 278.146783 
L 116.754887 281.926555 
L 119.151513 285.044598 
L 121.363782 287.558665 
L 123.391696 289.536194 
L 125.235254 291.049454 
L 127.078813 292.281971 
L 128.738015 293.14481 
L 130.397217 293.769637 
L 132.05642 294.153295 
L 133.715622 294.293845 
L 135.374824 294.190579 
L 137.034027 293.844016 
L 138.693229 293.255909 
L 140.352431 292.429229 
L 142.011634 291.368153 
L 143.855192 289.92083 
L 145.69875 288.199803 
L 147.726664 286.003406 
L 149.938934 283.264015 
L 152.335559 279.919972 
L 154.916541 275.920526 
L 157.866234 270.905696 
L 161.184638 264.794021 
L 165.240466 256.823128 
L 171.877275 243.19315 
L 178.145373 230.511622 
L 182.016845 223.179814 
L 185.150894 217.695391 
L 187.916231 213.277037 
L 190.497213 209.566623 
L 192.893838 206.519382 
L 195.106108 204.07548 
L 197.134022 202.165772 
L 198.97758 200.716632 
L 200.821138 199.550171 
L 202.480341 198.748095 
L 204.139543 198.184958 
L 205.798745 197.863605 
L 207.457948 197.785658 
L 209.11715 197.951513 
L 210.776352 198.36033 
L 212.435555 199.010045 
L 214.094757 199.897374 
L 215.938315 201.156487 
L 217.781873 202.695534 
L 219.809787 204.700303 
L 221.837701 207.017014 
L 224.049971 209.879501 
L 226.446596 213.346049 
L 229.027578 217.463371 
L 231.977271 222.593275 
L 235.480031 229.163812 
L 239.904571 237.986331 
L 253.546901 265.580023 
L 257.049662 271.957964 
L 259.999355 276.882305 
L 262.580336 280.789929 
L 264.976962 284.039165 
L 267.189231 286.683769 
L 269.217145 288.787889 
L 271.245059 290.569412 
L 273.088617 291.897679 
L 274.932176 292.939912 
L 276.591378 293.627952 
L 278.25058 294.07554 
L 279.909783 294.280413 
L 281.568985 294.241536 
L 283.228187 293.959106 
L 284.88739 293.43455 
L 286.546592 292.670518 
L 288.205794 291.670871 
L 290.049352 290.289996 
L 291.892911 288.633114 
L 293.920825 286.50414 
L 296.133094 283.833975 
L 298.52972 280.559133 
L 301.110701 276.62666 
L 303.876038 271.999908 
L 307.010087 266.319805 
L 310.881559 258.810645 
L 316.412234 247.528202 
L 324.52389 231.009479 
L 328.395362 223.643397 
L 331.529411 218.12185 
L 334.294748 213.664336 
L 336.875729 209.91246 
L 339.272355 206.822924 
L 341.484625 204.337131 
L 343.512539 202.386949 
L 345.356097 200.899558 
L 347.199655 199.693705 
L 348.858857 198.855404 
L 350.518059 198.255499 
L 352.177262 197.897022 
L 353.836464 197.781782 
L 355.495666 197.910364 
L 357.154869 198.282116 
L 358.814071 198.89516 
L 360.473273 199.7464 
L 362.316832 200.966316 
L 364.16039 202.467352 
L 366.188304 204.431961 
L 368.216218 206.710538 
L 370.428487 209.53407 
L 372.825113 212.961929 
L 375.406094 217.042122 
L 378.355787 222.135919 
L 381.674192 228.31797 
L 385.914376 236.720117 
L 401.031553 267.178049 
L 404.349957 273.112219 
L 407.29965 277.931744 
L 409.880632 281.733857 
L 412.277257 284.874761 
L 414.489527 287.411523 
L 416.517441 289.411023 
L 418.360999 290.945081 
L 420.204557 292.199046 
L 421.86376 293.081635 
L 423.522962 293.72653 
L 425.182164 294.130475 
L 426.841367 294.291428 
L 428.500569 294.208575 
L 429.053636 294.126816 
L 429.053636 294.126816 
" style="fill:none;stroke:#1f77b4;stroke-linecap:square;stroke-width:1.5;"/>
   </g>
   <g id="patch_8">
    <path d="M 42.1 303.64 
L 42.1 188.43625 
" style="fill:none;stroke:#000000;stroke-linecap:square;stroke-linejoin:miter;stroke-width:0.8;"/>
   </g>
   <g id="patch_9">
    <path d="M 447.48 303.64 
L 447.48 188.43625 
" style="fill:none;stroke:#000000;stroke-linecap:square;stroke-linejoin:miter;stroke-width:0.8;"/>
   </g>
   <g id="patch_10">
    <path d="M 42.1 303.64 
L 447.48 303.64 
" style="fill:none;stroke:#000000;stroke-linecap:square;stroke-linejoin:miter;stroke-width:0.8;"/>
   </g>
   <g id="patch_11">
    <path d="M 42.1 188.43625 
L 447.48 188.43625 
" style="fill:none;stroke:#000000;stroke-linecap:square;stroke-linejoin:miter;stroke-width:0.8;"/>
   </g>
   <g id="text_17">
    <!-- $ \frac{dV}{dx} $ -->
    <defs>
     <path d="M 41.796875 8.203125 
Q 38.1875 3.46875 33.25 1.015625 
Q 28.328125 -1.421875 22.3125 -1.421875 
Q 14.109375 -1.421875 9.34375 4.171875 
Q 4.59375 9.765625 4.59375 19.484375 
Q 4.59375 27.59375 7.46875 34.9375 
Q 10.359375 42.28125 15.828125 48.09375 
Q 19.4375 51.953125 23.96875 53.96875 
Q 28.515625 56 33.5 56 
Q 38.765625 56 42.796875 53.453125 
Q 46.828125 50.921875 49.03125 46.1875 
L 54.890625 75.984375 
L 63.921875 75.984375 
L 49.125 0 
L 40.09375 0 
z
M 13.921875 21.09375 
Q 13.921875 14.015625 17.109375 10.0625 
Q 20.3125 6.109375 25.984375 6.109375 
Q 30.171875 6.109375 33.765625 8.125 
Q 37.359375 10.15625 40.09375 14.109375 
Q 42.96875 18.21875 44.625 23.578125 
Q 46.296875 28.953125 46.296875 34.1875 
Q 46.296875 40.96875 43.09375 44.765625 
Q 39.890625 48.578125 34.28125 48.578125 
Q 30.03125 48.578125 26.359375 46.578125 
Q 22.703125 44.578125 20.125 40.828125 
Q 17.28125 36.765625 15.59375 31.390625 
Q 13.921875 26.03125 13.921875 21.09375 
" id="DejaVuSans-Oblique-64"/>
     <path d="M 60.015625 54.6875 
L 34.90625 27.875 
L 50.296875 0 
L 39.984375 0 
L 28.421875 21.6875 
L 8.296875 0 
L -2.59375 0 
L 24.3125 28.8125 
L 10.015625 54.6875 
L 20.3125 54.6875 
L 30.8125 34.90625 
L 49.125 54.6875 
z
" id="DejaVuSans-Oblique-78"/>
    </defs>
    <g transform="translate(238.49 182.43625)scale(0.12 -0.12)">
     <use transform="translate(0 44.810938)scale(0.7)" xlink:href="#DejaVuSans-Oblique-64"/>
     <use transform="translate(44.433594 44.810938)scale(0.7)" xlink:href="#DejaVuSans-Oblique-56"/>
     <use transform="translate(3 -40.623437)scale(0.7)" xlink:href="#DejaVuSans-Oblique-64"/>
     <use transform="translate(47.433594 -40.623437)scale(0.7)" xlink:href="#DejaVuSans-Oblique-78"/>
     <path d="M 0 18.815625 
L 0 25.065625 
L 92.319336 25.065625 
L 92.319336 18.815625 
L 0 18.815625 
z
"/>
    </g>
   </g>
  </g>
 </g>
 <defs>
  <clipPath id="pcbd3b16a54">
   <rect height="115.20375" width="405.38" x="42.1" y="28.32"/>
  </clipPath>
  <clipPath id="pf3650cb6fe">
   <rect height="115.20375" width="405.38" x="42.1" y="188.43625"/>
  </clipPath>
 </defs>
</svg>
