<?xml version="1.0" encoding="utf-8" standalone="no"?>
<!DOCTYPE svg PUBLIC "-//W3C//DTD SVG 1.1//EN"
  "http://www.w3.org/Graphics/SVG/1.1/DTD/svg11.dtd">
<!-- Created with matplotlib (http://matplotlib.org/) -->
<svg height="345pt" version="1.1" viewBox="0 0 460 345" width="460pt" xmlns="http://www.w3.org/2000/svg" xmlns:xlink="http://www.w3.org/1999/xlink">
 <defs>
  <style type="text/css">
*{stroke-linecap:butt;stroke-linejoin:round;}
  </style>
 </defs>
 <g id="figure_1">
  <g id="patch_1">
   <path d="M 0 345.6 
L 460.8 345.6 
L 460.8 0 
L 0 0 
z
" style="fill:#ffffff;"/>
  </g>
  <g id="axes_1">
   <g id="patch_2">
    <path d="M 42.1 143.34 
L 447.48 143.34 
L 447.48 28.32 
L 42.1 28.32 
z
" style="fill:#ffffff;"/>
   </g>
   <g id="PolyCollection_1">
    <defs>
     <path d="M 60.526364 -259.770013 
L 60.526364 -301.374583 
L 60.710719 -301.373285 
L 60.895075 -301.369391 
L 61.079431 -301.3629 
L 61.263787 -301.353814 
L 61.448143 -301.342134 
L 61.632499 -301.327859 
L 61.816854 -301.31099 
L 62.00121 -301.291529 
L 62.185566 -301.269477 
L 62.369922 -301.244836 
L 62.554278 -301.217606 
L 62.738633 -301.18779 
L 62.922989 -301.155389 
L 63.107345 -301.120405 
L 63.291701 -301.082841 
L 63.476057 -301.042699 
L 63.660412 -300.999981 
L 63.844768 -300.954691 
L 64.029124 -300.90683 
L 64.21348 -300.856402 
L 64.397836 -300.803411 
L 64.582192 -300.747858 
L 64.766547 -300.689749 
L 64.950903 -300.629086 
L 65.135259 -300.565873 
L 65.319615 -300.500114 
L 65.503971 -300.431814 
L 65.688326 -300.360976 
L 65.872682 -300.287605 
L 66.057038 -300.211706 
L 66.241394 -300.133283 
L 66.42575 -300.052341 
L 66.610106 -299.968886 
L 66.794461 -299.882921 
L 66.978817 -299.794454 
L 67.163173 -299.703489 
L 67.347529 -299.610032 
L 67.531885 -299.514089 
L 67.71624 -299.415665 
L 67.900596 -299.314768 
L 68.084952 -299.211403 
L 68.269308 -299.105576 
L 68.453664 -298.997295 
L 68.638019 -298.886566 
L 68.822375 -298.773396 
L 69.006731 -298.657791 
L 69.191087 -298.539761 
L 69.375443 -298.41931 
L 69.559799 -298.296448 
L 69.744154 -298.171182 
L 69.92851 -298.043519 
L 70.112866 -297.913468 
L 70.297222 -297.781037 
L 70.481578 -297.646233 
L 70.665933 -297.509066 
L 70.850289 -297.369544 
L 71.034645 -297.227675 
L 71.219001 -297.083469 
L 71.403357 -296.936935 
L 71.587712 -296.788081 
L 71.772068 -296.636917 
L 71.956424 -296.483453 
L 72.14078 -296.327697 
L 72.325136 -296.16966 
L 72.509492 -296.009352 
L 72.693847 -295.846782 
L 72.878203 -295.68196 
L 73.062559 -295.514898 
L 73.246915 -295.345605 
L 73.431271 -295.174092 
L 73.615626 -295.00037 
L 73.799982 -294.824449 
L 73.984338 -294.646341 
L 74.168694 -294.466056 
L 74.35305 -294.283606 
L 74.537406 -294.099002 
L 74.721761 -293.912256 
L 74.906117 -293.723379 
L 75.090473 -293.532384 
L 75.274829 -293.339282 
L 75.459185 -293.144085 
L 75.64354 -292.946805 
L 75.827896 -292.747454 
L 76.012252 -292.546046 
L 76.196608 -292.342593 
L 76.380964 -292.137107 
L 76.565319 -291.929601 
L 76.749675 -291.720088 
L 76.934031 -291.508581 
L 77.118387 -291.295094 
L 77.302743 -291.079639 
L 77.487099 -290.862231 
L 77.671454 -290.642882 
L 77.85581 -290.421607 
L 78.040166 -290.198419 
L 78.224522 -289.973332 
L 78.408878 -289.74636 
L 78.593233 -289.517518 
L 78.777589 -289.286819 
L 78.961945 -289.054278 
L 79.146301 -288.81991 
L 79.330657 -288.583729 
L 79.515013 -288.34575 
L 79.699368 -288.105988 
L 79.883724 -287.864458 
L 80.06808 -287.621174 
L 80.252436 -287.376152 
L 80.436792 -287.129407 
L 80.621147 -286.880956 
L 80.805503 -286.630812 
L 80.989859 -286.378992 
L 81.174215 -286.125512 
L 81.358571 -285.870387 
L 81.542926 -285.613633 
L 81.727282 -285.355266 
L 81.911638 -285.095303 
L 82.095994 -284.833759 
L 82.28035 -284.570652 
L 82.464706 -284.305996 
L 82.649061 -284.03981 
L 82.833417 -283.772109 
L 83.017773 -283.50291 
L 83.202129 -283.23223 
L 83.386485 -282.960086 
L 83.57084 -282.686495 
L 83.755196 -282.411474 
L 83.939552 -282.13504 
L 84.123908 -281.85721 
L 84.308264 -281.578002 
L 84.492619 -281.297433 
L 84.676975 -281.015521 
L 84.861331 -280.732282 
L 85.045687 -280.447736 
L 85.230043 -280.161899 
L 85.414399 -279.87479 
L 85.598754 -279.586426 
L 85.78311 -279.296826 
L 85.967466 -279.006007 
L 86.151822 -278.713987 
L 86.336178 -278.420786 
L 86.520533 -278.12642 
L 86.704889 -277.830909 
L 86.889245 -277.534271 
L 87.073601 -277.236524 
L 87.257957 -276.937688 
L 87.442313 -276.63778 
L 87.626668 -276.336819 
L 87.811024 -276.034825 
L 87.99538 -275.731816 
L 88.179736 -275.42781 
L 88.364092 -275.122828 
L 88.548447 -274.816887 
L 88.732803 -274.510007 
L 88.917159 -274.202208 
L 89.101515 -273.893508 
L 89.285871 -273.583926 
L 89.470226 -273.273483 
L 89.654582 -272.962197 
L 89.838938 -272.650087 
L 90.023294 -272.337174 
L 90.20765 -272.023477 
L 90.392006 -271.709015 
L 90.576361 -271.393808 
L 90.760717 -271.077875 
L 90.945073 -270.761237 
L 91.129429 -270.443913 
L 91.313785 -270.125923 
L 91.49814 -269.807287 
L 91.682496 -269.488024 
L 91.866852 -269.168155 
L 92.051208 -268.847699 
L 92.235564 -268.526677 
L 92.41992 -268.205108 
L 92.604275 -267.883013 
L 92.788631 -267.560412 
L 92.972987 -267.237325 
L 93.157343 -266.913771 
L 93.341699 -266.589772 
L 93.526054 -266.265347 
L 93.71041 -265.940517 
L 93.894766 -265.615302 
L 94.079122 -265.289722 
L 94.263478 -264.963798 
L 94.447833 -264.637549 
L 94.632189 -264.310997 
L 94.816545 -263.984162 
L 95.000901 -263.657063 
L 95.185257 -263.329722 
L 95.369613 -263.002159 
L 95.553968 -262.674394 
L 95.738324 -262.346447 
L 95.92268 -262.01834 
L 96.107036 -261.690093 
L 96.291392 -261.361726 
L 96.475747 -261.033259 
L 96.660103 -260.704714 
L 96.844459 -260.37611 
L 97.028815 -260.047469 
L 97.213171 -259.71881 
L 97.397526 -259.390154 
L 97.581882 -259.061523 
L 97.766238 -258.732935 
L 97.950594 -258.404412 
L 98.13495 -258.075974 
L 98.319306 -257.747642 
L 98.503661 -257.419436 
L 98.688017 -257.091377 
L 98.872373 -256.763485 
L 99.056729 -256.435781 
L 99.241085 -256.108285 
L 99.42544 -255.781017 
L 99.609796 -255.453998 
L 99.794152 -255.127249 
L 99.978508 -254.800789 
L 100.162864 -254.474639 
L 100.34722 -254.14882 
L 100.531575 -253.823351 
L 100.715931 -253.498254 
L 100.900287 -253.173548 
L 101.084643 -252.849254 
L 101.268999 -252.525391 
L 101.453354 -252.201981 
L 101.63771 -251.879043 
L 101.822066 -251.556597 
L 102.006422 -251.234664 
L 102.190778 -250.913264 
L 102.375133 -250.592416 
L 102.559489 -250.272141 
L 102.743845 -249.952459 
L 102.928201 -249.633389 
L 103.112557 -249.314952 
L 103.296913 -248.997167 
L 103.481268 -248.680055 
L 103.665624 -248.363634 
L 103.84998 -248.047926 
L 104.034336 -247.732949 
L 104.218692 -247.418723 
L 104.403047 -247.105268 
L 104.587403 -246.792603 
L 104.771759 -246.480748 
L 104.956115 -246.169722 
L 105.140471 -245.859545 
L 105.324827 -245.550236 
L 105.509182 -245.241815 
L 105.693538 -244.9343 
L 105.877894 -244.627711 
L 106.06225 -244.322067 
L 106.246606 -244.017387 
L 106.430961 -243.713689 
L 106.615317 -243.410994 
L 106.799673 -243.10932 
L 106.984029 -242.808685 
L 107.168385 -242.509109 
L 107.35274 -242.21061 
L 107.537096 -241.913207 
L 107.721452 -241.616918 
L 107.905808 -241.321762 
L 108.090164 -241.027757 
L 108.27452 -240.734922 
L 108.458875 -240.443275 
L 108.643231 -240.152834 
L 108.827587 -239.863616 
L 109.011943 -239.575642 
L 109.196299 -239.288927 
L 109.380654 -239.00349 
L 109.56501 -238.71935 
L 109.749366 -238.436523 
L 109.933722 -238.155027 
L 110.118078 -237.87488 
L 110.302433 -237.5961 
L 110.486789 -237.318703 
L 110.671145 -237.042707 
L 110.855501 -236.76813 
L 111.039857 -236.494988 
L 111.224213 -236.223298 
L 111.408568 -235.953078 
L 111.592924 -235.684344 
L 111.77728 -235.417113 
L 111.961636 -235.151402 
L 112.145992 -234.887227 
L 112.330347 -234.624605 
L 112.514703 -234.363552 
L 112.699059 -234.104085 
L 112.883415 -233.846219 
L 113.067771 -233.589971 
L 113.252127 -233.335356 
L 113.436482 -233.082392 
L 113.620838 -232.831092 
L 113.805194 -232.581474 
L 113.98955 -232.333553 
L 114.173906 -232.087343 
L 114.358261 -231.842862 
L 114.542617 -231.600122 
L 114.726973 -231.359141 
L 114.911329 -231.119933 
L 115.095685 -230.882513 
L 115.28004 -230.646895 
L 115.464396 -230.413095 
L 115.648752 -230.181126 
L 115.833108 -229.951005 
L 116.017464 -229.722744 
L 116.20182 -229.496358 
L 116.386175 -229.271861 
L 116.570531 -229.049267 
L 116.754887 -228.828591 
L 116.939243 -228.609845 
L 117.123599 -228.393044 
L 117.307954 -228.178201 
L 117.49231 -227.96533 
L 117.676666 -227.754443 
L 117.861022 -227.545554 
L 118.045378 -227.338676 
L 118.229734 -227.133822 
L 118.414089 -226.931004 
L 118.598445 -226.730236 
L 118.782801 -226.531529 
L 118.967157 -226.334897 
L 119.151513 -226.140351 
L 119.335868 -225.947904 
L 119.520224 -225.757568 
L 119.70458 -225.569354 
L 119.888936 -225.383274 
L 120.073292 -225.19934 
L 120.257647 -225.017563 
L 120.442003 -224.837956 
L 120.626359 -224.660528 
L 120.810715 -224.485291 
L 120.995071 -224.312256 
L 121.179427 -224.141433 
L 121.363782 -223.972834 
L 121.548138 -223.806469 
L 121.732494 -223.642348 
L 121.91685 -223.480482 
L 122.101206 -223.32088 
L 122.285561 -223.163553 
L 122.469917 -223.00851 
L 122.654273 -222.855761 
L 122.838629 -222.705316 
L 123.022985 -222.557184 
L 123.20734 -222.411374 
L 123.391696 -222.267895 
L 123.576052 -222.126757 
L 123.760408 -221.987968 
L 123.944764 -221.851536 
L 124.12912 -221.717471 
L 124.313475 -221.58578 
L 124.497831 -221.456473 
L 124.682187 -221.329556 
L 124.866543 -221.205038 
L 125.050899 -221.082926 
L 125.235254 -220.963229 
L 125.41961 -220.845954 
L 125.603966 -220.731107 
L 125.788322 -220.618697 
L 125.972678 -220.50873 
L 126.157034 -220.401213 
L 126.341389 -220.296152 
L 126.525745 -220.193555 
L 126.710101 -220.093428 
L 126.894457 -219.995777 
L 127.078813 -219.900608 
L 127.263168 -219.807926 
L 127.447524 -219.717739 
L 127.63188 -219.630051 
L 127.816236 -219.544868 
L 128.000592 -219.462195 
L 128.184947 -219.382037 
L 128.369303 -219.3044 
L 128.553659 -219.229288 
L 128.738015 -219.156706 
L 128.922371 -219.086658 
L 129.106727 -219.01915 
L 129.291082 -218.954184 
L 129.475438 -218.891765 
L 129.659794 -218.831897 
L 129.84415 -218.774584 
L 130.028506 -218.719829 
L 130.212861 -218.667636 
L 130.397217 -218.618008 
L 130.581573 -218.570948 
L 130.765929 -218.526459 
L 130.950285 -218.484543 
L 131.134641 -218.445204 
L 131.318996 -218.408444 
L 131.503352 -218.374265 
L 131.687708 -218.342669 
L 131.872064 -218.313658 
L 132.05642 -218.287235 
L 132.240775 -218.2634 
L 132.425131 -218.242155 
L 132.609487 -218.223502 
L 132.793843 -218.207442 
L 132.978199 -218.193975 
L 133.162554 -218.183102 
L 133.34691 -218.174825 
L 133.531266 -218.169144 
L 133.715622 -218.166058 
L 133.899978 -218.165569 
L 134.084334 -218.167676 
L 134.084334 -259.770013 
L 134.084334 -259.770013 
L 133.899978 -259.770013 
L 133.715622 -259.770013 
L 133.531266 -259.770013 
L 133.34691 -259.770013 
L 133.162554 -259.770013 
L 132.978199 -259.770013 
L 132.793843 -259.770013 
L 132.609487 -259.770013 
L 132.425131 -259.770013 
L 132.240775 -259.770013 
L 132.05642 -259.770013 
L 131.872064 -259.770013 
L 131.687708 -259.770013 
L 131.503352 -259.770013 
L 131.318996 -259.770013 
L 131.134641 -259.770013 
L 130.950285 -259.770013 
L 130.765929 -259.770013 
L 130.581573 -259.770013 
L 130.397217 -259.770013 
L 130.212861 -259.770013 
L 130.028506 -259.770013 
L 129.84415 -259.770013 
L 129.659794 -259.770013 
L 129.475438 -259.770013 
L 129.291082 -259.770013 
L 129.106727 -259.770013 
L 128.922371 -259.770013 
L 128.738015 -259.770013 
L 128.553659 -259.770013 
L 128.369303 -259.770013 
L 128.184947 -259.770013 
L 128.000592 -259.770013 
L 127.816236 -259.770013 
L 127.63188 -259.770013 
L 127.447524 -259.770013 
L 127.263168 -259.770013 
L 127.078813 -259.770013 
L 126.894457 -259.770013 
L 126.710101 -259.770013 
L 126.525745 -259.770013 
L 126.341389 -259.770013 
L 126.157034 -259.770013 
L 125.972678 -259.770013 
L 125.788322 -259.770013 
L 125.603966 -259.770013 
L 125.41961 -259.770013 
L 125.235254 -259.770013 
L 125.050899 -259.770013 
L 124.866543 -259.770013 
L 124.682187 -259.770013 
L 124.497831 -259.770013 
L 124.313475 -259.770013 
L 124.12912 -259.770013 
L 123.944764 -259.770013 
L 123.760408 -259.770013 
L 123.576052 -259.770013 
L 123.391696 -259.770013 
L 123.20734 -259.770013 
L 123.022985 -259.770013 
L 122.838629 -259.770013 
L 122.654273 -259.770013 
L 122.469917 -259.770013 
L 122.285561 -259.770013 
L 122.101206 -259.770013 
L 121.91685 -259.770013 
L 121.732494 -259.770013 
L 121.548138 -259.770013 
L 121.363782 -259.770013 
L 121.179427 -259.770013 
L 120.995071 -259.770013 
L 120.810715 -259.770013 
L 120.626359 -259.770013 
L 120.442003 -259.770013 
L 120.257647 -259.770013 
L 120.073292 -259.770013 
L 119.888936 -259.770013 
L 119.70458 -259.770013 
L 119.520224 -259.770013 
L 119.335868 -259.770013 
L 119.151513 -259.770013 
L 118.967157 -259.770013 
L 118.782801 -259.770013 
L 118.598445 -259.770013 
L 118.414089 -259.770013 
L 118.229734 -259.770013 
L 118.045378 -259.770013 
L 117.861022 -259.770013 
L 117.676666 -259.770013 
L 117.49231 -259.770013 
L 117.307954 -259.770013 
L 117.123599 -259.770013 
L 116.939243 -259.770013 
L 116.754887 -259.770013 
L 116.570531 -259.770013 
L 116.386175 -259.770013 
L 116.20182 -259.770013 
L 116.017464 -259.770013 
L 115.833108 -259.770013 
L 115.648752 -259.770013 
L 115.464396 -259.770013 
L 115.28004 -259.770013 
L 115.095685 -259.770013 
L 114.911329 -259.770013 
L 114.726973 -259.770013 
L 114.542617 -259.770013 
L 114.358261 -259.770013 
L 114.173906 -259.770013 
L 113.98955 -259.770013 
L 113.805194 -259.770013 
L 113.620838 -259.770013 
L 113.436482 -259.770013 
L 113.252127 -259.770013 
L 113.067771 -259.770013 
L 112.883415 -259.770013 
L 112.699059 -259.770013 
L 112.514703 -259.770013 
L 112.330347 -259.770013 
L 112.145992 -259.770013 
L 111.961636 -259.770013 
L 111.77728 -259.770013 
L 111.592924 -259.770013 
L 111.408568 -259.770013 
L 111.224213 -259.770013 
L 111.039857 -259.770013 
L 110.855501 -259.770013 
L 110.671145 -259.770013 
L 110.486789 -259.770013 
L 110.302433 -259.770013 
L 110.118078 -259.770013 
L 109.933722 -259.770013 
L 109.749366 -259.770013 
L 109.56501 -259.770013 
L 109.380654 -259.770013 
L 109.196299 -259.770013 
L 109.011943 -259.770013 
L 108.827587 -259.770013 
L 108.643231 -259.770013 
L 108.458875 -259.770013 
L 108.27452 -259.770013 
L 108.090164 -259.770013 
L 107.905808 -259.770013 
L 107.721452 -259.770013 
L 107.537096 -259.770013 
L 107.35274 -259.770013 
L 107.168385 -259.770013 
L 106.984029 -259.770013 
L 106.799673 -259.770013 
L 106.615317 -259.770013 
L 106.430961 -259.770013 
L 106.246606 -259.770013 
L 106.06225 -259.770013 
L 105.877894 -259.770013 
L 105.693538 -259.770013 
L 105.509182 -259.770013 
L 105.324827 -259.770013 
L 105.140471 -259.770013 
L 104.956115 -259.770013 
L 104.771759 -259.770013 
L 104.587403 -259.770013 
L 104.403047 -259.770013 
L 104.218692 -259.770013 
L 104.034336 -259.770013 
L 103.84998 -259.770013 
L 103.665624 -259.770013 
L 103.481268 -259.770013 
L 103.296913 -259.770013 
L 103.112557 -259.770013 
L 102.928201 -259.770013 
L 102.743845 -259.770013 
L 102.559489 -259.770013 
L 102.375133 -259.770013 
L 102.190778 -259.770013 
L 102.006422 -259.770013 
L 101.822066 -259.770013 
L 101.63771 -259.770013 
L 101.453354 -259.770013 
L 101.268999 -259.770013 
L 101.084643 -259.770013 
L 100.900287 -259.770013 
L 100.715931 -259.770013 
L 100.531575 -259.770013 
L 100.34722 -259.770013 
L 100.162864 -259.770013 
L 99.978508 -259.770013 
L 99.794152 -259.770013 
L 99.609796 -259.770013 
L 99.42544 -259.770013 
L 99.241085 -259.770013 
L 99.056729 -259.770013 
L 98.872373 -259.770013 
L 98.688017 -259.770013 
L 98.503661 -259.770013 
L 98.319306 -259.770013 
L 98.13495 -259.770013 
L 97.950594 -259.770013 
L 97.766238 -259.770013 
L 97.581882 -259.770013 
L 97.397526 -259.770013 
L 97.213171 -259.770013 
L 97.028815 -259.770013 
L 96.844459 -259.770013 
L 96.660103 -259.770013 
L 96.475747 -259.770013 
L 96.291392 -259.770013 
L 96.107036 -259.770013 
L 95.92268 -259.770013 
L 95.738324 -259.770013 
L 95.553968 -259.770013 
L 95.369613 -259.770013 
L 95.185257 -259.770013 
L 95.000901 -259.770013 
L 94.816545 -259.770013 
L 94.632189 -259.770013 
L 94.447833 -259.770013 
L 94.263478 -259.770013 
L 94.079122 -259.770013 
L 93.894766 -259.770013 
L 93.71041 -259.770013 
L 93.526054 -259.770013 
L 93.341699 -259.770013 
L 93.157343 -259.770013 
L 92.972987 -259.770013 
L 92.788631 -259.770013 
L 92.604275 -259.770013 
L 92.41992 -259.770013 
L 92.235564 -259.770013 
L 92.051208 -259.770013 
L 91.866852 -259.770013 
L 91.682496 -259.770013 
L 91.49814 -259.770013 
L 91.313785 -259.770013 
L 91.129429 -259.770013 
L 90.945073 -259.770013 
L 90.760717 -259.770013 
L 90.576361 -259.770013 
L 90.392006 -259.770013 
L 90.20765 -259.770013 
L 90.023294 -259.770013 
L 89.838938 -259.770013 
L 89.654582 -259.770013 
L 89.470226 -259.770013 
L 89.285871 -259.770013 
L 89.101515 -259.770013 
L 88.917159 -259.770013 
L 88.732803 -259.770013 
L 88.548447 -259.770013 
L 88.364092 -259.770013 
L 88.179736 -259.770013 
L 87.99538 -259.770013 
L 87.811024 -259.770013 
L 87.626668 -259.770013 
L 87.442313 -259.770013 
L 87.257957 -259.770013 
L 87.073601 -259.770013 
L 86.889245 -259.770013 
L 86.704889 -259.770013 
L 86.520533 -259.770013 
L 86.336178 -259.770013 
L 86.151822 -259.770013 
L 85.967466 -259.770013 
L 85.78311 -259.770013 
L 85.598754 -259.770013 
L 85.414399 -259.770013 
L 85.230043 -259.770013 
L 85.045687 -259.770013 
L 84.861331 -259.770013 
L 84.676975 -259.770013 
L 84.492619 -259.770013 
L 84.308264 -259.770013 
L 84.123908 -259.770013 
L 83.939552 -259.770013 
L 83.755196 -259.770013 
L 83.57084 -259.770013 
L 83.386485 -259.770013 
L 83.202129 -259.770013 
L 83.017773 -259.770013 
L 82.833417 -259.770013 
L 82.649061 -259.770013 
L 82.464706 -259.770013 
L 82.28035 -259.770013 
L 82.095994 -259.770013 
L 81.911638 -259.770013 
L 81.727282 -259.770013 
L 81.542926 -259.770013 
L 81.358571 -259.770013 
L 81.174215 -259.770013 
L 80.989859 -259.770013 
L 80.805503 -259.770013 
L 80.621147 -259.770013 
L 80.436792 -259.770013 
L 80.252436 -259.770013 
L 80.06808 -259.770013 
L 79.883724 -259.770013 
L 79.699368 -259.770013 
L 79.515013 -259.770013 
L 79.330657 -259.770013 
L 79.146301 -259.770013 
L 78.961945 -259.770013 
L 78.777589 -259.770013 
L 78.593233 -259.770013 
L 78.408878 -259.770013 
L 78.224522 -259.770013 
L 78.040166 -259.770013 
L 77.85581 -259.770013 
L 77.671454 -259.770013 
L 77.487099 -259.770013 
L 77.302743 -259.770013 
L 77.118387 -259.770013 
L 76.934031 -259.770013 
L 76.749675 -259.770013 
L 76.565319 -259.770013 
L 76.380964 -259.770013 
L 76.196608 -259.770013 
L 76.012252 -259.770013 
L 75.827896 -259.770013 
L 75.64354 -259.770013 
L 75.459185 -259.770013 
L 75.274829 -259.770013 
L 75.090473 -259.770013 
L 74.906117 -259.770013 
L 74.721761 -259.770013 
L 74.537406 -259.770013 
L 74.35305 -259.770013 
L 74.168694 -259.770013 
L 73.984338 -259.770013 
L 73.799982 -259.770013 
L 73.615626 -259.770013 
L 73.431271 -259.770013 
L 73.246915 -259.770013 
L 73.062559 -259.770013 
L 72.878203 -259.770013 
L 72.693847 -259.770013 
L 72.509492 -259.770013 
L 72.325136 -259.770013 
L 72.14078 -259.770013 
L 71.956424 -259.770013 
L 71.772068 -259.770013 
L 71.587712 -259.770013 
L 71.403357 -259.770013 
L 71.219001 -259.770013 
L 71.034645 -259.770013 
L 70.850289 -259.770013 
L 70.665933 -259.770013 
L 70.481578 -259.770013 
L 70.297222 -259.770013 
L 70.112866 -259.770013 
L 69.92851 -259.770013 
L 69.744154 -259.770013 
L 69.559799 -259.770013 
L 69.375443 -259.770013 
L 69.191087 -259.770013 
L 69.006731 -259.770013 
L 68.822375 -259.770013 
L 68.638019 -259.770013 
L 68.453664 -259.770013 
L 68.269308 -259.770013 
L 68.084952 -259.770013 
L 67.900596 -259.770013 
L 67.71624 -259.770013 
L 67.531885 -259.770013 
L 67.347529 -259.770013 
L 67.163173 -259.770013 
L 66.978817 -259.770013 
L 66.794461 -259.770013 
L 66.610106 -259.770013 
L 66.42575 -259.770013 
L 66.241394 -259.770013 
L 66.057038 -259.770013 
L 65.872682 -259.770013 
L 65.688326 -259.770013 
L 65.503971 -259.770013 
L 65.319615 -259.770013 
L 65.135259 -259.770013 
L 64.950903 -259.770013 
L 64.766547 -259.770013 
L 64.582192 -259.770013 
L 64.397836 -259.770013 
L 64.21348 -259.770013 
L 64.029124 -259.770013 
L 63.844768 -259.770013 
L 63.660412 -259.770013 
L 63.476057 -259.770013 
L 63.291701 -259.770013 
L 63.107345 -259.770013 
L 62.922989 -259.770013 
L 62.738633 -259.770013 
L 62.554278 -259.770013 
L 62.369922 -259.770013 
L 62.185566 -259.770013 
L 62.00121 -259.770013 
L 61.816854 -259.770013 
L 61.632499 -259.770013 
L 61.448143 -259.770013 
L 61.263787 -259.770013 
L 61.079431 -259.770013 
L 60.895075 -259.770013 
L 60.710719 -259.770013 
L 60.526364 -259.770013 
z
" id="mf3df6e9a86" style="stroke:#ff0000;stroke-opacity:0.3;"/>
    </defs>
    <g clip-path="url(#p1350b72a7a)">
     <use style="fill:#ff0000;fill-opacity:0.3;stroke:#ff0000;stroke-opacity:0.3;" x="0" xlink:href="#mf3df6e9a86" y="345.6"/>
    </g>
   </g>
   <g id="PolyCollection_2">
    <defs>
     <path d="M 355.495666 -259.770013 
L 355.495666 -301.263647 
L 355.680022 -301.238368 
L 355.864378 -301.210501 
L 356.048734 -301.180048 
L 356.23309 -301.14701 
L 356.417446 -301.111391 
L 356.601801 -301.073191 
L 356.786157 -301.032415 
L 356.970513 -300.989063 
L 357.154869 -300.943139 
L 357.339225 -300.894646 
L 357.52358 -300.843586 
L 357.707936 -300.789963 
L 357.892292 -300.733781 
L 358.076648 -300.675042 
L 358.261004 -300.61375 
L 358.445359 -300.54991 
L 358.629715 -300.483525 
L 358.814071 -300.414599 
L 358.998427 -300.343137 
L 359.182783 -300.269143 
L 359.367139 -300.192621 
L 359.551494 -300.113577 
L 359.73585 -300.032016 
L 359.920206 -299.947941 
L 360.104562 -299.86136 
L 360.288918 -299.772277 
L 360.473273 -299.680697 
L 360.657629 -299.586627 
L 360.841985 -299.490073 
L 361.026341 -299.391039 
L 361.210697 -299.289533 
L 361.395053 -299.185561 
L 361.579408 -299.079129 
L 361.763764 -298.970244 
L 361.94812 -298.858913 
L 362.132476 -298.745143 
L 362.316832 -298.62894 
L 362.501187 -298.510313 
L 362.685543 -298.389268 
L 362.869899 -298.265812 
L 363.054255 -298.139955 
L 363.238611 -298.011703 
L 363.422966 -297.881065 
L 363.607322 -297.748048 
L 363.791678 -297.612662 
L 363.976034 -297.474914 
L 364.16039 -297.334813 
L 364.344746 -297.192368 
L 364.529101 -297.047587 
L 364.713457 -296.900481 
L 364.897813 -296.751057 
L 365.082169 -296.599325 
L 365.266525 -296.445295 
L 365.45088 -296.288977 
L 365.635236 -296.130379 
L 365.819592 -295.969513 
L 366.003948 -295.806388 
L 366.188304 -295.641013 
L 366.37266 -295.4734 
L 366.557015 -295.30356 
L 366.741371 -295.131501 
L 366.925727 -294.957236 
L 367.110083 -294.780776 
L 367.294439 -294.60213 
L 367.478794 -294.421311 
L 367.66315 -294.238329 
L 367.847506 -294.053197 
L 368.031862 -293.865925 
L 368.216218 -293.676525 
L 368.400573 -293.48501 
L 368.584929 -293.29139 
L 368.769285 -293.095679 
L 368.953641 -292.897888 
L 369.137997 -292.698029 
L 369.322353 -292.496116 
L 369.506708 -292.292161 
L 369.691064 -292.086176 
L 369.87542 -291.878174 
L 370.059776 -291.668169 
L 370.244132 -291.456173 
L 370.428487 -291.2422 
L 370.612843 -291.026263 
L 370.797199 -290.808375 
L 370.981555 -290.588551 
L 371.165911 -290.366803 
L 371.350266 -290.143146 
L 371.534622 -289.917593 
L 371.718978 -289.690159 
L 371.903334 -289.460858 
L 372.08769 -289.229705 
L 372.272046 -288.996712 
L 372.456401 -288.761896 
L 372.640757 -288.525271 
L 372.825113 -288.286851 
L 373.009469 -288.046652 
L 373.193825 -287.804688 
L 373.37818 -287.560975 
L 373.562536 -287.315527 
L 373.746892 -287.068361 
L 373.931248 -286.819491 
L 374.115604 -286.568933 
L 374.29996 -286.316702 
L 374.484315 -286.062815 
L 374.668671 -285.807288 
L 374.853027 -285.550135 
L 375.037383 -285.291374 
L 375.221739 -285.031019 
L 375.406094 -284.769089 
L 375.59045 -284.505599 
L 375.774806 -284.240565 
L 375.959162 -283.974003 
L 376.143518 -283.705932 
L 376.327873 -283.436367 
L 376.512229 -283.165325 
L 376.696585 -282.892823 
L 376.880941 -282.618878 
L 377.065297 -282.343507 
L 377.249653 -282.066727 
L 377.434008 -281.788556 
L 377.618364 -281.509011 
L 377.80272 -281.22811 
L 377.987076 -280.945869 
L 378.171432 -280.662307 
L 378.355787 -280.377441 
L 378.540143 -280.091289 
L 378.724499 -279.803869 
L 378.908855 -279.515199 
L 379.093211 -279.225297 
L 379.277567 -278.93418 
L 379.461922 -278.641868 
L 379.646278 -278.348378 
L 379.830634 -278.053728 
L 380.01499 -277.757938 
L 380.199346 -277.461025 
L 380.383701 -277.163008 
L 380.568057 -276.863906 
L 380.752413 -276.563737 
L 380.936769 -276.26252 
L 381.121125 -275.960274 
L 381.30548 -275.657018 
L 381.489836 -275.35277 
L 381.674192 -275.047549 
L 381.858548 -274.741376 
L 382.042904 -274.434268 
L 382.22726 -274.126244 
L 382.411615 -273.817325 
L 382.595971 -273.50753 
L 382.780327 -273.196877 
L 382.964683 -272.885386 
L 383.149039 -272.573077 
L 383.333394 -272.259969 
L 383.51775 -271.946081 
L 383.702106 -271.631434 
L 383.886462 -271.316046 
L 384.070818 -270.999938 
L 384.255173 -270.683129 
L 384.439529 -270.365639 
L 384.623885 -270.047488 
L 384.808241 -269.728696 
L 384.992597 -269.409282 
L 385.176953 -269.089266 
L 385.361308 -268.768669 
L 385.545664 -268.447511 
L 385.73002 -268.12581 
L 385.914376 -267.803589 
L 386.098732 -267.480866 
L 386.283087 -267.157662 
L 386.467443 -266.833997 
L 386.651799 -266.509891 
L 386.836155 -266.185364 
L 387.020511 -265.860438 
L 387.204867 -265.535131 
L 387.389222 -265.209464 
L 387.573578 -264.883458 
L 387.757934 -264.557133 
L 387.94229 -264.230509 
L 388.126646 -263.903606 
L 388.311001 -263.576446 
L 388.495357 -263.249048 
L 388.679713 -262.921434 
L 388.864069 -262.593622 
L 389.048425 -262.265634 
L 389.23278 -261.937491 
L 389.417136 -261.609212 
L 389.601492 -261.280819 
L 389.785848 -260.952331 
L 389.970204 -260.623769 
L 390.15456 -260.295154 
L 390.338915 -259.966507 
L 390.523271 -259.637847 
L 390.707627 -259.309195 
L 390.891983 -258.980572 
L 391.076339 -258.651999 
L 391.260694 -258.323495 
L 391.44505 -257.995081 
L 391.629406 -257.666778 
L 391.813762 -257.338607 
L 391.998118 -257.010587 
L 392.182474 -256.682739 
L 392.182474 -259.770013 
L 392.182474 -259.770013 
L 391.998118 -259.770013 
L 391.813762 -259.770013 
L 391.629406 -259.770013 
L 391.44505 -259.770013 
L 391.260694 -259.770013 
L 391.076339 -259.770013 
L 390.891983 -259.770013 
L 390.707627 -259.770013 
L 390.523271 -259.770013 
L 390.338915 -259.770013 
L 390.15456 -259.770013 
L 389.970204 -259.770013 
L 389.785848 -259.770013 
L 389.601492 -259.770013 
L 389.417136 -259.770013 
L 389.23278 -259.770013 
L 389.048425 -259.770013 
L 388.864069 -259.770013 
L 388.679713 -259.770013 
L 388.495357 -259.770013 
L 388.311001 -259.770013 
L 388.126646 -259.770013 
L 387.94229 -259.770013 
L 387.757934 -259.770013 
L 387.573578 -259.770013 
L 387.389222 -259.770013 
L 387.204867 -259.770013 
L 387.020511 -259.770013 
L 386.836155 -259.770013 
L 386.651799 -259.770013 
L 386.467443 -259.770013 
L 386.283087 -259.770013 
L 386.098732 -259.770013 
L 385.914376 -259.770013 
L 385.73002 -259.770013 
L 385.545664 -259.770013 
L 385.361308 -259.770013 
L 385.176953 -259.770013 
L 384.992597 -259.770013 
L 384.808241 -259.770013 
L 384.623885 -259.770013 
L 384.439529 -259.770013 
L 384.255173 -259.770013 
L 384.070818 -259.770013 
L 383.886462 -259.770013 
L 383.702106 -259.770013 
L 383.51775 -259.770013 
L 383.333394 -259.770013 
L 383.149039 -259.770013 
L 382.964683 -259.770013 
L 382.780327 -259.770013 
L 382.595971 -259.770013 
L 382.411615 -259.770013 
L 382.22726 -259.770013 
L 382.042904 -259.770013 
L 381.858548 -259.770013 
L 381.674192 -259.770013 
L 381.489836 -259.770013 
L 381.30548 -259.770013 
L 381.121125 -259.770013 
L 380.936769 -259.770013 
L 380.752413 -259.770013 
L 380.568057 -259.770013 
L 380.383701 -259.770013 
L 380.199346 -259.770013 
L 380.01499 -259.770013 
L 379.830634 -259.770013 
L 379.646278 -259.770013 
L 379.461922 -259.770013 
L 379.277567 -259.770013 
L 379.093211 -259.770013 
L 378.908855 -259.770013 
L 378.724499 -259.770013 
L 378.540143 -259.770013 
L 378.355787 -259.770013 
L 378.171432 -259.770013 
L 377.987076 -259.770013 
L 377.80272 -259.770013 
L 377.618364 -259.770013 
L 377.434008 -259.770013 
L 377.249653 -259.770013 
L 377.065297 -259.770013 
L 376.880941 -259.770013 
L 376.696585 -259.770013 
L 376.512229 -259.770013 
L 376.327873 -259.770013 
L 376.143518 -259.770013 
L 375.959162 -259.770013 
L 375.774806 -259.770013 
L 375.59045 -259.770013 
L 375.406094 -259.770013 
L 375.221739 -259.770013 
L 375.037383 -259.770013 
L 374.853027 -259.770013 
L 374.668671 -259.770013 
L 374.484315 -259.770013 
L 374.29996 -259.770013 
L 374.115604 -259.770013 
L 373.931248 -259.770013 
L 373.746892 -259.770013 
L 373.562536 -259.770013 
L 373.37818 -259.770013 
L 373.193825 -259.770013 
L 373.009469 -259.770013 
L 372.825113 -259.770013 
L 372.640757 -259.770013 
L 372.456401 -259.770013 
L 372.272046 -259.770013 
L 372.08769 -259.770013 
L 371.903334 -259.770013 
L 371.718978 -259.770013 
L 371.534622 -259.770013 
L 371.350266 -259.770013 
L 371.165911 -259.770013 
L 370.981555 -259.770013 
L 370.797199 -259.770013 
L 370.612843 -259.770013 
L 370.428487 -259.770013 
L 370.244132 -259.770013 
L 370.059776 -259.770013 
L 369.87542 -259.770013 
L 369.691064 -259.770013 
L 369.506708 -259.770013 
L 369.322353 -259.770013 
L 369.137997 -259.770013 
L 368.953641 -259.770013 
L 368.769285 -259.770013 
L 368.584929 -259.770013 
L 368.400573 -259.770013 
L 368.216218 -259.770013 
L 368.031862 -259.770013 
L 367.847506 -259.770013 
L 367.66315 -259.770013 
L 367.478794 -259.770013 
L 367.294439 -259.770013 
L 367.110083 -259.770013 
L 366.925727 -259.770013 
L 366.741371 -259.770013 
L 366.557015 -259.770013 
L 366.37266 -259.770013 
L 366.188304 -259.770013 
L 366.003948 -259.770013 
L 365.819592 -259.770013 
L 365.635236 -259.770013 
L 365.45088 -259.770013 
L 365.266525 -259.770013 
L 365.082169 -259.770013 
L 364.897813 -259.770013 
L 364.713457 -259.770013 
L 364.529101 -259.770013 
L 364.344746 -259.770013 
L 364.16039 -259.770013 
L 363.976034 -259.770013 
L 363.791678 -259.770013 
L 363.607322 -259.770013 
L 363.422966 -259.770013 
L 363.238611 -259.770013 
L 363.054255 -259.770013 
L 362.869899 -259.770013 
L 362.685543 -259.770013 
L 362.501187 -259.770013 
L 362.316832 -259.770013 
L 362.132476 -259.770013 
L 361.94812 -259.770013 
L 361.763764 -259.770013 
L 361.579408 -259.770013 
L 361.395053 -259.770013 
L 361.210697 -259.770013 
L 361.026341 -259.770013 
L 360.841985 -259.770013 
L 360.657629 -259.770013 
L 360.473273 -259.770013 
L 360.288918 -259.770013 
L 360.104562 -259.770013 
L 359.920206 -259.770013 
L 359.73585 -259.770013 
L 359.551494 -259.770013 
L 359.367139 -259.770013 
L 359.182783 -259.770013 
L 358.998427 -259.770013 
L 358.814071 -259.770013 
L 358.629715 -259.770013 
L 358.445359 -259.770013 
L 358.261004 -259.770013 
L 358.076648 -259.770013 
L 357.892292 -259.770013 
L 357.707936 -259.770013 
L 357.52358 -259.770013 
L 357.339225 -259.770013 
L 357.154869 -259.770013 
L 356.970513 -259.770013 
L 356.786157 -259.770013 
L 356.601801 -259.770013 
L 356.417446 -259.770013 
L 356.23309 -259.770013 
L 356.048734 -259.770013 
L 355.864378 -259.770013 
L 355.680022 -259.770013 
L 355.495666 -259.770013 
z
" id="mad671bf9f0" style="stroke:#ffa500;stroke-opacity:0.3;"/>
    </defs>
    <g clip-path="url(#p1350b72a7a)">
     <use style="fill:#ffa500;fill-opacity:0.3;stroke:#ffa500;stroke-opacity:0.3;" x="0" xlink:href="#mad671bf9f0" y="345.6"/>
    </g>
   </g>
   <g id="PolyCollection_3">
    <defs>
     <path d="M 208.011015 -259.770013 
L 208.011015 -301.34684 
L 208.195371 -301.333542 
L 208.379727 -301.317651 
L 208.564082 -301.299167 
L 208.748438 -301.278091 
L 208.932794 -301.254425 
L 209.11715 -301.228171 
L 209.301506 -301.199329 
L 209.485862 -301.167901 
L 209.670217 -301.133891 
L 209.854573 -301.097299 
L 210.038929 -301.058128 
L 210.223285 -301.016381 
L 210.407641 -300.972059 
L 210.591996 -300.925167 
L 210.776352 -300.875706 
L 210.960708 -300.82368 
L 211.145064 -300.769092 
L 211.32942 -300.711946 
L 211.513776 -300.652245 
L 211.698131 -300.589992 
L 211.882487 -300.525193 
L 212.066843 -300.45785 
L 212.251199 -300.387968 
L 212.435555 -300.315551 
L 212.61991 -300.240604 
L 212.804266 -300.163131 
L 212.988622 -300.083138 
L 213.172978 -300.000629 
L 213.357334 -299.915609 
L 213.541689 -299.828085 
L 213.726045 -299.73806 
L 213.910401 -299.645541 
L 214.094757 -299.550534 
L 214.279113 -299.453045 
L 214.463469 -299.353079 
L 214.647824 -299.250643 
L 214.83218 -299.145743 
L 215.016536 -299.038386 
L 215.200892 -298.928579 
L 215.385248 -298.816327 
L 215.569603 -298.70164 
L 215.753959 -298.584522 
L 215.938315 -298.464983 
L 216.122671 -298.343029 
L 216.307027 -298.218668 
L 216.491383 -298.091907 
L 216.675738 -297.962755 
L 216.860094 -297.831219 
L 217.04445 -297.697309 
L 217.228806 -297.561031 
L 217.413162 -297.422396 
L 217.597517 -297.28141 
L 217.781873 -297.138084 
L 217.966229 -296.992426 
L 218.150585 -296.844445 
L 218.334941 -296.694151 
L 218.519296 -296.541552 
L 218.703652 -296.386658 
L 218.888008 -296.22948 
L 219.072364 -296.070026 
L 219.25672 -295.908307 
L 219.441076 -295.744333 
L 219.625431 -295.578114 
L 219.809787 -295.409661 
L 219.994143 -295.238983 
L 220.178499 -295.066092 
L 220.362855 -294.890998 
L 220.54721 -294.713713 
L 220.731566 -294.534247 
L 220.915922 -294.352612 
L 221.100278 -294.168818 
L 221.284634 -293.982878 
L 221.468989 -293.794803 
L 221.653345 -293.604605 
L 221.837701 -293.412295 
L 222.022057 -293.217885 
L 222.206413 -293.021389 
L 222.390769 -292.822817 
L 222.575124 -292.622183 
L 222.75948 -292.419499 
L 222.943836 -292.214777 
L 223.128192 -292.008031 
L 223.312548 -291.799273 
L 223.496903 -291.588516 
L 223.681259 -291.375774 
L 223.865615 -291.161059 
L 224.049971 -290.944385 
L 224.234327 -290.725766 
L 224.418683 -290.505215 
L 224.603038 -290.282746 
L 224.787394 -290.058373 
L 224.97175 -289.83211 
L 225.156106 -289.603971 
L 225.340462 -289.37397 
L 225.524817 -289.142122 
L 225.709173 -288.90844 
L 225.893529 -288.672941 
L 226.077885 -288.435638 
L 226.262241 -288.196546 
L 226.446596 -287.95568 
L 226.630952 -287.713055 
L 226.815308 -287.468686 
L 226.999664 -287.222589 
L 227.18402 -286.974779 
L 227.368376 -286.725271 
L 227.552731 -286.474081 
L 227.737087 -286.221224 
L 227.921443 -285.966717 
L 228.105799 -285.710575 
L 228.290155 -285.452814 
L 228.47451 -285.193451 
L 228.658866 -284.932501 
L 228.843222 -284.669981 
L 229.027578 -284.405907 
L 229.211934 -284.140295 
L 229.39629 -283.873163 
L 229.580645 -283.604527 
L 229.765001 -283.334403 
L 229.949357 -283.062809 
L 230.133713 -282.789761 
L 230.318069 -282.515277 
L 230.502424 -282.239373 
L 230.68678 -281.962067 
L 230.871136 -281.683376 
L 231.055492 -281.403318 
L 231.239848 -281.12191 
L 231.424203 -280.839169 
L 231.608559 -280.555114 
L 231.792915 -280.269761 
L 231.977271 -279.983129 
L 232.161627 -279.695236 
L 232.345983 -279.406099 
L 232.530338 -279.115737 
L 232.714694 -278.824168 
L 232.89905 -278.53141 
L 233.083406 -278.237481 
L 233.267762 -277.942399 
L 233.452117 -277.646184 
L 233.636473 -277.348853 
L 233.820829 -277.050425 
L 234.005185 -276.750918 
L 234.189541 -276.450352 
L 234.373896 -276.148745 
L 234.558252 -275.846116 
L 234.742608 -275.542484 
L 234.926964 -275.237867 
L 235.11132 -274.932285 
L 235.295676 -274.625757 
L 235.480031 -274.318302 
L 235.664387 -274.009939 
L 235.848743 -273.700688 
L 236.033099 -273.390567 
L 236.217455 -273.079596 
L 236.40181 -272.767794 
L 236.586166 -272.455182 
L 236.770522 -272.141778 
L 236.954878 -271.827602 
L 237.139234 -271.512673 
L 237.32359 -271.197011 
L 237.507945 -270.880637 
L 237.692301 -270.563569 
L 237.876657 -270.245828 
L 238.061013 -269.927432 
L 238.245369 -269.608403 
L 238.429724 -269.28876 
L 238.61408 -268.968523 
L 238.798436 -268.647712 
L 238.982792 -268.326347 
L 239.167148 -268.004448 
L 239.351503 -267.682036 
L 239.535859 -267.359129 
L 239.720215 -267.035749 
L 239.904571 -266.711915 
L 240.088927 -266.387649 
L 240.273283 -266.062969 
L 240.457638 -265.737896 
L 240.641994 -265.412452 
L 240.82635 -265.086655 
L 241.010706 -264.760526 
L 241.195062 -264.434086 
L 241.379417 -264.107354 
L 241.563773 -263.780353 
L 241.748129 -263.4531 
L 241.932485 -263.125618 
L 242.116841 -262.797927 
L 242.301197 -262.470047 
L 242.485552 -262.141998 
L 242.669908 -261.813801 
L 242.854264 -261.485476 
L 243.03862 -261.157045 
L 243.222976 -260.828527 
L 243.407331 -260.499943 
L 243.591687 -260.171313 
L 243.776043 -259.842659 
L 243.960399 -259.513999 
L 244.144755 -259.185356 
L 244.32911 -258.85675 
L 244.513466 -258.5282 
L 244.697822 -258.199728 
L 244.882178 -257.871353 
L 245.066534 -257.543097 
L 245.25089 -257.214981 
L 245.435245 -256.887023 
L 245.619601 -256.559246 
L 245.803957 -256.231669 
L 245.988313 -255.904312 
L 246.172669 -255.577197 
L 246.357024 -255.250344 
L 246.54138 -254.923773 
L 246.725736 -254.597504 
L 246.910092 -254.271558 
L 247.094448 -253.945955 
L 247.278803 -253.620715 
L 247.463159 -253.295859 
L 247.647515 -252.971407 
L 247.831871 -252.64738 
L 248.016227 -252.323797 
L 248.200583 -252.000678 
L 248.384938 -251.678045 
L 248.569294 -251.355916 
L 248.75365 -251.034313 
L 248.938006 -250.713254 
L 249.122362 -250.392761 
L 249.306717 -250.072853 
L 249.491073 -249.75355 
L 249.675429 -249.434872 
L 249.859785 -249.116839 
L 250.044141 -248.799471 
L 250.228497 -248.482788 
L 250.412852 -248.166809 
L 250.597208 -247.851554 
L 250.781564 -247.537042 
L 250.96592 -247.223295 
L 251.150276 -246.91033 
L 251.334631 -246.598167 
L 251.518987 -246.286827 
L 251.703343 -245.976328 
L 251.887699 -245.666689 
L 252.072055 -245.357931 
L 252.25641 -245.050072 
L 252.440766 -244.743132 
L 252.625122 -244.43713 
L 252.809478 -244.132084 
L 252.993834 -243.828014 
L 253.17819 -243.524939 
L 253.362545 -243.222878 
L 253.546901 -242.92185 
L 253.731257 -242.621873 
L 253.915613 -242.322965 
L 254.099969 -242.025147 
L 254.284324 -241.728436 
L 254.46868 -241.432851 
L 254.653036 -241.13841 
L 254.837392 -240.845132 
L 255.021748 -240.553035 
L 255.206104 -240.262137 
L 255.390459 -239.972457 
L 255.574815 -239.684012 
L 255.759171 -239.39682 
L 255.943527 -239.1109 
L 256.127883 -238.826269 
L 256.312238 -238.542944 
L 256.496594 -238.260945 
L 256.68095 -237.980288 
L 256.865306 -237.70099 
L 257.049662 -237.42307 
L 257.234017 -237.146544 
L 257.418373 -236.871431 
L 257.602729 -236.597746 
L 257.787085 -236.325507 
L 257.971441 -236.054731 
L 258.155797 -235.785435 
L 258.340152 -235.517636 
L 258.524508 -235.25135 
L 258.708864 -234.986594 
L 258.89322 -234.723385 
L 259.077576 -234.461739 
L 259.261931 -234.201672 
L 259.446287 -233.943201 
L 259.630643 -233.686341 
L 259.814999 -233.431109 
L 259.999355 -233.177521 
L 260.18371 -232.925593 
L 260.368066 -232.675339 
L 260.552422 -232.426776 
L 260.736778 -232.17992 
L 260.921134 -231.934785 
L 261.10549 -231.691388 
L 261.289845 -231.449742 
L 261.474201 -231.209864 
L 261.658557 -230.971768 
L 261.842913 -230.73547 
L 262.027269 -230.500983 
L 262.211624 -230.268323 
L 262.39598 -230.037503 
L 262.580336 -229.808539 
L 262.764692 -229.581445 
L 262.949048 -229.356235 
L 263.133404 -229.132922 
L 263.317759 -228.911522 
L 263.502115 -228.692047 
L 263.686471 -228.474512 
L 263.870827 -228.258929 
L 264.055183 -228.045313 
L 264.239538 -227.833677 
L 264.423894 -227.624034 
L 264.60825 -227.416396 
L 264.792606 -227.210778 
L 264.976962 -227.007191 
L 265.161317 -226.805649 
L 265.345673 -226.606165 
L 265.530029 -226.408749 
L 265.714385 -226.213416 
L 265.898741 -226.020176 
L 266.083097 -225.829043 
L 266.267452 -225.640028 
L 266.451808 -225.453143 
L 266.636164 -225.268399 
L 266.82052 -225.085808 
L 267.004876 -224.905382 
L 267.189231 -224.727131 
L 267.373587 -224.551067 
L 267.557943 -224.377201 
L 267.742299 -224.205543 
L 267.926655 -224.036105 
L 268.111011 -223.868897 
L 268.295366 -223.703929 
L 268.479722 -223.541212 
L 268.664078 -223.380756 
L 268.848434 -223.22257 
L 269.03279 -223.066666 
L 269.217145 -222.913051 
L 269.401501 -222.761737 
L 269.585857 -222.612732 
L 269.770213 -222.466046 
L 269.954569 -222.321688 
L 270.138924 -222.179667 
L 270.32328 -222.039991 
L 270.507636 -221.90267 
L 270.691992 -221.767712 
L 270.876348 -221.635126 
L 271.060704 -221.504919 
L 271.245059 -221.3771 
L 271.429415 -221.251677 
L 271.613771 -221.128658 
L 271.798127 -221.00805 
L 271.982483 -220.889861 
L 272.166838 -220.774099 
L 272.351194 -220.66077 
L 272.53555 -220.549881 
L 272.719906 -220.44144 
L 272.904262 -220.335453 
L 273.088617 -220.231927 
L 273.272973 -220.130868 
L 273.457329 -220.032283 
L 273.641685 -219.936178 
L 273.826041 -219.842559 
L 274.010397 -219.751431 
L 274.194752 -219.6628 
L 274.379108 -219.576673 
L 274.563464 -219.493053 
L 274.74782 -219.411947 
L 274.932176 -219.33336 
L 275.116531 -219.257296 
L 275.300887 -219.18376 
L 275.485243 -219.112757 
L 275.669599 -219.04429 
L 275.853955 -218.978366 
L 276.038311 -218.914987 
L 276.222666 -218.854157 
L 276.407022 -218.795881 
L 276.591378 -218.740162 
L 276.775734 -218.687003 
L 276.96009 -218.636408 
L 277.144445 -218.58838 
L 277.328801 -218.542921 
L 277.513157 -218.500036 
L 277.697513 -218.459726 
L 277.881869 -218.421993 
L 278.066224 -218.386841 
L 278.25058 -218.354272 
L 278.434936 -218.324287 
L 278.619292 -218.296888 
L 278.803648 -218.272078 
L 278.988004 -218.249857 
L 279.172359 -218.230227 
L 279.356715 -218.213189 
L 279.541071 -218.198745 
L 279.725427 -218.186895 
L 279.909783 -218.177639 
L 280.094138 -218.17098 
L 280.278494 -218.166916 
L 280.46285 -218.165449 
L 280.647206 -218.166577 
L 280.831562 -218.170302 
L 281.015918 -218.176623 
L 281.200273 -218.18554 
L 281.384629 -218.197051 
L 281.568985 -218.211157 
L 281.753341 -218.227857 
L 281.937697 -218.247148 
L 282.122052 -218.269031 
L 282.306408 -218.293504 
L 282.490764 -218.320565 
L 282.67512 -218.350213 
L 282.859476 -218.382445 
L 283.043831 -218.41726 
L 283.228187 -218.454656 
L 283.412543 -218.49463 
L 283.596899 -218.537179 
L 283.781255 -218.582302 
L 283.965611 -218.629995 
L 284.149966 -218.680256 
L 284.334322 -218.73308 
L 284.518678 -218.788465 
L 284.703034 -218.846408 
L 284.88739 -218.906905 
L 285.071745 -218.969951 
L 285.256101 -219.035544 
L 285.440457 -219.103679 
L 285.624813 -219.174351 
L 285.809169 -219.247557 
L 285.993524 -219.323291 
L 286.17788 -219.40155 
L 286.362236 -219.482328 
L 286.546592 -219.565619 
L 286.730948 -219.65142 
L 286.915304 -219.739724 
L 287.099659 -219.830526 
L 287.284015 -219.923821 
L 287.468371 -220.019602 
L 287.652727 -220.117864 
L 287.837083 -220.2186 
L 288.021438 -220.321805 
L 288.205794 -220.427471 
L 288.39015 -220.535592 
L 288.574506 -220.646162 
L 288.758862 -220.759173 
L 288.943218 -220.874618 
L 289.127573 -220.992491 
L 289.311929 -221.112784 
L 289.496285 -221.235489 
L 289.680641 -221.360599 
L 289.864997 -221.488105 
L 290.049352 -221.618001 
L 290.233708 -221.750277 
L 290.418064 -221.884926 
L 290.60242 -222.021939 
L 290.786776 -222.161308 
L 290.971131 -222.303024 
L 291.155487 -222.447077 
L 291.339843 -222.59346 
L 291.524199 -222.742163 
L 291.708555 -222.893177 
L 291.892911 -223.046491 
L 292.077266 -223.202098 
L 292.261622 -223.359986 
L 292.445978 -223.520147 
L 292.630334 -223.682569 
L 292.81469 -223.847244 
L 292.999045 -224.014161 
L 293.183401 -224.183308 
L 293.367757 -224.354677 
L 293.552113 -224.528255 
L 293.736469 -224.704033 
L 293.920825 -224.881999 
L 294.10518 -225.062142 
L 294.289536 -225.244451 
L 294.473892 -225.428915 
L 294.658248 -225.615521 
L 294.842604 -225.804259 
L 295.026959 -225.995117 
L 295.211315 -226.188082 
L 295.395671 -226.383143 
L 295.580027 -226.580287 
L 295.764383 -226.779503 
L 295.948738 -226.980777 
L 296.133094 -227.184098 
L 296.31745 -227.389451 
L 296.501806 -227.596826 
L 296.686162 -227.806208 
L 296.870518 -228.017585 
L 297.054873 -228.230944 
L 297.239229 -228.446271 
L 297.423585 -228.663552 
L 297.607941 -228.882774 
L 297.792297 -229.103924 
L 297.976652 -229.326988 
L 298.161008 -229.551952 
L 298.345364 -229.778801 
L 298.52972 -230.007521 
L 298.714076 -230.238099 
L 298.898431 -230.47052 
L 299.082787 -230.70477 
L 299.267143 -230.940833 
L 299.451499 -231.178695 
L 299.635855 -231.418341 
L 299.820211 -231.659757 
L 300.004566 -231.902927 
L 300.004566 -259.770013 
L 300.004566 -259.770013 
L 299.820211 -259.770013 
L 299.635855 -259.770013 
L 299.451499 -259.770013 
L 299.267143 -259.770013 
L 299.082787 -259.770013 
L 298.898431 -259.770013 
L 298.714076 -259.770013 
L 298.52972 -259.770013 
L 298.345364 -259.770013 
L 298.161008 -259.770013 
L 297.976652 -259.770013 
L 297.792297 -259.770013 
L 297.607941 -259.770013 
L 297.423585 -259.770013 
L 297.239229 -259.770013 
L 297.054873 -259.770013 
L 296.870518 -259.770013 
L 296.686162 -259.770013 
L 296.501806 -259.770013 
L 296.31745 -259.770013 
L 296.133094 -259.770013 
L 295.948738 -259.770013 
L 295.764383 -259.770013 
L 295.580027 -259.770013 
L 295.395671 -259.770013 
L 295.211315 -259.770013 
L 295.026959 -259.770013 
L 294.842604 -259.770013 
L 294.658248 -259.770013 
L 294.473892 -259.770013 
L 294.289536 -259.770013 
L 294.10518 -259.770013 
L 293.920825 -259.770013 
L 293.736469 -259.770013 
L 293.552113 -259.770013 
L 293.367757 -259.770013 
L 293.183401 -259.770013 
L 292.999045 -259.770013 
L 292.81469 -259.770013 
L 292.630334 -259.770013 
L 292.445978 -259.770013 
L 292.261622 -259.770013 
L 292.077266 -259.770013 
L 291.892911 -259.770013 
L 291.708555 -259.770013 
L 291.524199 -259.770013 
L 291.339843 -259.770013 
L 291.155487 -259.770013 
L 290.971131 -259.770013 
L 290.786776 -259.770013 
L 290.60242 -259.770013 
L 290.418064 -259.770013 
L 290.233708 -259.770013 
L 290.049352 -259.770013 
L 289.864997 -259.770013 
L 289.680641 -259.770013 
L 289.496285 -259.770013 
L 289.311929 -259.770013 
L 289.127573 -259.770013 
L 288.943218 -259.770013 
L 288.758862 -259.770013 
L 288.574506 -259.770013 
L 288.39015 -259.770013 
L 288.205794 -259.770013 
L 288.021438 -259.770013 
L 287.837083 -259.770013 
L 287.652727 -259.770013 
L 287.468371 -259.770013 
L 287.284015 -259.770013 
L 287.099659 -259.770013 
L 286.915304 -259.770013 
L 286.730948 -259.770013 
L 286.546592 -259.770013 
L 286.362236 -259.770013 
L 286.17788 -259.770013 
L 285.993524 -259.770013 
L 285.809169 -259.770013 
L 285.624813 -259.770013 
L 285.440457 -259.770013 
L 285.256101 -259.770013 
L 285.071745 -259.770013 
L 284.88739 -259.770013 
L 284.703034 -259.770013 
L 284.518678 -259.770013 
L 284.334322 -259.770013 
L 284.149966 -259.770013 
L 283.965611 -259.770013 
L 283.781255 -259.770013 
L 283.596899 -259.770013 
L 283.412543 -259.770013 
L 283.228187 -259.770013 
L 283.043831 -259.770013 
L 282.859476 -259.770013 
L 282.67512 -259.770013 
L 282.490764 -259.770013 
L 282.306408 -259.770013 
L 282.122052 -259.770013 
L 281.937697 -259.770013 
L 281.753341 -259.770013 
L 281.568985 -259.770013 
L 281.384629 -259.770013 
L 281.200273 -259.770013 
L 281.015918 -259.770013 
L 280.831562 -259.770013 
L 280.647206 -259.770013 
L 280.46285 -259.770013 
L 280.278494 -259.770013 
L 280.094138 -259.770013 
L 279.909783 -259.770013 
L 279.725427 -259.770013 
L 279.541071 -259.770013 
L 279.356715 -259.770013 
L 279.172359 -259.770013 
L 278.988004 -259.770013 
L 278.803648 -259.770013 
L 278.619292 -259.770013 
L 278.434936 -259.770013 
L 278.25058 -259.770013 
L 278.066224 -259.770013 
L 277.881869 -259.770013 
L 277.697513 -259.770013 
L 277.513157 -259.770013 
L 277.328801 -259.770013 
L 277.144445 -259.770013 
L 276.96009 -259.770013 
L 276.775734 -259.770013 
L 276.591378 -259.770013 
L 276.407022 -259.770013 
L 276.222666 -259.770013 
L 276.038311 -259.770013 
L 275.853955 -259.770013 
L 275.669599 -259.770013 
L 275.485243 -259.770013 
L 275.300887 -259.770013 
L 275.116531 -259.770013 
L 274.932176 -259.770013 
L 274.74782 -259.770013 
L 274.563464 -259.770013 
L 274.379108 -259.770013 
L 274.194752 -259.770013 
L 274.010397 -259.770013 
L 273.826041 -259.770013 
L 273.641685 -259.770013 
L 273.457329 -259.770013 
L 273.272973 -259.770013 
L 273.088617 -259.770013 
L 272.904262 -259.770013 
L 272.719906 -259.770013 
L 272.53555 -259.770013 
L 272.351194 -259.770013 
L 272.166838 -259.770013 
L 271.982483 -259.770013 
L 271.798127 -259.770013 
L 271.613771 -259.770013 
L 271.429415 -259.770013 
L 271.245059 -259.770013 
L 271.060704 -259.770013 
L 270.876348 -259.770013 
L 270.691992 -259.770013 
L 270.507636 -259.770013 
L 270.32328 -259.770013 
L 270.138924 -259.770013 
L 269.954569 -259.770013 
L 269.770213 -259.770013 
L 269.585857 -259.770013 
L 269.401501 -259.770013 
L 269.217145 -259.770013 
L 269.03279 -259.770013 
L 268.848434 -259.770013 
L 268.664078 -259.770013 
L 268.479722 -259.770013 
L 268.295366 -259.770013 
L 268.111011 -259.770013 
L 267.926655 -259.770013 
L 267.742299 -259.770013 
L 267.557943 -259.770013 
L 267.373587 -259.770013 
L 267.189231 -259.770013 
L 267.004876 -259.770013 
L 266.82052 -259.770013 
L 266.636164 -259.770013 
L 266.451808 -259.770013 
L 266.267452 -259.770013 
L 266.083097 -259.770013 
L 265.898741 -259.770013 
L 265.714385 -259.770013 
L 265.530029 -259.770013 
L 265.345673 -259.770013 
L 265.161317 -259.770013 
L 264.976962 -259.770013 
L 264.792606 -259.770013 
L 264.60825 -259.770013 
L 264.423894 -259.770013 
L 264.239538 -259.770013 
L 264.055183 -259.770013 
L 263.870827 -259.770013 
L 263.686471 -259.770013 
L 263.502115 -259.770013 
L 263.317759 -259.770013 
L 263.133404 -259.770013 
L 262.949048 -259.770013 
L 262.764692 -259.770013 
L 262.580336 -259.770013 
L 262.39598 -259.770013 
L 262.211624 -259.770013 
L 262.027269 -259.770013 
L 261.842913 -259.770013 
L 261.658557 -259.770013 
L 261.474201 -259.770013 
L 261.289845 -259.770013 
L 261.10549 -259.770013 
L 260.921134 -259.770013 
L 260.736778 -259.770013 
L 260.552422 -259.770013 
L 260.368066 -259.770013 
L 260.18371 -259.770013 
L 259.999355 -259.770013 
L 259.814999 -259.770013 
L 259.630643 -259.770013 
L 259.446287 -259.770013 
L 259.261931 -259.770013 
L 259.077576 -259.770013 
L 258.89322 -259.770013 
L 258.708864 -259.770013 
L 258.524508 -259.770013 
L 258.340152 -259.770013 
L 258.155797 -259.770013 
L 257.971441 -259.770013 
L 257.787085 -259.770013 
L 257.602729 -259.770013 
L 257.418373 -259.770013 
L 257.234017 -259.770013 
L 257.049662 -259.770013 
L 256.865306 -259.770013 
L 256.68095 -259.770013 
L 256.496594 -259.770013 
L 256.312238 -259.770013 
L 256.127883 -259.770013 
L 255.943527 -259.770013 
L 255.759171 -259.770013 
L 255.574815 -259.770013 
L 255.390459 -259.770013 
L 255.206104 -259.770013 
L 255.021748 -259.770013 
L 254.837392 -259.770013 
L 254.653036 -259.770013 
L 254.46868 -259.770013 
L 254.284324 -259.770013 
L 254.099969 -259.770013 
L 253.915613 -259.770013 
L 253.731257 -259.770013 
L 253.546901 -259.770013 
L 253.362545 -259.770013 
L 253.17819 -259.770013 
L 252.993834 -259.770013 
L 252.809478 -259.770013 
L 252.625122 -259.770013 
L 252.440766 -259.770013 
L 252.25641 -259.770013 
L 252.072055 -259.770013 
L 251.887699 -259.770013 
L 251.703343 -259.770013 
L 251.518987 -259.770013 
L 251.334631 -259.770013 
L 251.150276 -259.770013 
L 250.96592 -259.770013 
L 250.781564 -259.770013 
L 250.597208 -259.770013 
L 250.412852 -259.770013 
L 250.228497 -259.770013 
L 250.044141 -259.770013 
L 249.859785 -259.770013 
L 249.675429 -259.770013 
L 249.491073 -259.770013 
L 249.306717 -259.770013 
L 249.122362 -259.770013 
L 248.938006 -259.770013 
L 248.75365 -259.770013 
L 248.569294 -259.770013 
L 248.384938 -259.770013 
L 248.200583 -259.770013 
L 248.016227 -259.770013 
L 247.831871 -259.770013 
L 247.647515 -259.770013 
L 247.463159 -259.770013 
L 247.278803 -259.770013 
L 247.094448 -259.770013 
L 246.910092 -259.770013 
L 246.725736 -259.770013 
L 246.54138 -259.770013 
L 246.357024 -259.770013 
L 246.172669 -259.770013 
L 245.988313 -259.770013 
L 245.803957 -259.770013 
L 245.619601 -259.770013 
L 245.435245 -259.770013 
L 245.25089 -259.770013 
L 245.066534 -259.770013 
L 244.882178 -259.770013 
L 244.697822 -259.770013 
L 244.513466 -259.770013 
L 244.32911 -259.770013 
L 244.144755 -259.770013 
L 243.960399 -259.770013 
L 243.776043 -259.770013 
L 243.591687 -259.770013 
L 243.407331 -259.770013 
L 243.222976 -259.770013 
L 243.03862 -259.770013 
L 242.854264 -259.770013 
L 242.669908 -259.770013 
L 242.485552 -259.770013 
L 242.301197 -259.770013 
L 242.116841 -259.770013 
L 241.932485 -259.770013 
L 241.748129 -259.770013 
L 241.563773 -259.770013 
L 241.379417 -259.770013 
L 241.195062 -259.770013 
L 241.010706 -259.770013 
L 240.82635 -259.770013 
L 240.641994 -259.770013 
L 240.457638 -259.770013 
L 240.273283 -259.770013 
L 240.088927 -259.770013 
L 239.904571 -259.770013 
L 239.720215 -259.770013 
L 239.535859 -259.770013 
L 239.351503 -259.770013 
L 239.167148 -259.770013 
L 238.982792 -259.770013 
L 238.798436 -259.770013 
L 238.61408 -259.770013 
L 238.429724 -259.770013 
L 238.245369 -259.770013 
L 238.061013 -259.770013 
L 237.876657 -259.770013 
L 237.692301 -259.770013 
L 237.507945 -259.770013 
L 237.32359 -259.770013 
L 237.139234 -259.770013 
L 236.954878 -259.770013 
L 236.770522 -259.770013 
L 236.586166 -259.770013 
L 236.40181 -259.770013 
L 236.217455 -259.770013 
L 236.033099 -259.770013 
L 235.848743 -259.770013 
L 235.664387 -259.770013 
L 235.480031 -259.770013 
L 235.295676 -259.770013 
L 235.11132 -259.770013 
L 234.926964 -259.770013 
L 234.742608 -259.770013 
L 234.558252 -259.770013 
L 234.373896 -259.770013 
L 234.189541 -259.770013 
L 234.005185 -259.770013 
L 233.820829 -259.770013 
L 233.636473 -259.770013 
L 233.452117 -259.770013 
L 233.267762 -259.770013 
L 233.083406 -259.770013 
L 232.89905 -259.770013 
L 232.714694 -259.770013 
L 232.530338 -259.770013 
L 232.345983 -259.770013 
L 232.161627 -259.770013 
L 231.977271 -259.770013 
L 231.792915 -259.770013 
L 231.608559 -259.770013 
L 231.424203 -259.770013 
L 231.239848 -259.770013 
L 231.055492 -259.770013 
L 230.871136 -259.770013 
L 230.68678 -259.770013 
L 230.502424 -259.770013 
L 230.318069 -259.770013 
L 230.133713 -259.770013 
L 229.949357 -259.770013 
L 229.765001 -259.770013 
L 229.580645 -259.770013 
L 229.39629 -259.770013 
L 229.211934 -259.770013 
L 229.027578 -259.770013 
L 228.843222 -259.770013 
L 228.658866 -259.770013 
L 228.47451 -259.770013 
L 228.290155 -259.770013 
L 228.105799 -259.770013 
L 227.921443 -259.770013 
L 227.737087 -259.770013 
L 227.552731 -259.770013 
L 227.368376 -259.770013 
L 227.18402 -259.770013 
L 226.999664 -259.770013 
L 226.815308 -259.770013 
L 226.630952 -259.770013 
L 226.446596 -259.770013 
L 226.262241 -259.770013 
L 226.077885 -259.770013 
L 225.893529 -259.770013 
L 225.709173 -259.770013 
L 225.524817 -259.770013 
L 225.340462 -259.770013 
L 225.156106 -259.770013 
L 224.97175 -259.770013 
L 224.787394 -259.770013 
L 224.603038 -259.770013 
L 224.418683 -259.770013 
L 224.234327 -259.770013 
L 224.049971 -259.770013 
L 223.865615 -259.770013 
L 223.681259 -259.770013 
L 223.496903 -259.770013 
L 223.312548 -259.770013 
L 223.128192 -259.770013 
L 222.943836 -259.770013 
L 222.75948 -259.770013 
L 222.575124 -259.770013 
L 222.390769 -259.770013 
L 222.206413 -259.770013 
L 222.022057 -259.770013 
L 221.837701 -259.770013 
L 221.653345 -259.770013 
L 221.468989 -259.770013 
L 221.284634 -259.770013 
L 221.100278 -259.770013 
L 220.915922 -259.770013 
L 220.731566 -259.770013 
L 220.54721 -259.770013 
L 220.362855 -259.770013 
L 220.178499 -259.770013 
L 219.994143 -259.770013 
L 219.809787 -259.770013 
L 219.625431 -259.770013 
L 219.441076 -259.770013 
L 219.25672 -259.770013 
L 219.072364 -259.770013 
L 218.888008 -259.770013 
L 218.703652 -259.770013 
L 218.519296 -259.770013 
L 218.334941 -259.770013 
L 218.150585 -259.770013 
L 217.966229 -259.770013 
L 217.781873 -259.770013 
L 217.597517 -259.770013 
L 217.413162 -259.770013 
L 217.228806 -259.770013 
L 217.04445 -259.770013 
L 216.860094 -259.770013 
L 216.675738 -259.770013 
L 216.491383 -259.770013 
L 216.307027 -259.770013 
L 216.122671 -259.770013 
L 215.938315 -259.770013 
L 215.753959 -259.770013 
L 215.569603 -259.770013 
L 215.385248 -259.770013 
L 215.200892 -259.770013 
L 215.016536 -259.770013 
L 214.83218 -259.770013 
L 214.647824 -259.770013 
L 214.463469 -259.770013 
L 214.279113 -259.770013 
L 214.094757 -259.770013 
L 213.910401 -259.770013 
L 213.726045 -259.770013 
L 213.541689 -259.770013 
L 213.357334 -259.770013 
L 213.172978 -259.770013 
L 212.988622 -259.770013 
L 212.804266 -259.770013 
L 212.61991 -259.770013 
L 212.435555 -259.770013 
L 212.251199 -259.770013 
L 212.066843 -259.770013 
L 211.882487 -259.770013 
L 211.698131 -259.770013 
L 211.513776 -259.770013 
L 211.32942 -259.770013 
L 211.145064 -259.770013 
L 210.960708 -259.770013 
L 210.776352 -259.770013 
L 210.591996 -259.770013 
L 210.407641 -259.770013 
L 210.223285 -259.770013 
L 210.038929 -259.770013 
L 209.854573 -259.770013 
L 209.670217 -259.770013 
L 209.485862 -259.770013 
L 209.301506 -259.770013 
L 209.11715 -259.770013 
L 208.932794 -259.770013 
L 208.748438 -259.770013 
L 208.564082 -259.770013 
L 208.379727 -259.770013 
L 208.195371 -259.770013 
L 208.011015 -259.770013 
z
" id="m58434197c5" style="stroke:#008000;stroke-opacity:0.3;"/>
    </defs>
    <g clip-path="url(#p1350b72a7a)">
     <use style="fill:#008000;fill-opacity:0.3;stroke:#008000;stroke-opacity:0.3;" x="0" xlink:href="#m58434197c5" y="345.6"/>
    </g>
   </g>
   <g id="matplotlib.axis_1">
    <g id="xtick_1">
     <g id="line2d_1">
      <defs>
       <path d="M 0 0 
L 0 3.5 
" id="m5d9cd83bcb" style="stroke:#000000;stroke-width:0.8;"/>
      </defs>
      <g>
       <use style="stroke:#000000;stroke-width:0.8;" x="60.526364" xlink:href="#m5d9cd83bcb" y="143.34"/>
      </g>
     </g>
    </g>
    <g id="xtick_2">
     <g id="line2d_2">
      <g>
       <use style="stroke:#000000;stroke-width:0.8;" x="119.179301" xlink:href="#m5d9cd83bcb" y="143.34"/>
      </g>
     </g>
    </g>
    <g id="xtick_3">
     <g id="line2d_3">
      <g>
       <use style="stroke:#000000;stroke-width:0.8;" x="177.832238" xlink:href="#m5d9cd83bcb" y="143.34"/>
      </g>
     </g>
    </g>
    <g id="xtick_4">
     <g id="line2d_4">
      <g>
       <use style="stroke:#000000;stroke-width:0.8;" x="236.485175" xlink:href="#m5d9cd83bcb" y="143.34"/>
      </g>
     </g>
    </g>
    <g id="xtick_5">
     <g id="line2d_5">
      <g>
       <use style="stroke:#000000;stroke-width:0.8;" x="295.138112" xlink:href="#m5d9cd83bcb" y="143.34"/>
      </g>
     </g>
    </g>
    <g id="xtick_6">
     <g id="line2d_6">
      <g>
       <use style="stroke:#000000;stroke-width:0.8;" x="353.791049" xlink:href="#m5d9cd83bcb" y="143.34"/>
      </g>
     </g>
    </g>
    <g id="xtick_7">
     <g id="line2d_7">
      <g>
       <use style="stroke:#000000;stroke-width:0.8;" x="412.443986" xlink:href="#m5d9cd83bcb" y="143.34"/>
      </g>
     </g>
    </g>
    <g id="text_1">
     <!-- time (ms) -->
     <defs>
      <path d="M 18.3125 70.21875 
L 18.3125 54.6875 
L 36.8125 54.6875 
L 36.8125 47.703125 
L 18.3125 47.703125 
L 18.3125 18.015625 
Q 18.3125 11.328125 20.140625 9.421875 
Q 21.96875 7.515625 27.59375 7.515625 
L 36.8125 7.515625 
L 36.8125 0 
L 27.59375 0 
Q 17.1875 0 13.234375 3.875 
Q 9.28125 7.765625 9.28125 18.015625 
L 9.28125 47.703125 
L 2.6875 47.703125 
L 2.6875 54.6875 
L 9.28125 54.6875 
L 9.28125 70.21875 
z
" id="DejaVuSans-74"/>
      <path d="M 9.421875 54.6875 
L 18.40625 54.6875 
L 18.40625 0 
L 9.421875 0 
z
M 9.421875 75.984375 
L 18.40625 75.984375 
L 18.40625 64.59375 
L 9.421875 64.59375 
z
" id="DejaVuSans-69"/>
      <path d="M 52 44.1875 
Q 55.375 50.25 60.0625 53.125 
Q 64.75 56 71.09375 56 
Q 79.640625 56 84.28125 50.015625 
Q 88.921875 44.046875 88.921875 33.015625 
L 88.921875 0 
L 79.890625 0 
L 79.890625 32.71875 
Q 79.890625 40.578125 77.09375 44.375 
Q 74.3125 48.1875 68.609375 48.1875 
Q 61.625 48.1875 57.5625 43.546875 
Q 53.515625 38.921875 53.515625 30.90625 
L 53.515625 0 
L 44.484375 0 
L 44.484375 32.71875 
Q 44.484375 40.625 41.703125 44.40625 
Q 38.921875 48.1875 33.109375 48.1875 
Q 26.21875 48.1875 22.15625 43.53125 
Q 18.109375 38.875 18.109375 30.90625 
L 18.109375 0 
L 9.078125 0 
L 9.078125 54.6875 
L 18.109375 54.6875 
L 18.109375 46.1875 
Q 21.1875 51.21875 25.484375 53.609375 
Q 29.78125 56 35.6875 56 
Q 41.65625 56 45.828125 52.96875 
Q 50 49.953125 52 44.1875 
" id="DejaVuSans-6d"/>
      <path d="M 56.203125 29.59375 
L 56.203125 25.203125 
L 14.890625 25.203125 
Q 15.484375 15.921875 20.484375 11.0625 
Q 25.484375 6.203125 34.421875 6.203125 
Q 39.59375 6.203125 44.453125 7.46875 
Q 49.3125 8.734375 54.109375 11.28125 
L 54.109375 2.78125 
Q 49.265625 0.734375 44.1875 -0.34375 
Q 39.109375 -1.421875 33.890625 -1.421875 
Q 20.796875 -1.421875 13.15625 6.1875 
Q 5.515625 13.8125 5.515625 26.8125 
Q 5.515625 40.234375 12.765625 48.109375 
Q 20.015625 56 32.328125 56 
Q 43.359375 56 49.78125 48.890625 
Q 56.203125 41.796875 56.203125 29.59375 
M 47.21875 32.234375 
Q 47.125 39.59375 43.09375 43.984375 
Q 39.0625 48.390625 32.421875 48.390625 
Q 24.90625 48.390625 20.390625 44.140625 
Q 15.875 39.890625 15.1875 32.171875 
z
" id="DejaVuSans-65"/>
      <path id="DejaVuSans-20"/>
      <path d="M 31 75.875 
Q 24.46875 64.65625 21.28125 53.65625 
Q 18.109375 42.671875 18.109375 31.390625 
Q 18.109375 20.125 21.3125 9.0625 
Q 24.515625 -2 31 -13.1875 
L 23.1875 -13.1875 
Q 15.875 -1.703125 12.234375 9.375 
Q 8.59375 20.453125 8.59375 31.390625 
Q 8.59375 42.28125 12.203125 53.3125 
Q 15.828125 64.359375 23.1875 75.875 
z
" id="DejaVuSans-28"/>
      <path d="M 44.28125 53.078125 
L 44.28125 44.578125 
Q 40.484375 46.53125 36.375 47.5 
Q 32.28125 48.484375 27.875 48.484375 
Q 21.1875 48.484375 17.84375 46.4375 
Q 14.5 44.390625 14.5 40.28125 
Q 14.5 37.15625 16.890625 35.375 
Q 19.28125 33.59375 26.515625 31.984375 
L 29.59375 31.296875 
Q 39.15625 29.25 43.1875 25.515625 
Q 47.21875 21.78125 47.21875 15.09375 
Q 47.21875 7.46875 41.1875 3.015625 
Q 35.15625 -1.421875 24.609375 -1.421875 
Q 20.21875 -1.421875 15.453125 -0.5625 
Q 10.6875 0.296875 5.421875 2 
L 5.421875 11.28125 
Q 10.40625 8.6875 15.234375 7.390625 
Q 20.0625 6.109375 24.8125 6.109375 
Q 31.15625 6.109375 34.5625 8.28125 
Q 37.984375 10.453125 37.984375 14.40625 
Q 37.984375 18.0625 35.515625 20.015625 
Q 33.0625 21.96875 24.703125 23.78125 
L 21.578125 24.515625 
Q 13.234375 26.265625 9.515625 29.90625 
Q 5.8125 33.546875 5.8125 39.890625 
Q 5.8125 47.609375 11.28125 51.796875 
Q 16.75 56 26.8125 56 
Q 31.78125 56 36.171875 55.265625 
Q 40.578125 54.546875 44.28125 53.078125 
" id="DejaVuSans-73"/>
      <path d="M 8.015625 75.875 
L 15.828125 75.875 
Q 23.140625 64.359375 26.78125 53.3125 
Q 30.421875 42.28125 30.421875 31.390625 
Q 30.421875 20.453125 26.78125 9.375 
Q 23.140625 -1.703125 15.828125 -13.1875 
L 8.015625 -13.1875 
Q 14.5 -2 17.703125 9.0625 
Q 20.90625 20.125 20.90625 31.390625 
Q 20.90625 42.671875 17.703125 53.65625 
Q 14.5 64.65625 8.015625 75.875 
" id="DejaVuSans-29"/>
     </defs>
     <g transform="translate(220.528281 154.938437)scale(0.1 -0.1)">
      <use xlink:href="#DejaVuSans-74"/>
      <use x="39.208984" xlink:href="#DejaVuSans-69"/>
      <use x="66.992188" xlink:href="#DejaVuSans-6d"/>
      <use x="164.404297" xlink:href="#DejaVuSans-65"/>
      <use x="225.927734" xlink:href="#DejaVuSans-20"/>
      <use x="257.714844" xlink:href="#DejaVuSans-28"/>
      <use x="296.728516" xlink:href="#DejaVuSans-6d"/>
      <use x="394.140625" xlink:href="#DejaVuSans-73"/>
      <use x="446.240234" xlink:href="#DejaVuSans-29"/>
     </g>
    </g>
   </g>
   <g id="matplotlib.axis_2">
    <g id="ytick_1">
     <g id="line2d_8">
      <defs>
       <path d="M 0 0 
L -3.5 0 
" id="m0669d8c4ab" style="stroke:#000000;stroke-width:0.8;"/>
      </defs>
      <g>
       <use style="stroke:#000000;stroke-width:0.8;" x="42.1" xlink:href="#m0669d8c4ab" y="138.111832"/>
      </g>
     </g>
     <g id="text_2">
      <!-- 1.0 -->
      <defs>
       <path d="M 10.59375 35.5 
L 73.1875 35.5 
L 73.1875 27.203125 
L 10.59375 27.203125 
z
" id="DejaVuSans-2212"/>
       <path d="M 12.40625 8.296875 
L 28.515625 8.296875 
L 28.515625 63.921875 
L 10.984375 60.40625 
L 10.984375 69.390625 
L 28.421875 72.90625 
L 38.28125 72.90625 
L 38.28125 8.296875 
L 54.390625 8.296875 
L 54.390625 0 
L 12.40625 0 
z
" id="DejaVuSans-31"/>
       <path d="M 10.6875 12.40625 
L 21 12.40625 
L 21 0 
L 10.6875 0 
z
" id="DejaVuSans-2e"/>
       <path d="M 31.78125 66.40625 
Q 24.171875 66.40625 20.328125 58.90625 
Q 16.5 51.421875 16.5 36.375 
Q 16.5 21.390625 20.328125 13.890625 
Q 24.171875 6.390625 31.78125 6.390625 
Q 39.453125 6.390625 43.28125 13.890625 
Q 47.125 21.390625 47.125 36.375 
Q 47.125 51.421875 43.28125 58.90625 
Q 39.453125 66.40625 31.78125 66.40625 
M 31.78125 74.21875 
Q 44.046875 74.21875 50.515625 64.515625 
Q 56.984375 54.828125 56.984375 36.375 
Q 56.984375 17.96875 50.515625 8.265625 
Q 44.046875 -1.421875 31.78125 -1.421875 
Q 19.53125 -1.421875 13.0625 8.265625 
Q 6.59375 17.96875 6.59375 36.375 
Q 6.59375 54.828125 13.0625 64.515625 
Q 19.53125 74.21875 31.78125 74.21875 
" id="DejaVuSans-30"/>
      </defs>
      <g transform="translate(10.817187 141.91105)scale(0.1 -0.1)">
       <use xlink:href="#DejaVuSans-2212"/>
       <use x="83.789062" xlink:href="#DejaVuSans-31"/>
       <use x="147.412109" xlink:href="#DejaVuSans-2e"/>
       <use x="179.199219" xlink:href="#DejaVuSans-30"/>
      </g>
     </g>
    </g>
    <g id="ytick_2">
     <g id="line2d_9">
      <g>
       <use style="stroke:#000000;stroke-width:0.8;" x="42.1" xlink:href="#m0669d8c4ab" y="111.970909"/>
      </g>
     </g>
     <g id="text_3">
      <!-- 0.5 -->
      <defs>
       <path d="M 10.796875 72.90625 
L 49.515625 72.90625 
L 49.515625 64.59375 
L 19.828125 64.59375 
L 19.828125 46.734375 
Q 21.96875 47.46875 24.109375 47.828125 
Q 26.265625 48.1875 28.421875 48.1875 
Q 40.625 48.1875 47.75 41.5 
Q 54.890625 34.8125 54.890625 23.390625 
Q 54.890625 11.625 47.5625 5.09375 
Q 40.234375 -1.421875 26.90625 -1.421875 
Q 22.3125 -1.421875 17.546875 -0.640625 
Q 12.796875 0.140625 7.71875 1.703125 
L 7.71875 11.625 
Q 12.109375 9.234375 16.796875 8.0625 
Q 21.484375 6.890625 26.703125 6.890625 
Q 35.15625 6.890625 40.078125 11.328125 
Q 45.015625 15.765625 45.015625 23.390625 
Q 45.015625 31 40.078125 35.4375 
Q 35.15625 39.890625 26.703125 39.890625 
Q 22.75 39.890625 18.8125 39.015625 
Q 14.890625 38.140625 10.796875 36.28125 
z
" id="DejaVuSans-35"/>
      </defs>
      <g transform="translate(10.817187 115.770128)scale(0.1 -0.1)">
       <use xlink:href="#DejaVuSans-2212"/>
       <use x="83.789062" xlink:href="#DejaVuSans-30"/>
       <use x="147.412109" xlink:href="#DejaVuSans-2e"/>
       <use x="179.199219" xlink:href="#DejaVuSans-35"/>
      </g>
     </g>
    </g>
    <g id="ytick_3">
     <g id="line2d_10">
      <g>
       <use style="stroke:#000000;stroke-width:0.8;" x="42.1" xlink:href="#m0669d8c4ab" y="85.829987"/>
      </g>
     </g>
     <g id="text_4">
      <!-- 0.0 -->
      <g transform="translate(19.196875 89.629206)scale(0.1 -0.1)">
       <use xlink:href="#DejaVuSans-30"/>
       <use x="63.623047" xlink:href="#DejaVuSans-2e"/>
       <use x="95.410156" xlink:href="#DejaVuSans-30"/>
      </g>
     </g>
    </g>
    <g id="ytick_4">
     <g id="line2d_11">
      <g>
       <use style="stroke:#000000;stroke-width:0.8;" x="42.1" xlink:href="#m0669d8c4ab" y="59.689065"/>
      </g>
     </g>
     <g id="text_5">
      <!-- 0.5 -->
      <g transform="translate(19.196875 63.488283)scale(0.1 -0.1)">
       <use xlink:href="#DejaVuSans-30"/>
       <use x="63.623047" xlink:href="#DejaVuSans-2e"/>
       <use x="95.410156" xlink:href="#DejaVuSans-35"/>
      </g>
     </g>
    </g>
    <g id="ytick_5">
     <g id="line2d_12">
      <g>
       <use style="stroke:#000000;stroke-width:0.8;" x="42.1" xlink:href="#m0669d8c4ab" y="33.548142"/>
      </g>
     </g>
     <g id="text_6">
      <!-- 1.0 -->
      <g transform="translate(19.196875 37.347361)scale(0.1 -0.1)">
       <use xlink:href="#DejaVuSans-31"/>
       <use x="63.623047" xlink:href="#DejaVuSans-2e"/>
       <use x="95.410156" xlink:href="#DejaVuSans-30"/>
      </g>
     </g>
    </g>
   </g>
   <g id="line2d_13">
    <path clip-path="url(#p1350b72a7a)" d="M 60.526364 44.225417 
L 62.185566 44.330523 
L 63.844768 44.645309 
L 65.503971 45.168186 
L 67.347529 45.989968 
L 69.191087 47.060239 
L 71.219001 48.516531 
L 73.246915 50.254395 
L 75.459185 52.455915 
L 77.85581 55.178393 
L 80.436792 58.470593 
L 83.202129 62.36777 
L 86.336178 67.179214 
L 90.023294 73.262826 
L 95.000901 81.942937 
L 105.324827 100.049764 
L 109.196299 106.311073 
L 112.330347 110.975395 
L 115.095685 114.717487 
L 117.676666 117.845557 
L 120.073292 120.40066 
L 122.285561 122.436447 
L 124.313475 124.01422 
L 126.341389 125.303848 
L 128.184947 126.217963 
L 130.028506 126.880171 
L 131.687708 127.257331 
L 133.34691 127.425175 
L 135.006113 127.382854 
L 136.665315 127.130583 
L 138.324517 126.669637 
L 140.168075 125.915598 
L 142.011634 124.911539 
L 143.855192 123.663721 
L 145.883106 122.018913 
L 148.095375 119.913607 
L 150.307645 117.502247 
L 152.704271 114.569744 
L 155.469608 110.81192 
L 158.419301 106.418785 
L 161.922061 100.781341 
L 166.346601 93.196533 
L 180.541999 68.475959 
L 184.044759 63.016974 
L 186.994452 58.813108 
L 189.759789 55.262273 
L 192.156415 52.530012 
L 194.368685 50.318766 
L 196.580955 48.426391 
L 198.608869 46.986401 
L 200.452427 45.931436 
L 202.295985 45.125325 
L 204.139543 44.573096 
L 205.798745 44.296039 
L 207.457948 44.228837 
L 209.11715 44.371829 
L 210.776352 44.724294 
L 212.61991 45.359396 
L 214.463469 46.246921 
L 216.307027 47.381332 
L 218.334941 48.905849 
L 220.362855 50.709002 
L 222.575124 52.977817 
L 224.97175 55.76789 
L 227.552731 59.125919 
L 230.318069 63.084723 
L 233.452117 67.953816 
L 237.32359 74.402989 
L 242.854264 84.114524 
L 251.334631 99.001833 
L 255.206104 105.337863 
L 258.524508 110.34865 
L 261.289845 114.150258 
L 263.870827 117.341071 
L 266.267452 119.959972 
L 268.479722 122.058788 
L 270.507636 123.69733 
L 272.53555 125.050119 
L 274.379108 126.023327 
L 276.222666 126.745843 
L 278.066224 127.213159 
L 279.725427 127.413105 
L 281.384629 127.402949 
L 283.043831 127.18274 
L 284.703034 126.753592 
L 286.546592 126.034381 
L 288.39015 125.064408 
L 290.233708 123.849723 
L 292.261622 122.240014 
L 294.473892 120.171085 
L 296.686162 117.793792 
L 299.082787 114.89523 
L 301.663769 111.432145 
L 304.613462 107.093928 
L 307.931866 101.811589 
L 312.17205 94.607612 
L 319.914994 80.882052 
L 325.445669 71.321883 
L 329.132785 65.367568 
L 332.266834 60.701665 
L 335.032171 56.957921 
L 337.613152 53.828114 
L 340.009778 51.271248 
L 342.222048 49.233721 
L 344.249962 47.654273 
L 346.277876 46.362905 
L 348.121434 45.447164 
L 349.964992 44.783297 
L 351.624194 44.404625 
L 353.283397 44.23526 
L 354.942599 44.276056 
L 356.601801 44.526809 
L 358.261004 44.98625 
L 360.104562 45.73864 
L 361.94812 46.741087 
L 363.791678 47.987338 
L 365.819592 49.630487 
L 368.031862 51.734075 
L 370.244132 54.143827 
L 372.640757 57.074729 
L 375.406094 60.830911 
L 378.355787 65.222559 
L 381.858548 70.858624 
L 386.283087 78.442338 
L 400.478485 103.164525 
L 403.981246 108.625066 
L 406.930939 112.830556 
L 409.696276 116.383151 
L 412.092901 119.117103 
L 414.305171 121.330031 
L 416.517441 123.224188 
L 418.545355 124.665886 
L 420.388913 125.722455 
L 422.232471 126.530208 
L 424.076029 127.084106 
L 425.735232 127.36268 
L 427.394434 127.431406 
L 429.053636 127.289936 
L 429.053636 127.289936 
" style="fill:none;stroke:#1f77b4;stroke-linecap:square;stroke-width:1.5;"/>
   </g>
   <g id="line2d_14">
    <path clip-path="url(#p1350b72a7a)" d="M 134.084334 143.34 
L 134.084334 28.32 
" style="fill:none;stroke:#ff0000;stroke-dasharray:5.6,2.4;stroke-dashoffset:0;stroke-width:1.5;"/>
   </g>
   <g id="line2d_15">
    <path clip-path="url(#p1350b72a7a)" d="M 392.182474 143.34 
L 392.182474 28.32 
" style="fill:none;stroke:#ffa500;stroke-dasharray:5.6,2.4;stroke-dashoffset:0;stroke-width:1.5;"/>
   </g>
   <g id="line2d_16">
    <path clip-path="url(#p1350b72a7a)" d="M 300.004566 143.34 
L 300.004566 28.32 
" style="fill:none;stroke:#008000;stroke-dasharray:5.6,2.4;stroke-dashoffset:0;stroke-width:1.5;"/>
   </g>
   <g id="patch_3">
    <path d="M 42.1 143.34 
L 42.1 28.32 
" style="fill:none;stroke:#000000;stroke-linecap:square;stroke-linejoin:miter;stroke-width:0.8;"/>
   </g>
   <g id="patch_4">
    <path d="M 447.48 143.34 
L 447.48 28.32 
" style="fill:none;stroke:#000000;stroke-linecap:square;stroke-linejoin:miter;stroke-width:0.8;"/>
   </g>
   <g id="patch_5">
    <path d="M 42.1 143.34 
L 447.48 143.34 
" style="fill:none;stroke:#000000;stroke-linecap:square;stroke-linejoin:miter;stroke-width:0.8;"/>
   </g>
   <g id="patch_6">
    <path d="M 42.1 28.32 
L 447.48 28.32 
" style="fill:none;stroke:#000000;stroke-linecap:square;stroke-linejoin:miter;stroke-width:0.8;"/>
   </g>
   <g id="text_7">
    <!-- $ V \left( t \right)$ -->
    <defs>
     <path d="M 20.609375 0 
L 7.8125 72.90625 
L 17.484375 72.90625 
L 28.078125 10.203125 
L 63.484375 72.90625 
L 74.21875 72.90625 
L 32.078125 0 
z
" id="DejaVuSans-Oblique-56"/>
     <path d="M 42.28125 54.6875 
L 40.921875 47.703125 
L 23 47.703125 
L 17.1875 18.015625 
Q 16.890625 16.359375 16.75 15.234375 
Q 16.609375 14.109375 16.609375 13.484375 
Q 16.609375 10.359375 18.484375 8.9375 
Q 20.359375 7.515625 24.515625 7.515625 
L 33.59375 7.515625 
L 32.078125 0 
L 23.484375 0 
Q 15.484375 0 11.546875 3.125 
Q 7.625 6.25 7.625 12.59375 
Q 7.625 13.71875 7.765625 15.0625 
Q 7.90625 16.40625 8.203125 18.015625 
L 14.015625 47.703125 
L 6.390625 47.703125 
L 7.8125 54.6875 
L 15.28125 54.6875 
L 18.3125 70.21875 
L 27.296875 70.21875 
L 24.3125 54.6875 
z
" id="DejaVuSans-Oblique-74"/>
    </defs>
    <g transform="translate(233.63 22.32)scale(0.12 -0.12)">
     <use transform="translate(0 0.125)" xlink:href="#DejaVuSans-Oblique-56"/>
     <use transform="translate(68.408203 0.125)" xlink:href="#DejaVuSans-28"/>
     <use transform="translate(107.421875 0.125)" xlink:href="#DejaVuSans-Oblique-74"/>
     <use transform="translate(146.630859 0.125)" xlink:href="#DejaVuSans-29"/>
    </g>
   </g>
  </g>
  <g id="axes_2">
   <g id="patch_7">
    <path d="M 42.1 303.64 
L 447.48 303.64 
L 447.48 188.62 
L 42.1 188.62 
z
" style="fill:#ffffff;"/>
   </g>
   <g id="matplotlib.axis_3">
    <g id="xtick_8">
     <g id="line2d_17">
      <g>
       <use style="stroke:#000000;stroke-width:0.8;" x="60.526364" xlink:href="#m5d9cd83bcb" y="303.64"/>
      </g>
     </g>
     <g id="text_8">
      <!-- 0 -->
      <g transform="translate(57.345114 318.238437)scale(0.1 -0.1)">
       <use xlink:href="#DejaVuSans-30"/>
      </g>
     </g>
    </g>
    <g id="xtick_9">
     <g id="line2d_18">
      <g>
       <use style="stroke:#000000;stroke-width:0.8;" x="119.179301" xlink:href="#m5d9cd83bcb" y="303.64"/>
      </g>
     </g>
     <g id="text_9">
      <!-- 2 -->
      <defs>
       <path d="M 19.1875 8.296875 
L 53.609375 8.296875 
L 53.609375 0 
L 7.328125 0 
L 7.328125 8.296875 
Q 12.9375 14.109375 22.625 23.890625 
Q 32.328125 33.6875 34.8125 36.53125 
Q 39.546875 41.84375 41.421875 45.53125 
Q 43.3125 49.21875 43.3125 52.78125 
Q 43.3125 58.59375 39.234375 62.25 
Q 35.15625 65.921875 28.609375 65.921875 
Q 23.96875 65.921875 18.8125 64.3125 
Q 13.671875 62.703125 7.8125 59.421875 
L 7.8125 69.390625 
Q 13.765625 71.78125 18.9375 73 
Q 24.125 74.21875 28.421875 74.21875 
Q 39.75 74.21875 46.484375 68.546875 
Q 53.21875 62.890625 53.21875 53.421875 
Q 53.21875 48.921875 51.53125 44.890625 
Q 49.859375 40.875 45.40625 35.40625 
Q 44.1875 33.984375 37.640625 27.21875 
Q 31.109375 20.453125 19.1875 8.296875 
" id="DejaVuSans-32"/>
      </defs>
      <g transform="translate(115.998051 318.238437)scale(0.1 -0.1)">
       <use xlink:href="#DejaVuSans-32"/>
      </g>
     </g>
    </g>
    <g id="xtick_10">
     <g id="line2d_19">
      <g>
       <use style="stroke:#000000;stroke-width:0.8;" x="177.832238" xlink:href="#m5d9cd83bcb" y="303.64"/>
      </g>
     </g>
     <g id="text_10">
      <!-- 4 -->
      <defs>
       <path d="M 37.796875 64.3125 
L 12.890625 25.390625 
L 37.796875 25.390625 
z
M 35.203125 72.90625 
L 47.609375 72.90625 
L 47.609375 25.390625 
L 58.015625 25.390625 
L 58.015625 17.1875 
L 47.609375 17.1875 
L 47.609375 0 
L 37.796875 0 
L 37.796875 17.1875 
L 4.890625 17.1875 
L 4.890625 26.703125 
z
" id="DejaVuSans-34"/>
      </defs>
      <g transform="translate(174.650988 318.238437)scale(0.1 -0.1)">
       <use xlink:href="#DejaVuSans-34"/>
      </g>
     </g>
    </g>
    <g id="xtick_11">
     <g id="line2d_20">
      <g>
       <use style="stroke:#000000;stroke-width:0.8;" x="236.485175" xlink:href="#m5d9cd83bcb" y="303.64"/>
      </g>
     </g>
     <g id="text_11">
      <!-- 6 -->
      <defs>
       <path d="M 33.015625 40.375 
Q 26.375 40.375 22.484375 35.828125 
Q 18.609375 31.296875 18.609375 23.390625 
Q 18.609375 15.53125 22.484375 10.953125 
Q 26.375 6.390625 33.015625 6.390625 
Q 39.65625 6.390625 43.53125 10.953125 
Q 47.40625 15.53125 47.40625 23.390625 
Q 47.40625 31.296875 43.53125 35.828125 
Q 39.65625 40.375 33.015625 40.375 
M 52.59375 71.296875 
L 52.59375 62.3125 
Q 48.875 64.0625 45.09375 64.984375 
Q 41.3125 65.921875 37.59375 65.921875 
Q 27.828125 65.921875 22.671875 59.328125 
Q 17.53125 52.734375 16.796875 39.40625 
Q 19.671875 43.65625 24.015625 45.921875 
Q 28.375 48.1875 33.59375 48.1875 
Q 44.578125 48.1875 50.953125 41.515625 
Q 57.328125 34.859375 57.328125 23.390625 
Q 57.328125 12.15625 50.6875 5.359375 
Q 44.046875 -1.421875 33.015625 -1.421875 
Q 20.359375 -1.421875 13.671875 8.265625 
Q 6.984375 17.96875 6.984375 36.375 
Q 6.984375 53.65625 15.1875 63.9375 
Q 23.390625 74.21875 37.203125 74.21875 
Q 40.921875 74.21875 44.703125 73.484375 
Q 48.484375 72.75 52.59375 71.296875 
" id="DejaVuSans-36"/>
      </defs>
      <g transform="translate(233.303925 318.238437)scale(0.1 -0.1)">
       <use xlink:href="#DejaVuSans-36"/>
      </g>
     </g>
    </g>
    <g id="xtick_12">
     <g id="line2d_21">
      <g>
       <use style="stroke:#000000;stroke-width:0.8;" x="295.138112" xlink:href="#m5d9cd83bcb" y="303.64"/>
      </g>
     </g>
     <g id="text_12">
      <!-- 8 -->
      <defs>
       <path d="M 31.78125 34.625 
Q 24.75 34.625 20.71875 30.859375 
Q 16.703125 27.09375 16.703125 20.515625 
Q 16.703125 13.921875 20.71875 10.15625 
Q 24.75 6.390625 31.78125 6.390625 
Q 38.8125 6.390625 42.859375 10.171875 
Q 46.921875 13.96875 46.921875 20.515625 
Q 46.921875 27.09375 42.890625 30.859375 
Q 38.875 34.625 31.78125 34.625 
M 21.921875 38.8125 
Q 15.578125 40.375 12.03125 44.71875 
Q 8.5 49.078125 8.5 55.328125 
Q 8.5 64.0625 14.71875 69.140625 
Q 20.953125 74.21875 31.78125 74.21875 
Q 42.671875 74.21875 48.875 69.140625 
Q 55.078125 64.0625 55.078125 55.328125 
Q 55.078125 49.078125 51.53125 44.71875 
Q 48 40.375 41.703125 38.8125 
Q 48.828125 37.15625 52.796875 32.3125 
Q 56.78125 27.484375 56.78125 20.515625 
Q 56.78125 9.90625 50.3125 4.234375 
Q 43.84375 -1.421875 31.78125 -1.421875 
Q 19.734375 -1.421875 13.25 4.234375 
Q 6.78125 9.90625 6.78125 20.515625 
Q 6.78125 27.484375 10.78125 32.3125 
Q 14.796875 37.15625 21.921875 38.8125 
M 18.3125 54.390625 
Q 18.3125 48.734375 21.84375 45.5625 
Q 25.390625 42.390625 31.78125 42.390625 
Q 38.140625 42.390625 41.71875 45.5625 
Q 45.3125 48.734375 45.3125 54.390625 
Q 45.3125 60.0625 41.71875 63.234375 
Q 38.140625 66.40625 31.78125 66.40625 
Q 25.390625 66.40625 21.84375 63.234375 
Q 18.3125 60.0625 18.3125 54.390625 
" id="DejaVuSans-38"/>
      </defs>
      <g transform="translate(291.956862 318.238437)scale(0.1 -0.1)">
       <use xlink:href="#DejaVuSans-38"/>
      </g>
     </g>
    </g>
    <g id="xtick_13">
     <g id="line2d_22">
      <g>
       <use style="stroke:#000000;stroke-width:0.8;" x="353.791049" xlink:href="#m5d9cd83bcb" y="303.64"/>
      </g>
     </g>
     <g id="text_13">
      <!-- 10 -->
      <g transform="translate(347.428549 318.238437)scale(0.1 -0.1)">
       <use xlink:href="#DejaVuSans-31"/>
       <use x="63.623047" xlink:href="#DejaVuSans-30"/>
      </g>
     </g>
    </g>
    <g id="xtick_14">
     <g id="line2d_23">
      <g>
       <use style="stroke:#000000;stroke-width:0.8;" x="412.443986" xlink:href="#m5d9cd83bcb" y="303.64"/>
      </g>
     </g>
     <g id="text_14">
      <!-- 12 -->
      <g transform="translate(406.081486 318.238437)scale(0.1 -0.1)">
       <use xlink:href="#DejaVuSans-31"/>
       <use x="63.623047" xlink:href="#DejaVuSans-32"/>
      </g>
     </g>
    </g>
    <g id="text_15">
     <!-- time (ms) -->
     <g transform="translate(220.528281 331.916562)scale(0.1 -0.1)">
      <use xlink:href="#DejaVuSans-74"/>
      <use x="39.208984" xlink:href="#DejaVuSans-69"/>
      <use x="66.992188" xlink:href="#DejaVuSans-6d"/>
      <use x="164.404297" xlink:href="#DejaVuSans-65"/>
      <use x="225.927734" xlink:href="#DejaVuSans-20"/>
      <use x="257.714844" xlink:href="#DejaVuSans-28"/>
      <use x="296.728516" xlink:href="#DejaVuSans-6d"/>
      <use x="394.140625" xlink:href="#DejaVuSans-73"/>
      <use x="446.240234" xlink:href="#DejaVuSans-29"/>
     </g>
    </g>
   </g>
   <g id="matplotlib.axis_4">
    <g id="ytick_6">
     <g id="line2d_24">
      <g>
       <use style="stroke:#000000;stroke-width:0.8;" x="42.1" xlink:href="#m0669d8c4ab" y="298.411832"/>
      </g>
     </g>
     <g id="text_16">
      <!-- 1.0 -->
      <g transform="translate(10.817187 302.21105)scale(0.1 -0.1)">
       <use xlink:href="#DejaVuSans-2212"/>
       <use x="83.789062" xlink:href="#DejaVuSans-31"/>
       <use x="147.412109" xlink:href="#DejaVuSans-2e"/>
       <use x="179.199219" xlink:href="#DejaVuSans-30"/>
      </g>
     </g>
    </g>
    <g id="ytick_7">
     <g id="line2d_25">
      <g>
       <use style="stroke:#000000;stroke-width:0.8;" x="42.1" xlink:href="#m0669d8c4ab" y="272.270909"/>
      </g>
     </g>
     <g id="text_17">
      <!-- 0.5 -->
      <g transform="translate(10.817187 276.070128)scale(0.1 -0.1)">
       <use xlink:href="#DejaVuSans-2212"/>
       <use x="83.789062" xlink:href="#DejaVuSans-30"/>
       <use x="147.412109" xlink:href="#DejaVuSans-2e"/>
       <use x="179.199219" xlink:href="#DejaVuSans-35"/>
      </g>
     </g>
    </g>
    <g id="ytick_8">
     <g id="line2d_26">
      <g>
       <use style="stroke:#000000;stroke-width:0.8;" x="42.1" xlink:href="#m0669d8c4ab" y="246.129987"/>
      </g>
     </g>
     <g id="text_18">
      <!-- 0.0 -->
      <g transform="translate(19.196875 249.929206)scale(0.1 -0.1)">
       <use xlink:href="#DejaVuSans-30"/>
       <use x="63.623047" xlink:href="#DejaVuSans-2e"/>
       <use x="95.410156" xlink:href="#DejaVuSans-30"/>
      </g>
     </g>
    </g>
    <g id="ytick_9">
     <g id="line2d_27">
      <g>
       <use style="stroke:#000000;stroke-width:0.8;" x="42.1" xlink:href="#m0669d8c4ab" y="219.989065"/>
      </g>
     </g>
     <g id="text_19">
      <!-- 0.5 -->
      <g transform="translate(19.196875 223.788283)scale(0.1 -0.1)">
       <use xlink:href="#DejaVuSans-30"/>
       <use x="63.623047" xlink:href="#DejaVuSans-2e"/>
       <use x="95.410156" xlink:href="#DejaVuSans-35"/>
      </g>
     </g>
    </g>
    <g id="ytick_10">
     <g id="line2d_28">
      <g>
       <use style="stroke:#000000;stroke-width:0.8;" x="42.1" xlink:href="#m0669d8c4ab" y="193.848142"/>
      </g>
     </g>
     <g id="text_20">
      <!-- 1.0 -->
      <g transform="translate(19.196875 197.647361)scale(0.1 -0.1)">
       <use xlink:href="#DejaVuSans-31"/>
       <use x="63.623047" xlink:href="#DejaVuSans-2e"/>
       <use x="95.410156" xlink:href="#DejaVuSans-30"/>
      </g>
     </g>
    </g>
   </g>
   <g id="line2d_29">
    <path clip-path="url(#p4b56b99ba5)" d="M 60.526364 246.129987 
L 67.71624 230.2763 
L 71.587712 222.267018 
L 74.721761 216.253523 
L 77.487099 211.390978 
L 80.06808 207.290893 
L 82.464706 203.907622 
L 84.676975 201.178748 
L 86.704889 199.031332 
L 88.548447 197.387178 
L 90.392006 196.047041 
L 92.051208 195.107801 
L 93.71041 194.426356 
L 95.369613 194.00615 
L 96.844459 193.85369 
L 98.319306 193.909946 
L 99.794152 194.174693 
L 101.268999 194.646873 
L 102.928201 195.423644 
L 104.587403 196.456615 
L 106.246606 197.740566 
L 108.090164 199.453606 
L 110.118078 201.673737 
L 112.145992 204.229343 
L 114.358261 207.377157 
L 116.754887 211.179012 
L 119.335868 215.683945 
L 122.285561 221.284543 
L 125.788322 228.442416 
L 130.212861 238.03127 
L 143.117768 266.366302 
L 146.620529 273.347137 
L 149.570222 278.757089 
L 152.151203 283.066544 
L 154.547829 286.665105 
L 156.760099 289.608542 
L 158.788013 291.964307 
L 160.815927 293.9742 
L 162.659485 295.488423 
L 164.318687 296.588235 
L 165.977889 297.433101 
L 167.637092 298.018753 
L 169.111938 298.319298 
L 170.586785 298.411475 
L 172.061631 298.294916 
L 173.536478 297.970087 
L 175.011324 297.438284 
L 176.670527 296.595283 
L 178.329729 295.4973 
L 180.173287 293.985057 
L 182.016845 292.174334 
L 184.044759 289.851326 
L 186.257029 286.941527 
L 188.469299 283.665262 
L 191.05028 279.419199 
L 193.815617 274.419949 
L 196.949666 268.27851 
L 200.636782 260.551435 
L 205.983101 248.76255 
L 214.647824 229.638804 
L 218.519296 221.672518 
L 221.653345 215.705854 
L 224.418683 210.892853 
L 226.999664 206.845327 
L 229.39629 203.515751 
L 231.608559 200.84012 
L 233.636473 198.744194 
L 235.480031 197.148738 
L 237.32359 195.858788 
L 238.982792 194.965729 
L 240.641994 194.331183 
L 242.116841 193.986787 
L 243.591687 193.850574 
L 245.066534 193.92309 
L 246.54138 194.204043 
L 248.016227 194.692313 
L 249.675429 195.486966 
L 251.334631 196.537498 
L 252.993834 197.838601 
L 254.837392 199.570115 
L 256.865306 201.809723 
L 258.89322 204.38378 
L 261.10549 207.550389 
L 263.502115 211.370845 
L 266.267452 216.231415 
L 269.217145 221.876416 
L 272.719906 229.074705 
L 277.328801 239.103244 
L 289.311929 265.457656 
L 292.81469 272.504249 
L 295.764383 277.984348 
L 298.52972 282.661927 
L 300.926345 286.303579 
L 303.138615 289.290184 
L 305.166529 291.688041 
L 307.194443 293.74211 
L 309.038001 295.298023 
L 310.697204 296.436379 
L 312.356406 297.320556 
L 314.015608 297.946087 
L 315.490455 298.282395 
L 316.965301 298.410482 
L 318.440148 298.329838 
L 319.914994 298.040783 
L 321.389841 297.544473 
L 323.049043 296.740887 
L 324.708245 295.681584 
L 326.367448 294.371916 
L 328.211006 292.631182 
L 330.23892 290.381854 
L 332.266834 287.798596 
L 334.479104 284.622618 
L 336.875729 280.792896 
L 339.641066 275.922901 
L 342.590759 270.269482 
L 346.09352 263.06357 
L 350.702415 253.029189 
L 362.501187 227.06678 
L 366.003948 220.001605 
L 369.137997 214.173679 
L 371.903334 209.506099 
L 374.29996 205.874162 
L 376.512229 202.897295 
L 378.540143 200.508939 
L 380.568057 198.464846 
L 382.411615 196.918352 
L 384.070818 195.788707 
L 385.73002 194.913417 
L 387.389222 194.296905 
L 388.864069 193.968687 
L 390.338915 193.848725 
L 391.813762 193.937499 
L 393.288608 194.234652 
L 394.763455 194.739 
L 396.422657 195.551515 
L 398.08186 196.619582 
L 399.741062 197.937807 
L 401.58462 199.687752 
L 403.612534 201.946783 
L 405.640448 204.539229 
L 407.852718 207.724556 
L 410.249343 211.56352 
L 413.014681 216.442912 
L 415.964374 222.104713 
L 419.467134 229.318206 
L 424.076029 239.358368 
L 429.053636 250.485436 
L 429.053636 250.485436 
" style="fill:none;stroke:#1f77b4;stroke-linecap:square;stroke-width:1.5;"/>
   </g>
   <g id="line2d_30">
    <defs>
     <path d="M 0 3 
C 0.795609 3 1.55874 2.683901 2.12132 2.12132 
C 2.683901 1.55874 3 0.795609 3 0 
C 3 -0.795609 2.683901 -1.55874 2.12132 -2.12132 
C 1.55874 -2.683901 0.795609 -3 0 -3 
C -0.795609 -3 -1.55874 -2.683901 -2.12132 -2.12132 
C -2.683901 -1.55874 -3 -0.795609 -3 0 
C -3 0.795609 -2.683901 1.55874 -2.12132 2.12132 
C -1.55874 2.683901 -0.795609 3 0 3 
z
" id="m4a3fbbf84c" style="stroke:#ff0000;"/>
    </defs>
    <g clip-path="url(#p4b56b99ba5)">
     <use style="fill:#ff0000;stroke:#ff0000;" x="134.084334" xlink:href="#m4a3fbbf84c" y="246.671672"/>
    </g>
   </g>
   <g id="line2d_31">
    <path clip-path="url(#p4b56b99ba5)" d="M 134.084334 303.64 
L 134.084334 188.62 
" style="fill:none;stroke:#ff0000;stroke-dasharray:5.6,2.4;stroke-dashoffset:0;stroke-width:1.5;"/>
   </g>
   <g id="line2d_32">
    <defs>
     <path d="M 0 3 
C 0.795609 3 1.55874 2.683901 2.12132 2.12132 
C 2.683901 1.55874 3 0.795609 3 0 
C 3 -0.795609 2.683901 -1.55874 2.12132 -2.12132 
C 1.55874 -2.683901 0.795609 -3 0 -3 
C -0.795609 -3 -1.55874 -2.683901 -2.12132 -2.12132 
C -2.683901 -1.55874 -3 -0.795609 -3 0 
C -3 0.795609 -2.683901 1.55874 -2.12132 2.12132 
C -1.55874 2.683901 -0.795609 3 0 3 
z
" id="m4ed22e925b" style="stroke:#ffa500;"/>
    </defs>
    <g clip-path="url(#p4b56b99ba5)">
     <use style="fill:#ffa500;stroke:#ffa500;" x="392.182474" xlink:href="#m4ed22e925b" y="193.992283"/>
    </g>
   </g>
   <g id="line2d_33">
    <path clip-path="url(#p4b56b99ba5)" d="M 392.182474 303.64 
L 392.182474 188.62 
" style="fill:none;stroke:#ffa500;stroke-dasharray:5.6,2.4;stroke-dashoffset:0;stroke-width:1.5;"/>
   </g>
   <g id="line2d_34">
    <defs>
     <path d="M 0 3 
C 0.795609 3 1.55874 2.683901 2.12132 2.12132 
C 2.683901 1.55874 3 0.795609 3 0 
C 3 -0.795609 2.683901 -1.55874 2.12132 -2.12132 
C 1.55874 -2.683901 0.795609 -3 0 -3 
C -0.795609 -3 -1.55874 -2.683901 -2.12132 -2.12132 
C -2.683901 -1.55874 -3 -0.795609 -3 0 
C -3 0.795609 -2.683901 1.55874 -2.12132 2.12132 
C -1.55874 2.683901 -0.795609 3 0 3 
z
" id="mbe0d880a1b" style="stroke:#008000;"/>
    </defs>
    <g clip-path="url(#p4b56b99ba5)">
     <use style="fill:#008000;stroke:#008000;" x="300.004566" xlink:href="#mbe0d880a1b" y="284.951038"/>
    </g>
   </g>
   <g id="line2d_35">
    <path clip-path="url(#p4b56b99ba5)" d="M 300.004566 303.64 
L 300.004566 188.62 
" style="fill:none;stroke:#008000;stroke-dasharray:5.6,2.4;stroke-dashoffset:0;stroke-width:1.5;"/>
   </g>
   <g id="patch_8">
    <path d="M 42.1 303.64 
L 42.1 188.62 
" style="fill:none;stroke:#000000;stroke-linecap:square;stroke-linejoin:miter;stroke-width:0.8;"/>
   </g>
   <g id="patch_9">
    <path d="M 447.48 303.64 
L 447.48 188.62 
" style="fill:none;stroke:#000000;stroke-linecap:square;stroke-linejoin:miter;stroke-width:0.8;"/>
   </g>
   <g id="patch_10">
    <path d="M 42.1 303.64 
L 447.48 303.64 
" style="fill:none;stroke:#000000;stroke-linecap:square;stroke-linejoin:miter;stroke-width:0.8;"/>
   </g>
   <g id="patch_11">
    <path d="M 42.1 188.62 
L 447.48 188.62 
" style="fill:none;stroke:#000000;stroke-linecap:square;stroke-linejoin:miter;stroke-width:0.8;"/>
   </g>
   <g id="text_21">
    <!-- $ \int V \left(t \right) \cdot dt $  -->
    <defs>
     <path d="M 33.34375 86.328125 
Q 33.9375 97.859375 39.5 102.4375 
Q 45.0625 107.03125 50.28125 107.03125 
Q 55.515625 107.03125 59.890625 102.734375 
Q 64.265625 98.4375 65.625 88.71875 
L 55.375 87.703125 
Q 54.203125 96.6875 50.296875 96.6875 
Q 45.40625 96.6875 44.828125 84.578125 
L 40.328125 -9.328125 
Q 39.796875 -20.84375 34.171875 -25.4375 
Q 28.5625 -30.03125 23.390625 -30.03125 
Q 18.171875 -30.03125 13.796875 -25.734375 
Q 9.421875 -21.4375 8.0625 -11.71875 
L 18.3125 -10.6875 
Q 19.484375 -19.671875 23.390625 -19.671875 
Q 28.265625 -19.671875 28.859375 -7.625 
z
" id="DejaVuSansDisplay-222b"/>
     <path d="M 10.6875 40.921875 
L 21 40.921875 
L 21 28.515625 
L 10.6875 28.515625 
z
" id="DejaVuSans-22c5"/>
     <path d="M 41.796875 8.203125 
Q 38.1875 3.46875 33.25 1.015625 
Q 28.328125 -1.421875 22.3125 -1.421875 
Q 14.109375 -1.421875 9.34375 4.171875 
Q 4.59375 9.765625 4.59375 19.484375 
Q 4.59375 27.59375 7.46875 34.9375 
Q 10.359375 42.28125 15.828125 48.09375 
Q 19.4375 51.953125 23.96875 53.96875 
Q 28.515625 56 33.5 56 
Q 38.765625 56 42.796875 53.453125 
Q 46.828125 50.921875 49.03125 46.1875 
L 54.890625 75.984375 
L 63.921875 75.984375 
L 49.125 0 
L 40.09375 0 
z
M 13.921875 21.09375 
Q 13.921875 14.015625 17.109375 10.0625 
Q 20.3125 6.109375 25.984375 6.109375 
Q 30.171875 6.109375 33.765625 8.125 
Q 37.359375 10.15625 40.09375 14.109375 
Q 42.96875 18.21875 44.625 23.578125 
Q 46.296875 28.953125 46.296875 34.1875 
Q 46.296875 40.96875 43.09375 44.765625 
Q 39.890625 48.578125 34.28125 48.578125 
Q 30.03125 48.578125 26.359375 46.578125 
Q 22.703125 44.578125 20.125 40.828125 
Q 17.28125 36.765625 15.59375 31.390625 
Q 13.921875 26.03125 13.921875 21.09375 
" id="DejaVuSans-Oblique-64"/>
    </defs>
    <g transform="translate(216.89 182.62)scale(0.12 -0.12)">
     <use transform="translate(0 0.96875)" xlink:href="#DejaVuSansDisplay-222b"/>
     <use transform="translate(73.632812 0.96875)" xlink:href="#DejaVuSans-Oblique-56"/>
     <use transform="translate(142.041016 0.96875)" xlink:href="#DejaVuSans-28"/>
     <use transform="translate(181.054688 0.96875)" xlink:href="#DejaVuSans-Oblique-74"/>
     <use transform="translate(220.263672 0.96875)" xlink:href="#DejaVuSans-29"/>
     <use transform="translate(278.759766 0.96875)" xlink:href="#DejaVuSans-22c5"/>
     <use transform="translate(330.029297 0.96875)" xlink:href="#DejaVuSans-Oblique-64"/>
     <use transform="translate(393.505859 0.96875)" xlink:href="#DejaVuSans-Oblique-74"/>
     <use transform="translate(432.714844 0.96875)" xlink:href="#DejaVuSans-20"/>
    </g>
   </g>
  </g>
 </g>
 <defs>
  <clipPath id="p1350b72a7a">
   <rect height="115.02" width="405.38" x="42.1" y="28.32"/>
  </clipPath>
  <clipPath id="p4b56b99ba5">
   <rect height="115.02" width="405.38" x="42.1" y="188.62"/>
  </clipPath>
 </defs>
</svg>
