<?xml version="1.0" encoding="UTF-8" standalone="no"?>
<!-- Created with Inkscape (http://www.inkscape.org/) -->

<svg
   xmlns:dc="http://purl.org/dc/elements/1.1/"
   xmlns:cc="http://creativecommons.org/ns#"
   xmlns:rdf="http://www.w3.org/1999/02/22-rdf-syntax-ns#"
   xmlns:svg="http://www.w3.org/2000/svg"
   xmlns="http://www.w3.org/2000/svg"
   xmlns:sodipodi="http://sodipodi.sourceforge.net/DTD/sodipodi-0.dtd"
   xmlns:inkscape="http://www.inkscape.org/namespaces/inkscape"
   width="155.15601mm"
   height="53.219162mm"
   viewBox="0 0 549.76537 188.57183"
   id="svg2"
   version="1.1"
   inkscape:version="0.91 r13725"
   sodipodi:docname="integ_diff.svg">
  <sodipodi:namedview
     id="base"
     pagecolor="#ffffff"
     bordercolor="#666666"
     borderopacity="1.0"
     inkscape:pageopacity="0.0"
     inkscape:pageshadow="2"
     inkscape:zoom="0.49497475"
     inkscape:cx="150.47949"
     inkscape:cy="287.39516"
     inkscape:document-units="px"
     inkscape:current-layer="layer1"
     showgrid="false"
     inkscape:window-width="1680"
     inkscape:window-height="991"
     inkscape:window-x="0"
     inkscape:window-y="0"
     inkscape:window-maximized="1"
     fit-margin-top="0"
     fit-margin-left="0"
     fit-margin-right="0"
     fit-margin-bottom="0" />
  <defs
     id="defs4">
    <marker
       inkscape:isstock="true"
       style="overflow:visible"
       id="Arrow1Lend"
       refX="0"
       refY="0"
       orient="auto"
       inkscape:stockid="Arrow1Lend">
      <path
         inkscape:connector-curvature="0"
         transform="matrix(-0.8,0,0,-0.8,-10,0)"
         style="fill:#ff0000;fill-opacity:1;fill-rule:evenodd;stroke:#ff0000;stroke-width:1pt;stroke-opacity:1"
         d="M 0,0 5,-5 -12.5,0 5,5 0,0 Z"
         id="path4184" />
    </marker>
    <marker
       inkscape:isstock="true"
       style="overflow:visible"
       id="Arrow1Lend-7"
       refX="0"
       refY="0"
       orient="auto"
       inkscape:stockid="Arrow1Lend">
      <path
         transform="matrix(-0.8,0,0,-0.8,-10,0)"
         style="fill:#ff0000;fill-opacity:1;fill-rule:evenodd;stroke:#ff0000;stroke-width:1pt;stroke-opacity:1"
         d="M 0,0 5,-5 -12.5,0 5,5 0,0 Z"
         id="path4184-5"
         inkscape:connector-curvature="0" />
    </marker>
    <marker
       inkscape:isstock="true"
       style="overflow:visible"
       id="Arrow1Lend-7-5"
       refX="0"
       refY="0"
       orient="auto"
       inkscape:stockid="Arrow1Lend">
      <path
         transform="matrix(-0.8,0,0,-0.8,-10,0)"
         style="fill:#ff0000;fill-opacity:1;fill-rule:evenodd;stroke:#ff0000;stroke-width:1pt;stroke-opacity:1"
         d="M 0,0 5,-5 -12.5,0 5,5 0,0 Z"
         id="path4184-5-6"
         inkscape:connector-curvature="0" />
    </marker>
    <marker
       inkscape:isstock="true"
       style="overflow:visible"
       id="Arrow1Lend-7-5-9"
       refX="0"
       refY="0"
       orient="auto"
       inkscape:stockid="Arrow1Lend">
      <path
         transform="matrix(-0.8,0,0,-0.8,-10,0)"
         style="fill:#ff0000;fill-opacity:1;fill-rule:evenodd;stroke:#ff0000;stroke-width:1pt;stroke-opacity:1"
         d="M 0,0 5,-5 -12.5,0 5,5 0,0 Z"
         id="path4184-5-6-1"
         inkscape:connector-curvature="0" />
    </marker>
  </defs>
  <metadata
     id="metadata7">
    <rdf:RDF>
      <cc:Work
         rdf:about="">
        <dc:format>image/svg+xml</dc:format>
        <dc:type
           rdf:resource="http://purl.org/dc/dcmitype/StillImage" />
        <dc:title></dc:title>
      </cc:Work>
    </rdf:RDF>
  </metadata>
  <g
     transform="translate(-32.329956,-586.87354)"
     id="layer1"
     inkscape:groupmode="layer"
     inkscape:label="Layer 1">
    <rect
       y="667.2608"
       x="32.596703"
       height="26.730473"
       width="96.431"
       id="rect3336"
       style="fill:#ff0000;stroke:#000000;stroke-width:0.53349245" />
    <rect
       y="662.31287"
       x="434.48764"
       height="33.595989"
       width="147.23814"
       id="rect3336-3"
       style="fill:#ff0000;stroke:#000000;stroke-width:0.73904437" />
    <rect
       y="663.24554"
       x="237.43047"
       height="32.235634"
       width="95.875244"
       id="rect3336-6"
       style="fill:#ff0000;stroke:#000000;stroke-width:0.58416831" />
    <text
       sodipodi:linespacing="125%"
       id="text3363"
       y="688.70728"
       x="36.870567"
       style="font-style:normal;font-weight:normal;font-size:25px;line-height:125%;font-family:sans-serif;letter-spacing:0px;word-spacing:0px;fill:#000000;fill-opacity:1;stroke:none;stroke-width:1px;stroke-linecap:butt;stroke-linejoin:miter;stroke-opacity:1"
       xml:space="preserve"><tspan
         y="688.70728"
         x="36.870567"
         id="tspan3365"
         sodipodi:role="line">position</tspan></text>
    <text
       sodipodi:linespacing="125%"
       id="text3367"
       y="686.68701"
       x="240.41628"
       style="font-style:normal;font-weight:normal;font-size:25px;line-height:125%;font-family:sans-serif;letter-spacing:0px;word-spacing:0px;fill:#000000;fill-opacity:1;stroke:none;stroke-width:1px;stroke-linecap:butt;stroke-linejoin:miter;stroke-opacity:1"
       xml:space="preserve"><tspan
         y="686.68701"
         x="240.41628"
         id="tspan3369"
         sodipodi:role="line">velocity</tspan></text>
    <text
       sodipodi:linespacing="125%"
       id="text3371"
       y="688.20227"
       x="439.41635"
       style="font-style:normal;font-weight:normal;font-size:25px;line-height:125%;font-family:sans-serif;letter-spacing:0px;word-spacing:0px;fill:#000000;fill-opacity:1;stroke:none;stroke-width:1px;stroke-linecap:butt;stroke-linejoin:miter;stroke-opacity:1"
       xml:space="preserve"><tspan
         y="688.20227"
         x="439.41635"
         id="tspan3373"
         sodipodi:role="line">acceleration</tspan></text>
    <path
       inkscape:connector-curvature="0"
       id="path3375"
       d="m 101.01525,657.89764 c 0,0 77.78175,-88.38835 171.72594,-2.02031"
       style="fill:none;fill-rule:evenodd;stroke:#ff0000;stroke-width:1px;stroke-linecap:butt;stroke-linejoin:miter;stroke-opacity:1;marker-end:url(#Arrow1Lend)" />
    <path
       inkscape:connector-curvature="0"
       id="path3375-3"
       d="m 309.12951,660.24339 c 0,0 77.78175,-88.38835 171.72594,-2.02031"
       style="fill:none;fill-rule:evenodd;stroke:#ff0000;stroke-width:1px;stroke-linecap:butt;stroke-linejoin:miter;stroke-opacity:1;marker-end:url(#Arrow1Lend-7)" />
    <path
       inkscape:connector-curvature="0"
       id="path3375-3-2"
       d="m 481.9046,703.39771 c 0,0 -78.15824,88.05561 -171.733,1.28745"
       style="fill:none;fill-rule:evenodd;stroke:#ff0000;stroke-width:1px;stroke-linecap:butt;stroke-linejoin:miter;stroke-opacity:1;marker-end:url(#Arrow1Lend-7-5)" />
    <path
       inkscape:connector-curvature="0"
       id="path3375-3-2-2"
       d="m 279.28596,704.2245 c 0,0 -78.15825,88.05561 -171.73301,1.28745"
       style="fill:none;fill-rule:evenodd;stroke:#ff0000;stroke-width:1px;stroke-linecap:butt;stroke-linejoin:miter;stroke-opacity:1;marker-end:url(#Arrow1Lend-7-5-9)" />
    <g
       transform="matrix(0.63480566,0,0,0.63480566,-132.10207,407.16689)"
       id="g5784"
       style="fill:#ffff00">
      <g
         style="font-style:normal;font-variant:normal;font-weight:normal;font-stretch:normal;letter-spacing:normal;word-spacing:normal;text-anchor:start;fill:#ffff00;fill-opacity:1;fill-rule:evenodd;stroke:#000000;stroke-linecap:butt;stroke-linejoin:miter;stroke-miterlimit:10.43299961;stroke-dasharray:none;stroke-dashoffset:0;stroke-opacity:1"
         id="g5786"
         transform="matrix(1.0629921,0,0,-1.0629921,-186.02362,789.27165)"
         xml:space="preserve"
         stroke-miterlimit="10.433"
         font-style="normal"
         font-variant="normal"
         font-weight="normal"
         font-stretch="normal"
         font-size-adjust="none"
         letter-spacing="normal"
         word-spacing="normal"><path
           style="fill:#ffff00;stroke-width:0"
           inkscape:connector-curvature="0"
           d="m 488.97,448.9 0,0.01 0,0 0.01,0 0,0.01 0,0 0,0.01 0.01,0.01 0,0 0,0.01 0,0.01 0.01,0.01 0,0.02 0.01,0.02 0.01,0.02 0,0.02 0.01,0.02 0,0.02 0.01,0.03 0.01,0.02 0.01,0.05 0,0.02 0.01,0.02 0,0.03 0.01,0.02 0,0.02 0.01,0.02 0,0.02 0,0.02 0.01,0.02 0,0.01 0,0.01 0,0.01 0,0 0,0.01 0.01,0 0,0.01 0,0 0,0.01 0,0 0,0 0,0.01 0,0 c 0,0.19 -0.14,0.5 -0.55,0.5 -0.7,0 -3.59,-0.28 -4.47,-0.36 -0.28,-0.03 -0.76,-0.06 -0.76,-0.8 0,-0.48 0.48,-0.48 0.9,-0.48 1.68,0 1.68,-0.25 1.68,-0.53 0,-0.24 -0.07,-0.46 -0.14,-0.77 l -1.99,-7.94 c -0.73,1.14 -1.92,2.05 -3.59,2.05 l 0,-0.97 c 2.43,0 3.11,-2.64 3.11,-3.03 0,-0.14 -0.08,-0.39 -0.11,-0.48 l -1.64,-6.52 c -0.24,-0.98 -1,-1.67 -1.77,-2.34 -0.31,-0.27 -1.72,-1.39 -3.22,-1.39 -1.28,0 -2.53,0.9 -2.53,3.37 0,1.86 1,5.69 1.81,7.08 1.6,2.8 3.38,3.31 4.35,3.31 l 0,0.97 c -4.46,0 -8.99,-4.91 -8.99,-9.92 0,-3.38 2.27,-5.78 5.27,-5.78 1.87,0 3.55,1.08 4.94,2.44 0.67,-2.1 2.68,-2.44 3.59,-2.44 1.25,0 2.12,0.76 2.75,1.84 0.77,1.36 1.22,3.35 1.22,3.49 0,0.45 -0.45,0.45 -0.55,0.45 -0.5,0 -0.53,-0.14 -0.76,-1.08 -0.43,-1.67 -1.1,-3.73 -2.55,-3.73 -0.91,0 -1.16,0.76 -1.16,1.7 0,0.67 0.08,0.98 0.17,1.44 z"
           id="path5788" /><polyline
           style="fill:#ffff00;fill-rule:nonzero;stroke-width:0"
           points="462,418 497.88,418 497.88,420.04 462,420.04 "
           id="polyline5790" /><path
           style="fill:#ffff00;stroke-width:0"
           inkscape:connector-curvature="0"
           d="m 481.41,412.18 0,0 0,0.01 0.01,0 0,0.01 0,0 0,0.01 0.01,0 0,0.01 0,0.01 0,0 0.01,0.02 0.01,0.02 0,0.02 0.01,0.02 0,0.02 0.01,0.02 0.01,0.02 0,0.02 0.01,0.03 0.01,0.04 0,0.03 0.01,0.02 0,0.02 0.01,0.03 0,0.02 0.01,0.02 0,0.02 0.01,0.02 0,0.01 0,0.02 0,0.01 0,0 0.01,0.01 0,0.01 0,0 0,0.01 0,0 0,0.01 0,0 0,0 0,0.01 0,0 c 0,0.18 -0.14,0.5 -0.55,0.5 -0.7,0 -3.59,-0.28 -4.46,-0.36 -0.29,-0.03 -0.77,-0.07 -0.77,-0.8 0,-0.48 0.48,-0.48 0.91,-0.48 1.67,0 1.67,-0.25 1.67,-0.54 0,-0.23 -0.06,-0.45 -0.14,-0.76 l -1.99,-7.94 c -0.73,1.14 -1.92,2.05 -3.59,2.05 l 0,-0.97 c 2.44,0 3.11,-2.64 3.11,-3.03 0,-0.14 -0.08,-0.39 -0.11,-0.49 l -1.64,-6.51 c -0.24,-0.99 -1,-1.67 -1.77,-2.35 -0.31,-0.26 -1.72,-1.39 -3.22,-1.39 -1.28,0 -2.53,0.91 -2.53,3.38 0,1.86 1,5.69 1.82,7.08 1.59,2.79 3.37,3.31 4.34,3.31 l 0,0.97 c -4.45,0 -8.99,-4.91 -8.99,-9.92 0,-3.38 2.27,-5.78 5.27,-5.78 1.88,0 3.55,1.07 4.94,2.43 0.67,-2.09 2.69,-2.43 3.59,-2.43 1.25,0 2.13,0.76 2.75,1.84 0.77,1.36 1.22,3.34 1.22,3.48 0,0.46 -0.45,0.46 -0.55,0.46 -0.5,0 -0.53,-0.14 -0.76,-1.08 -0.42,-1.67 -1.1,-3.74 -2.55,-3.74 -0.91,0 -1.16,0.77 -1.16,1.71 0,0.67 0.08,0.98 0.18,1.43 z"
           id="path5792" /><path
           style="fill:#ffff00;stroke-width:0"
           inkscape:connector-curvature="0"
           d="m 490.86,402.8 3.54,0 c 0.66,0 1.11,0 1.11,0.77 0,0.48 -0.45,0.48 -1.03,0.48 l -3.31,0 1.28,5.16 c 0.03,0.17 0.11,0.34 0.11,0.49 0,0.64 -0.49,1.12 -1.19,1.12 -0.87,0 -1.39,-0.59 -1.64,-1.5 -0.23,-0.87 0.22,0.8 -1.33,-5.27 l -3.54,0 c -0.66,0 -1.11,0 -1.11,-0.76 0,-0.49 0.4,-0.49 1.04,-0.49 l 3.3,0 -2.05,-8.21 c -0.22,-0.88 -0.53,-2.13 -0.53,-2.58 0,-2.06 1.75,-3.31 3.74,-3.31 3.87,0 6.06,4.87 6.06,5.32 0,0.46 -0.45,0.46 -0.56,0.46 -0.41,0 -0.46,-0.08 -0.72,-0.66 -0.99,-2.2 -2.77,-4.16 -4.67,-4.16 -0.74,0 -1.22,0.46 -1.22,1.71 0,0.36 0.14,1.09 0.2,1.43 z"
           id="path5794" /></g>    </g>
    <text
       sodipodi:linespacing="125%"
       id="text4186"
       y="769.01447"
       x="141.42136"
       style="font-style:normal;font-weight:normal;font-size:25px;line-height:125%;font-family:sans-serif;letter-spacing:0px;word-spacing:0px;fill:#000000;fill-opacity:1;stroke:#ff0000;stroke-width:1px;stroke-linecap:butt;stroke-linejoin:miter;stroke-opacity:1"
       xml:space="preserve"><tspan
         y="769.01447"
         x="141.42136"
         id="tspan4188"
         sodipodi:role="line">Integrate</tspan></text>
    <text
       sodipodi:linespacing="125%"
       id="text4186-3"
       y="769.74518"
       x="342.28555"
       style="font-style:normal;font-weight:normal;font-size:25px;line-height:125%;font-family:sans-serif;letter-spacing:0px;word-spacing:0px;fill:#000000;fill-opacity:1;stroke:#ff0000;stroke-width:1px;stroke-linecap:butt;stroke-linejoin:miter;stroke-opacity:1"
       xml:space="preserve"><tspan
         y="769.74518"
         x="342.28555"
         id="tspan4188-6"
         sodipodi:role="line">Integrate</tspan></text>
    <text
       sodipodi:linespacing="125%"
       id="text4208"
       y="606.37988"
       x="121.72338"
       style="font-style:normal;font-weight:normal;font-size:25px;line-height:125%;font-family:sans-serif;letter-spacing:0px;word-spacing:0px;fill:#000000;fill-opacity:1;stroke:#ff0000;stroke-width:1px;stroke-linecap:butt;stroke-linejoin:miter;stroke-opacity:1"
       xml:space="preserve"><tspan
         y="606.37988"
         x="121.72338"
         id="tspan4210"
         sodipodi:role="line">Differentiate</tspan></text>
    <text
       sodipodi:linespacing="125%"
       id="text4208-7"
       y="607.67975"
       x="325.99231"
       style="font-style:normal;font-weight:normal;font-size:25px;line-height:125%;font-family:sans-serif;letter-spacing:0px;word-spacing:0px;fill:#000000;fill-opacity:1;stroke:#ff0000;stroke-width:1px;stroke-linecap:butt;stroke-linejoin:miter;stroke-opacity:1"
       xml:space="preserve"><tspan
         y="607.67975"
         x="325.99231"
         id="tspan4210-5"
         sodipodi:role="line">Differentiate</tspan></text>
    <g
       id="g4282"
       transform="matrix(0.58626318,0,0,0.58626318,-331.63987,383.9754)"
       style="fill:#ffff00">
      <g
         word-spacing="normal"
         letter-spacing="normal"
         font-size-adjust="none"
         font-stretch="normal"
         font-weight="normal"
         font-variant="normal"
         font-style="normal"
         stroke-miterlimit="10.433"
         xml:space="preserve"
         transform="matrix(0.66281001,0,0,-0.66281001,-115.99175,842.27714)"
         id="content"
         style="font-style:normal;font-variant:normal;font-weight:normal;font-stretch:normal;letter-spacing:normal;word-spacing:normal;text-anchor:start;fill:#ffff00;fill-opacity:1;fill-rule:evenodd;stroke:#000000;stroke-linecap:butt;stroke-linejoin:miter;stroke-miterlimit:10.43299961;stroke-dasharray:none;stroke-dashoffset:0;stroke-opacity:1"><path
           id="path4285"
           d="m 1194.3,292.69 0.1,0.01 0.2,0.02 0.1,0.03 0.1,0.03 0.2,0.03 0.1,0.04 0.1,0.05 0.1,0.05 0.1,0.05 0.1,0.06 0.1,0.06 0.1,0.07 0.1,0.07 0.1,0.07 0.1,0.08 0.1,0.08 0.1,0.09 0,0.08 0.1,0.09 0.1,0.1 0,0.09 0.1,0.1 0,0.11 0,0.1 0.1,0.11 0,0.1 0,0.11 0.1,0.12 0,0.11 0,0.11 0,0.12 0,0.11 c 0,1.65 -1.3,2.44 -2.4,2.44 -1.2,0 -2.4,-0.75 -2.4,-2.48 0,-2.55 2.5,-4.64 5.5,-4.64 7.6,0 10.4,11.65 13.9,26.11 3.9,15.73 7.1,31.64 9.8,47.62 1.8,10.61 3.7,20.58 5.4,27 0.6,2.45 2.3,8.88 4.2,8.88 1.6,0 2.8,-0.96 3,-1.14 -1.6,-0.11 -2.5,-1.21 -2.5,-2.46 0,-1.64 1.3,-2.43 2.4,-2.43 1.2,0 2.5,0.75 2.5,2.48 0,2.7 -2.7,4.64 -5.5,4.64 -3.8,0 -6.5,-5.44 -9.3,-15.59 -0.1,-0.55 -6.9,-25.57 -12.4,-58.14 -1.3,-7.63 -2.7,-15.94 -4.4,-22.88 -0.9,-3.62 -3.2,-13 -7.2,-13 -1.8,0 -3,1.14 -3,1.14 z"
           inkscape:connector-curvature="0"
           style="fill:#ffff00;stroke-width:0" /><path
           id="path4287"
           d="m 1272.9,367.39 0,0 0,0.01 0,0 0,0.02 0,0.01 0,0.01 0,0.02 0,0.02 -0.1,0.02 0,0.02 0,0.02 0,0.02 0,0.02 0,0.03 0,0.02 0,0.03 0,0.02 0,0.03 -0.1,0.02 0,0.02 0,0.03 0,0.01 0,0.01 0,0.01 0,0.01 -0.1,0.01 0,0.01 0,0.01 0,0.01 0,0.01 0,0.01 -0.1,0 0,0.01 0,0.01 0,0.01 0,0 -0.1,0.01 0,0 0,0.01 0,0 -0.1,0 0,0 0,0.01 -0.1,0 0,0 c -0.7,0 -5.5,-0.46 -6.3,-0.55 -0.4,-0.05 -0.7,-0.3 -0.7,-0.95 0,-0.6 0.4,-0.6 1.2,-0.6 2.4,0 2.5,-0.34 2.5,-0.84 l -0.2,-1 -3,-11.81 c -0.9,1.84 -2.3,3.19 -4.5,3.19 l 0,-1.1 c 3.2,0 3.9,-4.08 3.9,-4.37 0,-0.32 0,-0.61 -0.1,-0.86 l -2.5,-9.77 c -0.3,-0.89 -0.3,-0.98 -1,-1.84 -2.2,-2.74 -4.2,-3.53 -5.6,-3.53 -2.5,0 -3.2,2.73 -3.2,4.68 0,2.49 1.6,8.61 2.7,10.91 1.6,2.94 3.8,4.78 5.8,4.78 l 0,1.1 c -5.9,0 -12,-7.32 -12,-14.6 0,-4.69 2.7,-7.97 6.6,-7.97 1,0 3.5,0.21 6.4,3.74 0.5,-2.1 2.2,-3.74 4.6,-3.74 1.7,0 2.9,1.14 3.7,2.74 0.8,1.79 1.5,4.84 1.5,4.93 0,0.5 -0.5,0.5 -0.6,0.5 -0.5,0 -0.6,-0.2 -0.7,-0.9 -0.9,-3.24 -1.8,-6.17 -3.8,-6.17 -1.3,0 -1.5,1.29 -1.5,2.29 0,1.19 0.1,1.55 0.3,2.39 z"
           inkscape:connector-curvature="0"
           style="fill:#ffff00;stroke-width:0" /><path
           id="path4289"
           d="m 1283.3,353.28 4.7,0 c 1,0 1.5,0 1.5,1 0,0.55 -0.5,0.55 -1.4,0.55 l -4.4,0 c 1.8,7.08 2.1,8.08 2.1,8.37 0,0.85 -0.6,1.35 -1.5,1.35 -0.1,0 -1.5,-0.05 -2,-1.8 l -1.9,-7.92 -4.7,0 c -1,0 -1.5,0 -1.5,-0.94 0,-0.61 0.4,-0.61 1.4,-0.61 l 4.4,0 c -3.6,-14.14 -3.8,-14.98 -3.8,-15.89 0,-2.69 1.9,-4.58 4.6,-4.58 5.1,0 7.9,7.27 7.9,7.67 0,0.5 -0.4,0.5 -0.6,0.5 -0.4,0 -0.5,-0.15 -0.7,-0.7 -2.2,-5.17 -4.8,-6.37 -6.5,-6.37 -1,0 -1.5,0.65 -1.5,2.29 0,1.19 0,1.55 0.3,2.39 z"
           inkscape:connector-curvature="0"
           style="fill:#ffff00;stroke-width:0" /></g>    </g>
  </g>
</svg>
