<?xml version="1.0" encoding="UTF-8"?>
<svg xmlns="http://www.w3.org/2000/svg" xmlns:xlink="http://www.w3.org/1999/xlink" width="67.054pt" height="19.689pt" viewBox="0 0 67.054 19.689" version="1.1">
<g id="surface1">
<path style="fill:none;stroke-width:0.3985;stroke-linecap:butt;stroke-linejoin:miter;stroke:rgb(0%,0%,0%);stroke-opacity:1;stroke-miterlimit:10;" d="M -0.0013125 -0.00178125 L 16.440094 -0.00178125 M 40.252594 -0.00178125 L 56.694 -0.00178125 " transform="matrix(1,0,0,-1,5.181,11.174)"/>
<path style="fill:none;stroke-width:0.797;stroke-linecap:butt;stroke-linejoin:bevel;stroke:rgb(0%,0%,0%);stroke-opacity:1;stroke-miterlimit:10;" d="M 16.041656 -0.158031 C 16.041656 3.127125 17.678375 5.795094 19.694 5.795094 C 21.709625 5.795094 23.346344 3.127125 23.346344 -0.158031 C 23.346344 -1.802563 22.678375 -3.134594 21.858062 -3.134594 C 21.033844 -3.134594 20.369781 -1.802563 20.369781 -0.158031 C 20.369781 3.127125 22.002594 5.795094 24.022125 5.795094 C 26.03775 5.795094 27.670562 3.127125 27.670562 -0.158031 C 27.670562 -1.802563 27.0065 -3.134594 26.182281 -3.134594 C 25.361969 -3.134594 24.694 -1.802563 24.694 -0.158031 C 24.694 3.127125 26.330719 5.795094 28.346344 5.795094 C 30.361969 5.795094 31.998687 3.127125 31.998687 -0.158031 C 31.998687 -1.802563 31.330719 -3.134594 30.510406 -3.134594 C 29.686187 -3.134594 29.022125 -1.802563 29.022125 -0.158031 C 29.022125 3.127125 30.654937 5.795094 32.674469 5.795094 C 34.690094 5.795094 36.322906 3.127125 36.322906 -0.158031 C 36.322906 -1.802563 35.658844 -3.134594 34.834625 -3.134594 C 34.014313 -3.134594 33.346344 -1.802563 33.346344 -0.158031 C 33.346344 3.127125 34.983063 5.795094 36.998688 5.795094 C 39.014313 5.795094 40.651031 3.127125 40.651031 -0.158031 " transform="matrix(1,0,0,-1,5.181,11.174)"/>
</g>
</svg>
